<?xml version="1.0" encoding="UTF-8" standalone="no"?>
<!-- Created with Inkscape (http://www.inkscape.org/) -->

<svg
   xmlns:dc="http://purl.org/dc/elements/1.1/"
   xmlns:cc="http://creativecommons.org/ns#"
   xmlns:rdf="http://www.w3.org/1999/02/22-rdf-syntax-ns#"
   xmlns:svg="http://www.w3.org/2000/svg"
   xmlns="http://www.w3.org/2000/svg"
   xmlns:sodipodi="http://sodipodi.sourceforge.net/DTD/sodipodi-0.dtd"
   xmlns:inkscape="http://www.inkscape.org/namespaces/inkscape"
   width="37.556625"
   height="37.556622"
   viewBox="0 0 9.9368575 9.9368564"
   version="1.1"
   id="svg49872"
   inkscape:version="0.92.2 5c3e80d, 2017-08-06"
   sodipodi:docname="as-FxKnob.svg">
  <defs
     id="defs49866">
    <clipPath
       id="clip12">
      <path
         d="m 143,129.75 h 3 V 158 h -3 z m 0,0"
         id="path28860"
         inkscape:connector-curvature="0" />
    </clipPath>
    <clipPath
       id="clip11">
      <path
         d="m 117.39453,129.75 h 54 v 54.00391 h -54 z m 0,0"
         id="path28857"
         inkscape:connector-curvature="0" />
    </clipPath>
    <clipPath
       id="clip150">
      <path
         d="m 176,208.92578 h 2 V 228 h -2 z m 0,0"
         id="path29465"
         inkscape:connector-curvature="0" />
    </clipPath>
    <clipPath
       id="clip149">
      <path
         d="m 159.27734,208.92578 h 36 v 36 h -36 z m 0,0"
         id="path29462"
         inkscape:connector-curvature="0" />
    </clipPath>
    <clipPath
       id="clip142">
      <path
         d="m 110,208.92578 h 3 V 228 h -3 z m 0,0"
         id="path29320"
         inkscape:connector-curvature="0" />
    </clipPath>
    <clipPath
       id="clip141">
      <path
         d="m 93.511719,208.92578 h 36.000001 v 36 H 93.511719 Z m 0,0"
         id="path29317"
         inkscape:connector-curvature="0" />
    </clipPath>
  </defs>
  <sodipodi:namedview
     id="base"
     pagecolor="#ffffff"
     bordercolor="#666666"
     borderopacity="1.0"
     inkscape:pageopacity="0.0"
     inkscape:pageshadow="2"
     inkscape:zoom="6.7390899"
     inkscape:cx="12.255594"
     inkscape:cy="14.878857"
     inkscape:document-units="px"
     inkscape:current-layer="layer1"
     showgrid="false"
     fit-margin-top="0"
     fit-margin-left="0"
     fit-margin-right="0"
     fit-margin-bottom="0"
     units="px"
     inkscape:window-width="1695"
     inkscape:window-height="1317"
     inkscape:window-x="214"
     inkscape:window-y="78"
     inkscape:window-maximized="0"
     inkscape:snap-global="true"
     inkscape:snap-bbox="true"
     inkscape:snap-bbox-midpoints="true"
     inkscape:snap-object-midpoints="true"
     inkscape:snap-bbox-edge-midpoints="true"
     inkscape:object-paths="true"
     inkscape:pagecheckerboard="false"
     showguides="false" />
  <metadata
     id="metadata49869">
    <rdf:RDF>
      <cc:Work
         rdf:about="">
        <dc:format>image/svg+xml</dc:format>
        <dc:type
           rdf:resource="http://purl.org/dc/dcmitype/StillImage" />
        <dc:title />
      </cc:Work>
    </rdf:RDF>
  </metadata>
  <g
     inkscape:label="Layer 1"
     inkscape:groupmode="layer"
     id="layer1"
     transform="translate(-73.816227,-78.610433)">
    <path
       inkscape:connector-curvature="0"
       id="path6445-4-3"
       data-name="path6445-4"
       d="m 83.547156,83.578861 a 4.7625001,4.7625001 0 1 1 -4.7625,-4.7625 4.7625001,4.7625001 0 0 1 4.7625,4.7625"
       style="fill:#191919;stroke-width:0.26458335" />
    <path
       style="fill:#232323;stroke-width:0.26458335"
       d="m 83.010052,83.131716 a 6.5140418,6.5140418 0 0 1 -0.674688,-1.031876 6.4505418,6.4505418 0 0 1 -0.243417,-1.19327 4.2492084,4.2492084 0 0 0 -0.637646,-0.637646 6.4346668,6.4346668 0 0 1 -1.19327,-0.243417 6.5034585,6.5034585 0 0 1 -1.018646,-0.672042 4.1089793,4.1089793 0 0 0 -0.894292,0 6.5325627,6.5325627 0 0 1 -1.018646,0.672042 6.4214377,6.4214377 0 0 1 -1.193271,0.243417 4.2492084,4.2492084 0 0 0 -0.637646,0.637646 6.4293752,6.4293752 0 0 1 -0.24077,1.19327 6.5325627,6.5325627 0 0 1 -0.672042,1.031876 4.2492084,4.2492084 0 0 0 -0.02381,0.447145 4.3127084,4.3127084 0 0 0 0.02381,0.447146 6.5034585,6.5034585 0 0 1 0.672042,1.018646 6.4346668,6.4346668 0 0 1 0.243416,1.193271 4.2333334,4.2333334 0 0 0 0.637646,0.624417 6.4611252,6.4611252 0 0 1 1.193271,0.243416 6.5643127,6.5643127 0 0 1 1.018646,0.672042 4.1539584,4.1539584 0 0 0 0.894292,0 6.5378543,6.5378543 0 0 1 1.018645,-0.650875 6.4717085,6.4717085 0 0 1 1.190625,-0.264583 4.2333334,4.2333334 0 0 0 0.637646,-0.637646 6.4584793,6.4584793 0 0 1 0.243417,-1.193271 6.4875835,6.4875835 0 0 1 0.672042,-1.018646 4.3418126,4.3418126 0 0 0 0.02381,-0.447146 4.4106043,4.4106043 0 0 0 -0.02381,-0.447146"
       data-name="path851"
       id="path851-2"
       inkscape:connector-curvature="0" />
    <path
       inkscape:connector-curvature="0"
       id="path6449-2"
       data-name="path6449"
       d="M 83.38769,83.089892 C 83.183896,82.761103 82.844238,82.43775 82.65403,81.978533 82.463823,81.519318 82.477409,81.051949 82.382305,80.676967 A 4.6383583,4.6383583 0 0 0 81.686686,79.98135 C 81.311705,79.89439 80.844337,79.90527 80.38512,79.709624 79.925904,79.513982 79.60255,79.166173 79.273762,78.975965 a 4.4861919,4.4861919 0 0 0 -0.978213,0 c -0.328788,0.203794 -0.652142,0.543451 -1.111358,0.733659 -0.459216,0.190208 -0.926585,0.176622 -1.301566,0.271726 a 4.6356411,4.6356411 0 0 0 -0.695618,0.695617 c -0.08695,0.374982 -0.07608,0.842351 -0.271726,1.301566 -0.195643,0.459217 -0.543451,0.78257 -0.73366,1.111359 a 4.6383583,4.6383583 0 0 0 -0.02717,0.489106 4.6927035,4.6927035 0 0 0 0.02717,0.489106 c 0.203795,0.328789 0.543452,0.652142 0.73366,1.111359 0.190208,0.459216 0.176622,0.926584 0.271726,1.301566 a 4.6193375,4.6193375 0 0 0 0.695618,0.695618 c 0.374981,0.08696 0.84235,0.07608 1.301566,0.271726 0.459216,0.195642 0.78257,0.543452 1.111358,0.733659 a 4.5323853,4.5323853 0 0 0 0.978213,0 c 0.328788,-0.203794 0.652142,-0.543452 1.111358,-0.733659 0.459217,-0.190208 0.926585,-0.176622 1.301566,-0.271726 a 4.6193375,4.6193375 0 0 0 0.695619,-0.695618 c 0.08696,-0.374982 0.07608,-0.84235 0.271725,-1.301566 0.195643,-0.459217 0.543452,-0.78257 0.73366,-1.111359 a 4.7552004,4.7552004 0 0 0 0.02717,-0.489106 4.6519446,4.6519446 0 0 0 -0.02717,-0.489106"
       style="fill:#1e1e1e;fill-opacity:0.97254902;stroke-width:0.27172574" />
    <g
       id="g955"
       transform="matrix(1.1067693,0,0,1.1067693,-8.4453266,-8.9180825)">
      <path
         inkscape:connector-curvature="0"
         id="path861-2"
         data-name="path861"
         d="m 82.581427,83.176695 a 5.8552293,5.8552293 0 0 1 -0.605896,-0.915459 5.7943751,5.7943751 0 0 1 -0.219605,-1.058333 3.8179376,3.8179376 0 0 0 -0.5715,-0.5715 5.781146,5.781146 0 0 1 -1.058333,-0.219604 5.844646,5.844646 0 0 1 -0.915458,-0.605896 3.7041668,3.7041668 0 0 0 -0.79375,0 5.8711043,5.8711043 0 0 1 -0.915459,0.605896 5.7705626,5.7705626 0 0 1 -1.058333,0.219604 3.8179376,3.8179376 0 0 0 -0.5715,0.5715 5.781146,5.781146 0 0 1 -0.219604,1.058333 5.8684585,5.8684585 0 0 1 -0.60325,0.915459 3.8364584,3.8364584 0 0 0 -0.02117,0.402166 3.9026043,3.9026043 0 0 0 0.02117,0.402167 5.844646,5.844646 0 0 1 0.60325,0.915458 5.7837918,5.7837918 0 0 1 0.219604,1.058334 3.7994168,3.7994168 0 0 0 0.5715,0.5715 5.8049585,5.8049585 0 0 1 1.058333,0.216958 5.9002085,5.9002085 0 0 1 0.915459,0.605896 3.7306251,3.7306251 0 0 0 0.79375,0 5.8737501,5.8737501 0 0 1 0.904875,-0.592667 5.8208335,5.8208335 0 0 1 1.058333,-0.216958 3.8020626,3.8020626 0 0 0 0.582083,-0.574146 5.797021,5.797021 0 0 1 0.219605,-1.058333 5.8208335,5.8208335 0 0 1 0.605896,-0.915459 3.7729584,3.7729584 0 0 0 0,-0.79375"
         style="fill:#323232;stroke:#282827;stroke-width:0.07510334px;stroke-linecap:round" />
      <rect
         x="78.578285"
         y="79.739754"
         width="0.49741668"
         height="1.6933334"
         style="fill:#d0d2d3;stroke-width:0.26458335"
         id="rect2716" />
      <path
         id="path2718"
         style="fill:#58595b;stroke-width:0.26458335"
         d="m 78.797885,86.026257 a 2.4473959,2.4473959 0 1 1 2.447396,-2.447396 2.4500417,2.4500417 0 0 1 -2.447396,2.447396 z"
         inkscape:connector-curvature="0" />
      <path
         id="path2720"
         style="fill:#2d2d2d;stroke-width:0.26458335"
         d="m 78.797885,81.197611 a 2.3812501,2.3812501 0 1 1 -2.38125,2.38125 2.3812501,2.3812501 0 0 1 2.38125,-2.38125 m 0,-0.132291 a 2.5135417,2.5135417 0 1 0 2.513541,2.513541 2.5135417,2.5135417 0 0 0 -2.513541,-2.513541 z"
         inkscape:connector-curvature="0" />
    </g>
  </g>
</svg>
