<?xml version="1.0" encoding="UTF-8" standalone="no"?>
<!-- Created with Inkscape (http://www.inkscape.org/) -->

<svg
   xmlns:dc="http://purl.org/dc/elements/1.1/"
   xmlns:cc="http://creativecommons.org/ns#"
   xmlns:rdf="http://www.w3.org/1999/02/22-rdf-syntax-ns#"
   xmlns:svg="http://www.w3.org/2000/svg"
   xmlns="http://www.w3.org/2000/svg"
   xmlns:sodipodi="http://sodipodi.sourceforge.net/DTD/sodipodi-0.dtd"
   xmlns:inkscape="http://www.inkscape.org/namespaces/inkscape"
   width="24"
   height="24"
   viewBox="0 0 6.3499999 6.3499998"
   version="1.1"
   id="svg15246"
   sodipodi:docname="as-PJ301M.svg"
   inkscape:version="0.92.2 5c3e80d, 2017-08-06">
  <defs
     id="defs15240">
    <clipPath
       id="clip89">
      <rect
         y="0"
         x="0"
         width="18"
         height="19"
         id="rect4864" />
    </clipPath>
    <clipPath
       id="clip90">
      <path
         inkscape:connector-curvature="0"
         d="m 0.898438,0.128906 h 16.25 v 17.882813 h -16.25 z m 0,0"
         id="path4861" />
    </clipPath>
    <mask
       id="mask44">
      <g
         style="filter:url(#alpha)"
         id="g4858"
         transform="matrix(0.26458333,0,0,0.26458333,89.358789,128.57765)">
        <rect
           x="0"
           y="0"
           width="3052.8701"
           height="3351.5"
           style="fill:#000000;fill-opacity:0.14999402;stroke:none"
           id="rect4856" />
      </g>
    </mask>
    <filter
       id="alpha"
       filterUnits="objectBoundingBox"
       x="0"
       y="0"
       width="1"
       height="1">
      <feColorMatrix
         type="matrix"
         in="SourceGraphic"
         values="0 0 0 0 1 0 0 0 0 1 0 0 0 0 1 0 0 0 1 0"
         id="feColorMatrix4149" />
    </filter>
    <clipPath
       id="clipPath17821">
      <rect
         y="0"
         x="0"
         width="18"
         height="19"
         id="rect17819" />
    </clipPath>
    <clipPath
       id="clipPath17825">
      <path
         inkscape:connector-curvature="0"
         d="m 0.898438,0.128906 h 16.25 v 17.882813 h -16.25 z m 0,0"
         id="path17823" />
    </clipPath>
    <clipPath
       id="clip87">
      <rect
         y="0"
         x="0"
         width="24"
         height="26"
         id="rect4848" />
    </clipPath>
    <clipPath
       id="clip88">
      <path
         inkscape:connector-curvature="0"
         d="m 0.683594,0.921875 h 22.679687 v 24.9375 H 0.683594 Z m 0,0"
         id="path4845" />
    </clipPath>
    <mask
       id="mask43">
      <g
         style="filter:url(#alpha)"
         id="g4842"
         transform="matrix(0.26458333,0,0,0.26458333,89.358789,128.57765)">
        <rect
           x="0"
           y="0"
           width="3052.8701"
           height="3351.5"
           style="fill:#000000;fill-opacity:0.14999402;stroke:none"
           id="rect4840" />
      </g>
    </mask>
    <filter
       id="filter17836"
       filterUnits="objectBoundingBox"
       x="0"
       y="0"
       width="1"
       height="1">
      <feColorMatrix
         type="matrix"
         in="SourceGraphic"
         values="0 0 0 0 1 0 0 0 0 1 0 0 0 0 1 0 0 0 1 0"
         id="feColorMatrix17834" />
    </filter>
    <clipPath
       id="clipPath17840">
      <rect
         y="0"
         x="0"
         width="24"
         height="26"
         id="rect17838" />
    </clipPath>
    <clipPath
       id="clipPath17844">
      <path
         inkscape:connector-curvature="0"
         d="m 0.683594,0.921875 h 22.679687 v 24.9375 H 0.683594 Z m 0,0"
         id="path17842" />
    </clipPath>
  </defs>
  <sodipodi:namedview
     id="base"
     pagecolor="#ffffff"
     bordercolor="#666666"
     borderopacity="1.0"
     inkscape:pageopacity="0.0"
     inkscape:pageshadow="2"
     inkscape:zoom="12.542418"
     inkscape:cx="13.471562"
     inkscape:cy="31.232748"
     inkscape:document-units="mm"
     inkscape:current-layer="g936"
     showgrid="false"
     inkscape:window-width="1923"
     inkscape:window-height="1396"
     inkscape:window-x="0"
     inkscape:window-y="0"
     inkscape:window-maximized="0"
     units="px"
     fit-margin-top="0"
     fit-margin-left="0"
     fit-margin-right="0"
     fit-margin-bottom="0" />
  <metadata
     id="metadata15243">
    <rdf:RDF>
      <cc:Work
         rdf:about="">
        <dc:format>image/svg+xml</dc:format>
        <dc:type
           rdf:resource="http://purl.org/dc/dcmitype/StillImage" />
        <dc:title />
      </cc:Work>
    </rdf:RDF>
  </metadata>
  <g
     inkscape:label="Layer 1"
     inkscape:groupmode="layer"
     id="layer1"
     transform="translate(-88.611154,-121.20423)">
    <g
       id="g922"
       transform="matrix(0.92857145,0,0,0.92857145,5.8895549,9.5508327)">
      <g
         transform="matrix(0.13676923,0,0,0.13676923,88.978209,112.80552)"
         id="g24">
        <g
           id="g936"
           transform="translate(-6.1411973,60.790716)">
          <g
             id="g914" />
          <g
             id="g3696">
            <circle
               cx="31.92053"
               cy="18.542604"
               r="24.959999"
               style="fill:#50575e;fill-opacity:1"
               id="circle868" />
            <path
               inkscape:connector-curvature="0"
               d="m 51.420524,3.7226045 a 24.94,24.94 0 0 0 -38.999996,0 32.94,32.94 0 0 1 38.999996,0 z"
               style="fill:#696e71;fill-opacity:1"
               id="path870" />
            <path
               inkscape:connector-curvature="0"
               d="m 31.920528,39.425105 c -12,0 -21.78,-7.189999 -22.8300002,-16.35 a 14.27,14.27 0 0 0 -0.1,1.62 c 0,9.930001 10.2600002,18 22.9200002,18 12.66,0 22.919996,-8 22.919996,-18 a 14.27,14.27 0 0 0 -0.1,-1.62 c -1.03,9.16 -10.809996,16.35 -22.809996,16.35 z"
               style="fill:#3c4041;fill-opacity:1"
               id="path872" />
            <path
               inkscape:connector-curvature="0"
               d="M 31.920528,-4.4173948 A 23,23 0 1 1 8.9205278,18.582604 23,23 0 0 1 31.920528,-4.4173948 m 0,-2 A 25,25 0 1 0 56.920524,18.582604 25,25 0 0 0 31.920528,-6.4173948 Z"
               id="path884"
               style="" />
            <g
               style="fill:#000000;fill-opacity:1;stroke:#636663;stroke-opacity:1"
               id="g878"
               transform="matrix(1.0758404,0,0,1.0758404,-14.566954,15.523047)">
              <path
                 inkscape:connector-curvature="0"
                 d="m 43.210386,-11.616123 a 14.46,14.46 0 1 1 -14.46,14.4599997 14.48,14.48 0 0 1 14.46,-14.4599997 m 0,-2 a 16.46,16.46 0 1 0 16.46,16.4599997 16.46,16.46 0 0 0 -16.46,-16.4599997 z"
                 style="fill:#282828;fill-opacity:1;stroke:none;stroke-opacity:1"
                 id="path876" />
            </g>
            <path
               id="path874"
               d="M 31.920524,34.238381 A 15.655775,15.655775 0 1 1 47.576297,18.572479 15.676026,15.676026 0 0 1 31.920524,34.238381 Z"
               inkscape:connector-curvature="0"
               style="fill:#000000;fill-opacity:1;stroke:none;stroke-width:1.01266325;stroke-opacity:1" />
            <g
               id="g923"
               transform="translate(2.9527041,-6.7505473)"
               style="fill:#000000;fill-opacity:1;stroke:#646464;stroke-width:2.08333325;stroke-miterlimit:4;stroke-dasharray:none;stroke-opacity:1">
              <path
                 id="path880"
                 d="m 28.975333,36.820666 a 11.48,11.48 0 1 1 11.48,-11.48 11.49,11.49 0 0 1 -11.48,11.48 z"
                 inkscape:connector-curvature="0"
                 style="fill:#000000;fill-opacity:1;stroke:#646464;stroke-width:2.08333325;stroke-miterlimit:4;stroke-dasharray:none;stroke-opacity:1" />
            </g>
          </g>
        </g>
      </g>
    </g>
  </g>
</svg>
