<svg xmlns="http://www.w3.org/2000/svg" width="16" height="24" viewBox="0 0 16 24">
  <g id="Layer_2" data-name="Layer 2">
    <g id="Layer_11" data-name="Layer 11">
      <g>
        <g>
          <path id="path5829" d="M16,22.28A1.71,1.71,0,0,1,14.31,24H1.69A1.71,1.71,0,0,1,0,22.28V1.71A1.71,1.71,0,0,1,1.69,0H14.31A1.71,1.71,0,0,1,16,1.71Z"/>
          <path id="path5849" d="M13.49,22.45a1,1,0,0,0,1-1h0V2.4a1,1,0,0,0-1-1h-11a1,1,0,0,0-1,1h0v19a1,1,0,0,0,1,1h11Z" style="fill: #1a1a1a"/>
        </g>
        <g>
          <path d="M1.65,23.2h12.7A.16.16,0,0,0,14.5,23V11.58a.16.16,0,0,0-.15-.16H1.65a.16.16,0,0,0-.15.16V23A.16.16,0,0,0,1.65,23.2Z" style="fill: #424242"/>
          <rect x="2.25" y="12.17" width="11.5" height="10.29" style="fill: #2e2e2e;stroke: #424242;stroke-miterlimit: 15.118109703063965;stroke-width: 0.5000000124039445px"/>
          <rect id="rect828" x="4" y="16.56" width="8" height="1.5" rx="0.12" style="fill: #f40"/>
          <path id="rect828-2" data-name="rect828" d="M11.88,18.14H4.12c-.06,0-.12,0-.12,0v-.41s.06-.05.12-.05h7.76c.06,0,.12,0,.12.05v.41S11.94,18.14,11.88,18.14Z" style="fill: #fff;opacity: 0.3"/>
          <path id="rect828-3" data-name="rect828" d="M2.43,21.59H13.57a.16.16,0,0,1,.18.14v1.34c0,.07-.08.13-.18.13H2.43c-.1,0-.18-.06-.18-.13V21.73A.16.16,0,0,1,2.43,21.59Z" style="fill: #231f20;opacity: 0.4"/>
          <path id="rect828-4" data-name="rect828" d="M2.43,11.42H13.57c.1,0,.18.06.18.13v1.34c0,.07-.08.13-.18.13H2.43c-.1,0-.18-.06-.18-.13V11.55C2.25,11.48,2.33,11.42,2.43,11.42Z" style="fill: #fff;opacity: 0.08"/>
        </g>
      </g>
    </g>
  </g>
</svg>
