<svg xmlns="http://www.w3.org/2000/svg" width="16" height="36" viewBox="0 0 16 36">
  <g id="Layer_2" data-name="Layer 2">
    <g id="Layer_11" data-name="Layer 11">
      <g>
        <path id="path243332" d="M0,1.54A1.55,1.55,0,0,1,1.69,0H14.32A1.55,1.55,0,0,1,16,1.54V34.46A1.56,1.56,0,0,1,14.32,36H1.69A1.56,1.56,0,0,1,0,34.46Z"/>
        <path id="path243334" d="M13.35,1.5H2.65A1.14,1.14,0,0,0,1.5,2.65v30.7A1.14,1.14,0,0,0,2.65,34.5h10.7a1.14,1.14,0,0,0,1.15-1.15V2.65A1.14,1.14,0,0,0,13.35,1.5Z" style="fill: #1a1a1a"/>
        <g>
          <path d="M1.65,34.78h12.7a.16.16,0,0,0,.15-.16V23.16a.16.16,0,0,0-.15-.16H1.65a.16.16,0,0,0-.15.16V34.62A.16.16,0,0,0,1.65,34.78Z" style="fill: #424242"/>
          <rect x="2.25" y="23.75" width="11.5" height="10.29" style="fill: #2e2e2e;stroke: #424242;stroke-miterlimit: 15.118109703063965;stroke-width: 0.5000000124039445px"/>
          <rect id="rect828" x="4" y="28.14" width="8" height="1.5" rx="0.12" style="fill: #f40"/>
          <path id="rect828-2" data-name="rect828" d="M11.88,29.73H4.12c-.06,0-.12,0-.12-.05v-.41s.06,0,.12,0h7.76c.06,0,.12,0,.12,0v.41S11.94,29.73,11.88,29.73Z" style="fill: #fff;opacity: 0.3"/>
          <path id="rect828-3" data-name="rect828" d="M2.43,33.18H13.57c.1,0,.18.06.18.13v1.34c0,.07-.08.13-.18.13H2.43c-.1,0-.18-.06-.18-.13V33.31C2.25,33.24,2.33,33.18,2.43,33.18Z" style="fill: #231f20;opacity: 0.4"/>
          <path id="rect828-4" data-name="rect828" d="M2.43,23H13.57c.1,0,.18.06.18.13v1.34c0,.07-.08.13-.18.13H2.43c-.1,0-.18-.06-.18-.13V23.13C2.25,23.06,2.33,23,2.43,23Z" style="fill: #fff;opacity: 0.08"/>
        </g>
      </g>
    </g>
  </g>
</svg>
