<svg xmlns="http://www.w3.org/2000/svg" xmlns:xlink="http://www.w3.org/1999/xlink" width="16" height="24" viewBox="0 0 16 24">
  <defs>
    <linearGradient id="linear-gradient" x1="2.25" y1="22.4" x2="13.75" y2="22.4" gradientTransform="translate(0 -10.62)" gradientUnits="userSpaceOnUse">
      <stop offset="0" stop-color="#fff"/>
      <stop offset="1"/>
    </linearGradient>
  </defs>
  <g id="Layer_2" data-name="Layer 2">
    <g id="Layer_11" data-name="Layer 11">
      <g id="layer1">
        <g>
          <g id="g5827">
            <path id="path5829" d="M0,1.72A1.71,1.71,0,0,1,1.69,0H14.31A1.71,1.71,0,0,1,16,1.72V22.29A1.71,1.71,0,0,1,14.31,24H1.69A1.71,1.71,0,0,1,0,22.29Z"/>
          </g>
          <g id="g5839">
            <g id="g5841">
              <path id="path5849" d="M2.51,1.55a1,1,0,0,0-1,1h0v19a1,1,0,0,0,1,1h11a1,1,0,0,0,1-1h0v-19a1,1,0,0,0-1-1h-11Z" style="fill: #1a1a1a"/>
            </g>
          </g>
        </g>
        <g>
          <path d="M1.65,12.58h12.7a.16.16,0,0,0,.15-.16V1A.16.16,0,0,0,14.35.8H1.65A.16.16,0,0,0,1.5,1V12.42A.16.16,0,0,0,1.65,12.58Z" style="fill: #424242"/>
          <rect x="2.25" y="1.55" width="11.5" height="10.29" style="fill: #f0f0e5"/>
          <rect id="rect828" x="4" y="5.94" width="8" height="1.5" rx="0.12" style="fill: #1a252d"/>
          <path id="rect828-2" data-name="rect828" d="M11.88,7.53H4.12c-.06,0-.12,0-.12,0V7.07s.06,0,.12,0h7.76c.06,0,.12,0,.12,0v.41S11.94,7.53,11.88,7.53Z" style="fill: #dbeffc"/>
          <path id="rect828-3" data-name="rect828" d="M2.43,11H13.57c.1,0,.18.06.18.13v1.34c0,.07-.08.13-.18.13H2.43c-.1,0-.18-.06-.18-.13V11.11C2.25,11,2.33,11,2.43,11Z" style="opacity: 0.2;fill: url(#linear-gradient)"/>
          <path id="rect828-4" data-name="rect828" d="M2.43.8H13.57c.1,0,.18.06.18.13V2.27a.16.16,0,0,1-.18.14H2.43a.16.16,0,0,1-.18-.14V.93C2.25.86,2.33.8,2.43.8Z" style="fill: #fff;opacity: 0.5"/>
        </g>
      </g>
    </g>
  </g>
</svg>
