<svg xmlns="http://www.w3.org/2000/svg" xmlns:xlink="http://www.w3.org/1999/xlink" width="36" height="36" viewBox="0 0 36 36">
  <defs>
    <linearGradient id="linear-gradient" x1="-16.46" y1="58.41" x2="-7.49" y2="58.41" gradientTransform="translate(-7.04 76.43) rotate(180)" gradientUnits="userSpaceOnUse">
      <stop offset="0" stop-opacity="0.8"/>
      <stop offset="1" stop-opacity="0"/>
    </linearGradient>
    <linearGradient id="linear-gradient-2" x1="-27.68" y1="18.02" x2="-18.72" y2="18.02" gradientTransform="translate(54.08)" xlink:href="#linear-gradient"/>
  </defs>
  <g id="Layer_2" data-name="Layer 2">
    <g id="Layer_6" data-name="Layer 6">
      <g>
        <path d="M26.86,2.34l0,0c-.42-.23-.84-.45-1.27-.65l-.12,0q-.64-.3-1.32-.54h0c-.44-.16-.89-.3-1.35-.43l-.12,0c-.44-.12-.89-.22-1.34-.3L21,.26c-.45-.08-.9-.14-1.36-.18l-.22,0C19,0,18.49,0,18,0s-1,0-1.45.06l-.22,0c-.46,0-.91.1-1.36.18l-.24,0c-.45.08-.9.18-1.34.3l-.12,0q-.69.19-1.35.42l0,0q-.68.24-1.32.54l-.12,0c-.43.2-.85.42-1.27.65l0,0a18,18,0,1,0,17.72,0Z" style="fill: #231f20;opacity: 0.01"/>
        <g>
          <path d="M25.58,2.2a17.61,17.61,0,0,0-15.16,0c-.33.16-.66.33-1,.51V33.29c.32.18.65.35,1,.5a17.47,17.47,0,0,0,15.16,0c.33-.16.65-.33,1-.5V2.74A10.33,10.33,0,0,0,25.58,2.2Zm0,30.62a17.56,17.56,0,0,1-15.16,0V3.2a17.52,17.52,0,0,1,15.16,0Z" style="fill: #232323"/>
          <path d="M10.42,3.2V32.84a17.56,17.56,0,0,0,15.16,0V3.19a17.52,17.52,0,0,0-15.16,0Z" style="fill: #191818;opacity: 0.5"/>
          <rect id="rect2716-2" x="17.35" y="0.48" width="1.3" height="13.53" style="fill: #e8e7e7"/>
        </g>
        <g>
          <path d="M4,28.52c.31.41.64.8,1,1.18a14.66,14.66,0,0,0,1.11,1.12c.33.31.68.61,1,.89a14.9,14.9,0,0,0,1.37,1c.31.21.64.41,1,.59V2.74c-.33.19-.66.38-1,.59-.48.31-.93.64-1.37,1s-.7.58-1,.89-.76.73-1.11,1.12-.67.78-1,1.19a17.5,17.5,0,0,0,0,21Z" style="fill: url(#linear-gradient)"/>
          <path d="M31.85,7.52c-.31-.41-.63-.81-1-1.19s-.73-.76-1.11-1.12-.68-.61-1-.89-.89-.68-1.36-1-.64-.4-1-.59V33.29c.33-.18.65-.38,1-.59a16.25,16.25,0,0,0,1.36-1c.36-.28.7-.58,1-.89s.76-.73,1.11-1.12.66-.77,1-1.18a17.46,17.46,0,0,0,0-21Z" style="fill: url(#linear-gradient-2)"/>
        </g>
      </g>
    </g>
  </g>
</svg>
