<svg xmlns="http://www.w3.org/2000/svg" xmlns:xlink="http://www.w3.org/1999/xlink" width="36" height="36" viewBox="0 0 36 36">
  <defs>
    <linearGradient id="linear-gradient" x1="18" y1="-16.76" x2="18" y2="17.78" gradientUnits="userSpaceOnUse">
      <stop offset="0" stop-color="#fffafc" stop-opacity="0.8"/>
      <stop offset="0.15" stop-color="#fffafc" stop-opacity="0.79"/>
      <stop offset="0.29" stop-color="#fffafc" stop-opacity="0.74"/>
      <stop offset="0.43" stop-color="#fffbfc" stop-opacity="0.67"/>
      <stop offset="0.56" stop-color="#fffbfd" stop-opacity="0.57"/>
      <stop offset="0.7" stop-color="#fffcfd" stop-opacity="0.43"/>
      <stop offset="0.83" stop-color="#fffdfe" stop-opacity="0.27"/>
      <stop offset="0.95" stop-color="#fff" stop-opacity="0.08"/>
      <stop offset="1" stop-color="#fff" stop-opacity="0"/>
    </linearGradient>
  </defs>
  <g id="Layer_2" data-name="Layer 2">
    <g id="Layer_10" data-name="Layer 10">
      <g>
        <g>
          <circle id="path3744" cx="18" cy="18.01" r="17.51" style="fill: #21211c"/>
          <path id="path2522" d="M18,36A18,18,0,1,1,36,18,18,18,0,0,1,18,36ZM18,1A17.05,17.05,0,1,0,35,18,17.06,17.06,0,0,0,18,1Z" style="fill: #1e1e1e"/>
        </g>
        <path d="M18,0A18,18,0,0,0,.46,14,31.56,31.56,0,0,0,18,19a31.56,31.56,0,0,0,17.54-5A18,18,0,0,0,18,0Z" style="opacity: 0.49;fill: url(#linear-gradient)"/>
      </g>
    </g>
  </g>
</svg>
