<svg xmlns="http://www.w3.org/2000/svg" xmlns:xlink="http://www.w3.org/1999/xlink" width="36" height="36" viewBox="0 0 36 36">
  <defs>
    <linearGradient id="linear-gradient" x1="-16.97" y1="58.43" x2="-8.01" y2="58.43" gradientTransform="translate(-7.04 76.43) rotate(180)" gradientUnits="userSpaceOnUse">
      <stop offset="0" stop-color="#bdbdab" stop-opacity="0.8"/>
      <stop offset="1" stop-color="#dbdbc7" stop-opacity="0"/>
    </linearGradient>
    <linearGradient id="linear-gradient-2" x1="-28.01" y1="18" x2="-19.05" y2="18" gradientTransform="translate(54.08)" xlink:href="#linear-gradient"/>
  </defs>
  <g id="Layer_2" data-name="Layer 2">
    <g id="FX_knob_white" data-name="FX knob white">
      <g id="KNOB">
        <path d="M26.86,2.34l0,0c-.42-.23-.84-.45-1.27-.65l-.12,0q-.64-.3-1.32-.54h0c-.44-.16-.89-.3-1.35-.43l-.12,0c-.44-.12-.89-.22-1.34-.3L21,.26c-.45-.08-.9-.14-1.36-.18l-.22,0C19,0,18.49,0,18,0s-1,0-1.45.06l-.22,0c-.46,0-.91.1-1.36.18l-.24,0c-.45.08-.9.18-1.34.3l-.12,0q-.69.19-1.35.42l0,0q-.68.24-1.32.54l-.12,0c-.43.2-.85.42-1.27.65l0,0a18,18,0,1,0,17.72,0Z" style="fill: #231f20;opacity: 0.01"/>
        <path d="M10.42,3.21V32.84a17.47,17.47,0,0,0,15.16,0V3.21a17.47,17.47,0,0,0-15.16,0Z" style="fill: #f0efe4;opacity: 0.5"/>
        <path d="M4.48,28.5c.31.41.63.81,1,1.19s.73.76,1.12,1.12.67.6,1,.89.89.68,1.36,1c.32.2.64.4,1,.59V2.72c-.34.19-.66.39-1,.59C8.49,3.62,8,4,7.6,4.3s-.7.58-1,.89-.76.73-1.12,1.12-.66.78-1,1.19a17.46,17.46,0,0,0,0,21Z" style="fill: url(#linear-gradient)"/>
        <path d="M31.52,7.5c-.31-.41-.63-.81-1-1.19s-.73-.76-1.12-1.12-.67-.6-1-.89-.89-.68-1.36-1c-.32-.2-.64-.4-1-.59V33.28c.34-.19.66-.39,1-.59.47-.31.92-.64,1.36-1s.7-.58,1-.89.76-.73,1.12-1.12.66-.78,1-1.19a17.46,17.46,0,0,0,0-21Z" style="fill: url(#linear-gradient-2)"/>
        <path d="M25.58,2.22A17.36,17.36,0,0,0,18,.49h0a17.36,17.36,0,0,0-7.58,1.73c-.33.16-.65.33-1,.5V33.28c.32.18.64.34,1,.5a17.47,17.47,0,0,0,15.16,0c.33-.16.65-.32,1-.5V2.72C26.23,2.55,25.91,2.38,25.58,2.22Zm0,30.62a17.47,17.47,0,0,1-15.16,0V3.21a17.47,17.47,0,0,1,15.16,0Z" style="fill: #e0e1e0"/>
        <rect id="rect2716" x="17.44" y="0.49" width="1.11" height="13.53" style="fill: #1a252d"/>
      </g>
    </g>
  </g>
</svg>
