<svg xmlns="http://www.w3.org/2000/svg" xmlns:xlink="http://www.w3.org/1999/xlink" width="36" height="36" viewBox="0 0 36 36">
  <defs>
    <linearGradient id="linear-gradient" x1="18" y1="-0.15" x2="18" y2="35.77" gradientUnits="userSpaceOnUse">
      <stop offset="0" stop-color="#fff"/>
      <stop offset="1" stop-color="#afaca0"/>
    </linearGradient>
    <linearGradient id="linear-gradient-2" x1="18" y1="2.02" x2="18" y2="19.38" gradientUnits="userSpaceOnUse">
      <stop offset="0" stop-color="#fff"/>
      <stop offset="0.42" stop-color="#f7f7f4"/>
      <stop offset="1" stop-color="#e8e7df"/>
    </linearGradient>
  </defs>
  <g id="Layer_2" data-name="Layer 2">
    <g id="Layer_9" data-name="Layer 9">
      <g>
        <path id="path2522" d="M18,36A18,18,0,1,1,36,18,18,18,0,0,1,18,36Z" style="fill: url(#linear-gradient)"/>
        <circle id="path3744" cx="18" cy="18.01" r="17" style="fill: #e8e7df"/>
        <path d="M18,.9A16.83,16.83,0,0,0,1.5,13.75,30.31,30.31,0,0,0,18,18.32a30.31,30.31,0,0,0,16.5-4.57A16.83,16.83,0,0,0,18,.9Z" style="fill: url(#linear-gradient-2)"/>
        <path d="M18,.9A16.83,16.83,0,0,0,1.5,13.75,30.31,30.31,0,0,0,18,18.32a30.31,30.31,0,0,0,16.5-4.57A16.83,16.83,0,0,0,18,.9Z" style="fill: #fff;opacity: 0.6"/>
      </g>
    </g>
  </g>
</svg>
