<svg xmlns="http://www.w3.org/2000/svg" xmlns:xlink="http://www.w3.org/1999/xlink" width="36" height="36" viewBox="0 0 36 36">
  <defs>
    <linearGradient id="linear-gradient" x1="24.68" y1="-306.75" x2="33.28" y2="-306.75" gradientTransform="translate(34.53 -288.73) rotate(180)" gradientUnits="userSpaceOnUse">
      <stop offset="0" stop-opacity="0.7"/>
      <stop offset="1" stop-opacity="0"/>
    </linearGradient>
    <linearGradient id="linear-gradient-2" x1="-27.86" y1="18.17" x2="-19.26" y2="18.17" gradientTransform="translate(54.01 -0.15)" xlink:href="#linear-gradient"/>
  </defs>
  <g id="Layer_2" data-name="Layer 2">
    <g id="Layer_10" data-name="Layer 10">
      <g>
        <circle cx="18" cy="18" r="18" style="fill: #0f0f0f;opacity: 0.01"/>
        <g>
          <g>
            <path d="M25.36,2.9a16.65,16.65,0,0,0-7.27-1.63,16.82,16.82,0,0,0-7.28,1.65c-.32.16-.63.32-.93.49v29.2a10.2,10.2,0,0,0,.93.48,16.77,16.77,0,0,0,14.55,0q.48-.23.93-.48V3.41A8.4,8.4,0,0,0,25.36,2.9Zm0,29.26a16.86,16.86,0,0,1-14.55,0V3.85a16.91,16.91,0,0,1,14.55,0Z" style="fill: #0f0f0f"/>
            <path d="M10.81,3.85V32.18a16.86,16.86,0,0,0,14.55,0V3.84a16.91,16.91,0,0,0-14.55,0Z" style="fill: #1c1c1c;opacity: 0.9"/>
            <rect id="rect2716-2" x="17.46" y="1.25" width="1.25" height="12.94" style="fill: #e8e7e7"/>
          </g>
          <g>
            <path d="M4.62,28.05q.43.59.93,1.14c.34.37.7.72,1.07,1.07s.65.57,1,.85a15.53,15.53,0,0,0,1.31.94q.45.3.93.57V3.41c-.32.18-.63.37-.93.56-.46.3-.89.62-1.31.95s-.67.56-1,.85-.73.7-1.07,1.07S4.91,7.59,4.62,8a16.63,16.63,0,0,0,0,20.07Z" style="fill: url(#linear-gradient)"/>
            <path d="M31.38,8q-.43-.59-.93-1.14c-.34-.37-.7-.72-1.07-1.07s-.65-.58-1-.85-.85-.65-1.31-.95c-.3-.19-.61-.38-.93-.56V32.62q.48-.27.93-.57a15.53,15.53,0,0,0,1.31-.94c.34-.28.67-.56,1-.85s.73-.7,1.07-1.07.64-.75.93-1.14A16.63,16.63,0,0,0,31.38,8Z" style="fill: url(#linear-gradient-2)"/>
          </g>
        </g>
      </g>
    </g>
  </g>
</svg>
