<svg xmlns="http://www.w3.org/2000/svg" xmlns:xlink="http://www.w3.org/1999/xlink" width="36" height="36" viewBox="0 0 36 36">
  <defs>
    <linearGradient id="linear-gradient" x1="-69.08" y1="-390.52" x2="-60.35" y2="-390.52" gradientTransform="translate(-59.35 -372.5) rotate(180)" gradientUnits="userSpaceOnUse">
      <stop offset="0" stop-opacity="0.8"/>
      <stop offset="1" stop-opacity="0"/>
    </linearGradient>
    <linearGradient id="linear-gradient-2" x1="-27.74" y1="18.17" x2="-19.01" y2="18.17" gradientTransform="translate(54.01 -0.15)" xlink:href="#linear-gradient"/>
  </defs>
  <g id="Layer_2" data-name="Layer 2">
    <g id="Layer_10" data-name="Layer 10">
      <g>
        <circle cx="18" cy="18" r="18" style="fill: #0f0f0f;opacity: 0.01"/>
        <g>
          <g>
            <path d="M25.47,2.67a17.21,17.21,0,0,0-14.77,0l-.94.49V32.82c.31.18.62.34.94.5a17.07,17.07,0,0,0,14.77,0l1-.5V3.19C26.11,3,25.79,2.83,25.47,2.67Zm0,29.7a17.16,17.16,0,0,1-14.77,0V3.65A17,17,0,0,1,18.09,2a16.85,16.85,0,0,1,7.38,1.67Z" style="fill: #0f0f0f"/>
            <path d="M10.7,3.65V32.39a17.16,17.16,0,0,0,14.77,0V3.64A16.85,16.85,0,0,0,18.09,2,17,17,0,0,0,10.7,3.65Z" style="fill: #1c1c1c"/>
            <rect id="rect2716-2" x="17.45" y="1" width="1.27" height="13.13" style="fill: #e8e7e7"/>
          </g>
          <g>
            <path d="M4.42,28.2a14.86,14.86,0,0,0,1,1.15c.34.38.7.74,1.08,1.09s.66.58,1,.86.87.66,1.33,1,.63.39,1,.57V3.2c-.32.18-.64.37-1,.57s-.9.62-1.33,1-.68.56-1,.86-.74.71-1.08,1.09a14.86,14.86,0,0,0-1,1.15,16.88,16.88,0,0,0,0,20.37Z" style="fill: url(#linear-gradient)"/>
            <path d="M31.58,7.83a14.86,14.86,0,0,0-.95-1.15c-.34-.38-.7-.74-1.08-1.09s-.66-.58-1-.86-.87-.66-1.33-1c-.31-.2-.63-.39-.95-.57V32.83c.32-.18.64-.37.95-.57.46-.3.9-.62,1.33-1s.68-.56,1-.86.74-.71,1.08-1.09a14.86,14.86,0,0,0,.95-1.15,16.88,16.88,0,0,0,0-20.37Z" style="fill: url(#linear-gradient-2)"/>
          </g>
        </g>
      </g>
    </g>
  </g>
</svg>
