<svg xmlns="http://www.w3.org/2000/svg" xmlns:xlink="http://www.w3.org/1999/xlink" width="13.2" height="13.2" viewBox="0 0 13.2 13.2">
  <defs>
    <linearGradient id="New_Gradient_Swatch" data-name="New Gradient Swatch" x1="40.59" y1="1017.6" x2="56.44" y2="1013.21" gradientTransform="matrix(0, 1, 1, 0, -1008.33, -43.62)" gradientUnits="userSpaceOnUse">
      <stop offset="0" stop-color="#737a80"/>
      <stop offset="1" stop-color="#262d36"/>
    </linearGradient>
    <linearGradient id="linear-gradient" x1="-20.6" y1="980.87" x2="-17.91" y2="979.99" gradientTransform="matrix(-1.22, -3.7, -3.7, 1.22, 3609.82, -1260.67)" gradientUnits="userSpaceOnUse">
      <stop offset="0" stop-color="#667480"/>
      <stop offset="1" stop-color="#292f36"/>
    </linearGradient>
    <linearGradient id="linear-gradient-2" x1="-45.46" y1="968.51" x2="-45.89" y2="970.17" gradientTransform="matrix(4.85, 1.26, 1.26, -4.85, -997.93, 4769.07)" gradientUnits="userSpaceOnUse">
      <stop offset="0" stop-color="#4d4d4d"/>
      <stop offset="1"/>
    </linearGradient>
  </defs>
  <g id="Layer_2" data-name="Layer 2">
    <g id="Layer_3" data-name="Layer 3">
      <g>
        <circle id="circle1204" cx="6.6" cy="6.6" r="6.6" transform="translate(-1.48 1.93) rotate(-15)" style="fill: url(#New_Gradient_Swatch)"/>
        <circle id="circle1211" cx="6.6" cy="6.6" r="5.67" style="fill: url(#linear-gradient)"/>
        <path id="path530-2-7" d="M8.9,9.59l-1.73,1.3-2-.8-2-.85L2.87,7.1,2.6,5,4.31,3.62,6,2.31l2,.81L10,4l.3,2.14.27,2.15Z" style="fill: url(#linear-gradient-2)"/>
        <path id="path905" d="M8.52,9.14,7.08,10.23,5.41,9.56l-1.66-.7L3.49,7.07,3.27,5.28,4.69,4.17,6.13,3.08l1.67.67,1.66.7.25,1.79L9.94,8Z" style="fill: #101010"/>
        <path d="M1.37,8.81a5.64,5.64,0,0,0,5.2,3.46h0a5.63,5.63,0,0,0,4-1.63A5.49,5.49,0,0,0,11.83,8.7C8.72,12.62,4.13,12.5,1.37,8.81Z" style="fill: #62696f"/>
        <path d="M1.58,4c2.74-3,7-3.13,10.07.13A5.64,5.64,0,0,0,6.77.94H6.59A6.65,6.65,0,0,0,5.81,1,5.65,5.65,0,0,0,1.58,4Z" style="fill: #3d3d3d"/>
      </g>
    </g>
  </g>
</svg>
