<svg xmlns="http://www.w3.org/2000/svg" xmlns:xlink="http://www.w3.org/1999/xlink" width="36" height="36" viewBox="0 0 36 36">
  <defs>
    <linearGradient id="linear-gradient" x1="18" y1="5.31" x2="18" y2="30.51" gradientUnits="userSpaceOnUse">
      <stop offset="0" stop-color="#1a1a1a"/>
      <stop offset="1" stop-color="#0a0a0a"/>
    </linearGradient>
    <linearGradient id="linear-gradient-2" x1="23.43" y1="1.89" x2="23.43" y2="33.89" xlink:href="#linear-gradient"/>
    <linearGradient id="linear-gradient-3" x1="31.15" y1="1.89" x2="31.15" y2="33.89" xlink:href="#linear-gradient"/>
    <linearGradient id="linear-gradient-4" x1="3.66" y1="1.89" x2="3.66" y2="33.89" xlink:href="#linear-gradient"/>
    <linearGradient id="linear-gradient-5" x1="7.98" y1="1.89" x2="7.98" y2="33.89" xlink:href="#linear-gradient"/>
    <linearGradient id="linear-gradient-6" x1="18" y1="1.89" x2="18" y2="33.89" xlink:href="#linear-gradient"/>
    <linearGradient id="linear-gradient-7" x1="28.02" y1="1.89" x2="28.02" y2="33.89" xlink:href="#linear-gradient"/>
    <linearGradient id="linear-gradient-8" x1="12.57" y1="1.89" x2="12.57" y2="33.89" xlink:href="#linear-gradient"/>
    <linearGradient id="linear-gradient-11" x1="4.85" y1="1.89" x2="4.85" y2="33.89" xlink:href="#linear-gradient"/>
    <linearGradient id="linear-gradient-17" x1="32.34" y1="1.89" x2="32.34" y2="33.89" xlink:href="#linear-gradient"/>
  </defs>
  <g id="Layer_2" data-name="Layer 2">
    <g id="Layer_3" data-name="Layer 3">
      <g>
        <g style="opacity: 0.8">
          <path d="M4.81,10.26l.7.34a15.34,15.34,0,0,1,.91-1.36l-.58-.51a.8.8,0,0,1-.23-.88A16.13,16.13,0,0,0,3.9,10.39.82.82,0,0,1,4.81,10.26Z" style="opacity: 0.8"/>
          <path d="M10.3,31.15l.34-.69a14,14,0,0,1-1.36-.91l-.52.58a.82.82,0,0,1-.88.23,16.4,16.4,0,0,0,2.55,1.7A.8.8,0,0,1,10.3,31.15Z" style="opacity: 0.8"/>
          <path d="M5.84,27.2l.58-.51a15.34,15.34,0,0,1-.91-1.36l-.7.34a.82.82,0,0,1-.91-.13,16.13,16.13,0,0,0,1.71,2.54A.8.8,0,0,1,5.84,27.2Z" style="opacity: 0.8"/>
          <path d="M8.76,5.8l.52.58a14,14,0,0,1,1.36-.91l-.34-.69a.8.8,0,0,1,.13-.91,16.4,16.4,0,0,0-2.55,1.7A.82.82,0,0,1,8.76,5.8Z" style="opacity: 0.8"/>
          <path d="M3.23,21.84,4,21.59A14.15,14.15,0,0,1,3.64,20L2.87,20a.82.82,0,0,1-.79-.47,15.89,15.89,0,0,0,.6,3A.81.81,0,0,1,3.23,21.84Z" style="opacity: 0.8"/>
          <path d="M2.87,15.89l.77,0A14.15,14.15,0,0,1,4,14.34l-.73-.25a.8.8,0,0,1-.55-.74,15.89,15.89,0,0,0-.6,3A.82.82,0,0,1,2.87,15.89Z" style="opacity: 0.8"/>
          <path d="M25.7,4.78l-.34.69a14,14,0,0,1,1.36.91l.52-.58a.82.82,0,0,1,.88-.23,16.4,16.4,0,0,0-2.55-1.7A.8.8,0,0,1,25.7,4.78Z" style="opacity: 0.8"/>
          <path d="M32.77,14.09l-.73.25a14.15,14.15,0,0,1,.32,1.6l.77,0a.82.82,0,0,1,.79.47,15.89,15.89,0,0,0-.6-3A.8.8,0,0,1,32.77,14.09Z" style="opacity: 0.8"/>
          <path d="M20.07,2.83,20,3.61a14.3,14.3,0,0,1,1.61.31l.25-.73a.81.81,0,0,1,.73-.55,15.72,15.72,0,0,0-3-.59A.79.79,0,0,1,20.07,2.83Z" style="opacity: 0.8"/>
          <path d="M14.12,3.19l.25.73A14.3,14.3,0,0,1,16,3.61l-.05-.78a.79.79,0,0,1,.47-.78,15.72,15.72,0,0,0-3,.59A.81.81,0,0,1,14.12,3.19Z" style="opacity: 0.8"/>
          <path d="M30.16,8.73l-.58.51a15.34,15.34,0,0,1,.91,1.36l.7-.34a.82.82,0,0,1,.91.13,16.13,16.13,0,0,0-1.71-2.54A.8.8,0,0,1,30.16,8.73Z" style="opacity: 0.8"/>
          <path d="M31.19,25.67l-.7-.34a15.34,15.34,0,0,1-.91,1.36l.58.51a.8.8,0,0,1,.23.88,16.13,16.13,0,0,0,1.71-2.54A.82.82,0,0,1,31.19,25.67Z" style="opacity: 0.8"/>
          <path d="M33.13,20,32.36,20a14.15,14.15,0,0,1-.32,1.6l.73.25a.81.81,0,0,1,.55.74,15.89,15.89,0,0,0,.6-3A.82.82,0,0,1,33.13,20Z" style="opacity: 0.8"/>
          <path d="M21.88,32.74,21.63,32a14.3,14.3,0,0,1-1.61.31l.05.78a.79.79,0,0,1-.47.78,15.72,15.72,0,0,0,3-.59A.81.81,0,0,1,21.88,32.74Z" style="opacity: 0.8"/>
          <path d="M27.24,30.13l-.52-.58a14,14,0,0,1-1.36.91l.34.69a.8.8,0,0,1-.13.91,16.4,16.4,0,0,0,2.55-1.7A.82.82,0,0,1,27.24,30.13Z" style="opacity: 0.8"/>
          <path d="M15.93,33.1l.05-.78A14.3,14.3,0,0,1,14.37,32l-.25.73a.81.81,0,0,1-.73.55,15.72,15.72,0,0,0,3,.59A.79.79,0,0,1,15.93,33.1Z" style="opacity: 0.8"/>
        </g>
        <circle cx="18" cy="17.97" r="12.81" style="opacity: 0.4;fill: url(#linear-gradient)"/>
        <path d="M18,3.47A14.5,14.5,0,1,0,32.5,18,14.5,14.5,0,0,0,18,3.47Zm0,27.31A12.82,12.82,0,1,1,30.81,18,12.81,12.81,0,0,1,18,30.78Z" style="opacity: 0.5"/>
        <g style="opacity: 0.8">
          <path d="M25.7,4.78a.82.82,0,0,0-.42-1.12l-1.16-.48L23,2.7a.82.82,0,0,0-1.08.49l-.8,2.34A13,13,0,0,1,24.62,7Z" style="opacity: 0.4;fill: url(#linear-gradient-2)"/>
          <path d="M32.77,14.09A.82.82,0,0,0,33.26,13l-.48-1.16-.48-1.16a.82.82,0,0,0-1.11-.42L29,11.35a12.44,12.44,0,0,1,1.47,3.54Z" style="opacity: 0.4;fill: url(#linear-gradient-3)"/>
          <path d="M5.33,16.05l-2.46-.16a.83.83,0,0,0-.87.82v2.51a.82.82,0,0,0,.87.82l2.46-.16a13.17,13.17,0,0,1,0-3.83Z" style="opacity: 0.4;fill: url(#linear-gradient-4)"/>
          <path d="M10.4,7.65,8.76,5.8a.82.82,0,0,0-1.19,0l-.88.89-.89.89a.81.81,0,0,0,0,1.19l1.85,1.63A12.66,12.66,0,0,1,10.4,7.65Z" style="opacity: 0.4;fill: url(#linear-gradient-5)"/>
          <path d="M19.92,5.29l.15-2.46A.81.81,0,0,0,19.26,2H16.74a.81.81,0,0,0-.81.86l.15,2.46a13.24,13.24,0,0,1,3.84,0Z" style="opacity: 0.4;fill: url(#linear-gradient-6)"/>
          <path d="M28.31,10.36l1.85-1.63a.81.81,0,0,0,0-1.19l-.89-.89-.88-.89a.82.82,0,0,0-1.19,0L25.6,7.65A12.66,12.66,0,0,1,28.31,10.36Z" style="opacity: 0.4;fill: url(#linear-gradient-7)"/>
          <path d="M10.3,31.15a.82.82,0,0,0,.42,1.12l1.16.48,1.16.48a.82.82,0,0,0,1.08-.49l.8-2.34a13,13,0,0,1-3.54-1.46Z" style="opacity: 0.4;fill: url(#linear-gradient-8)"/>
          <path d="M31.19,25.67a.82.82,0,0,0,1.11-.42l.48-1.16.48-1.16a.82.82,0,0,0-.49-1.09L30.44,21A12.62,12.62,0,0,1,29,24.59Z" style="opacity: 0.4;fill: url(#linear-gradient-3)"/>
          <path d="M14.12,3.19A.82.82,0,0,0,13,2.7l-1.16.48-1.16.48a.82.82,0,0,0-.42,1.12L11.38,7a13,13,0,0,1,3.54-1.46Z" style="opacity: 0.4;fill: url(#linear-gradient-8)"/>
          <path d="M4.81,10.26a.82.82,0,0,0-1.11.42l-.48,1.16L2.74,13a.82.82,0,0,0,.49,1.09l2.33.8A12.44,12.44,0,0,1,7,11.35Z" style="opacity: 0.4;fill: url(#linear-gradient-11)"/>
          <path d="M3.23,21.84a.82.82,0,0,0-.49,1.09l.48,1.16.48,1.16a.82.82,0,0,0,1.11.42L7,24.59A12.62,12.62,0,0,1,5.56,21Z" style="opacity: 0.4;fill: url(#linear-gradient-11)"/>
          <path d="M21.88,32.74a.82.82,0,0,0,1.08.49l1.16-.48,1.16-.48a.82.82,0,0,0,.42-1.12l-1.08-2.21a13,13,0,0,1-3.54,1.46Z" style="opacity: 0.4;fill: url(#linear-gradient-2)"/>
          <path d="M16.08,30.64l-.15,2.46a.82.82,0,0,0,.81.87h2.52a.82.82,0,0,0,.81-.87l-.15-2.46a13.24,13.24,0,0,1-3.84,0Z" style="opacity: 0.4;fill: url(#linear-gradient-6)"/>
          <path d="M25.6,28.28l1.64,1.85a.82.82,0,0,0,1.19,0l.88-.89.89-.89a.81.81,0,0,0,0-1.19l-1.85-1.63A12.66,12.66,0,0,1,25.6,28.28Z" style="opacity: 0.4;fill: url(#linear-gradient-7)"/>
          <path d="M7.69,25.57,5.84,27.2a.81.81,0,0,0,0,1.19l.89.89.88.89a.82.82,0,0,0,1.19,0l1.64-1.85A12.66,12.66,0,0,1,7.69,25.57Z" style="opacity: 0.4;fill: url(#linear-gradient-5)"/>
          <path d="M33.13,15.89l-2.46.16a13.17,13.17,0,0,1,0,3.83l2.46.16a.82.82,0,0,0,.87-.82V16.71A.83.83,0,0,0,33.13,15.89Z" style="opacity: 0.4;fill: url(#linear-gradient-17)"/>
        </g>
        <g>
          <circle cx="18" cy="18" r="18" style="opacity: 0.01"/>
          <g>
            <path d="M17.24,3.52V6h1.52V3.52L18,3.5Z" style="fill: #fff"/>
            <rect x="17.24" y="6" width="1.52" height="11.96" style="fill: #bebdbd"/>
            <polygon points="17.24 17.96 18.76 17.96 18.76 6.49 18.76 6 17.24 6 17.24 6.49 17.24 17.96" style="fill: none"/>
            <polygon points="18.76 6 18.76 6.49 18.76 17.96 17.24 17.96 17.24 6.49 17.24 6 16.38 6 16.38 18.87 19.62 18.87 19.62 6 18.76 6" style="fill: #242424"/>
            <g>
              <path d="M17.24,3.52c-.29,0-.57,0-.86.07V6h.86Z" style="fill: #242424"/>
              <path d="M19.62,3.59c-.29,0-.57-.06-.86-.07V6h.86Z" style="fill: #242424"/>
            </g>
          </g>
        </g>
      </g>
    </g>
  </g>
</svg>
