<svg xmlns="http://www.w3.org/2000/svg" width="36" height="36" viewBox="0 0 36 36">
  <g id="Layer_2" data-name="Layer 2">
    <g id="AS_KnobBlack">
      <g id="Knob">
        <path d="M26.86,2.34l0,0c-.42-.23-.84-.45-1.27-.65l-.12,0q-.64-.3-1.32-.54h0c-.44-.16-.89-.3-1.35-.43l-.12,0c-.44-.12-.89-.22-1.34-.3L21,.26c-.45-.08-.9-.14-1.36-.18l-.22,0C19,0,18.49,0,18,0s-1,0-1.45.06l-.22,0c-.46,0-.91.1-1.36.18l-.24,0c-.45.08-.9.18-1.34.3l-.12,0q-.69.19-1.35.42l0,0q-.68.24-1.32.54l-.12,0c-.43.2-.85.42-1.27.65l0,0a18,18,0,1,0,17.72,0Z" style="fill: #231f20;opacity: 0.01"/>
        <path d="M34.41,15.66a10.16,10.16,0,0,1-.8-1.62,9.91,9.91,0,0,1-.08-1.8,7,7,0,0,0-.28-2.78A7,7,0,0,0,31,7.77a8.81,8.81,0,0,1-1.5-1,10,10,0,0,1-1-1.52A7.28,7.28,0,0,0,26.92,3a7.18,7.18,0,0,0-2.78-.35,9.22,9.22,0,0,1-1.8-.12,10,10,0,0,1-1.59-.83A16.45,16.45,0,0,0,19.19.81c.17.07.34.16.51.25v.48h0c.28.15.56.32.83.48a8.84,8.84,0,0,0,1.7.87,8.74,8.74,0,0,0,1.9.14,7.21,7.21,0,0,1,2.57.3,7.21,7.21,0,0,1,1.49,2.12,8.74,8.74,0,0,0,1,1.6A9.32,9.32,0,0,0,30.8,8.13a7.21,7.21,0,0,1,2.08,1.53,7.13,7.13,0,0,1,.23,2.58,9.34,9.34,0,0,0,.09,1.9A9,9,0,0,0,34,15.86a7.41,7.41,0,0,1,1,2.37A7.61,7.61,0,0,1,34,20.58a9.6,9.6,0,0,0-.88,1.69,9.56,9.56,0,0,0-.13,1.9,7.25,7.25,0,0,1-.29,2.57,7.1,7.1,0,0,1-2.11,1.48,9.46,9.46,0,0,0-1.61,1,9.43,9.43,0,0,0-1.06,1.58,7.35,7.35,0,0,1-1.54,2.08,7.29,7.29,0,0,1-2.57.22,8.8,8.8,0,0,0-1.91.09,8.56,8.56,0,0,0-1.71.83,7.66,7.66,0,0,1-2.34,1h0A7.32,7.32,0,0,1,15.47,34a8.84,8.84,0,0,0-1.7-.87,8.74,8.74,0,0,0-1.9-.14,7.21,7.21,0,0,1-2.57-.3,7,7,0,0,1-1.48-2.12,9.25,9.25,0,0,0-1-1.6A8.81,8.81,0,0,0,5.2,27.88a7.39,7.39,0,0,1-2.08-1.54,7.13,7.13,0,0,1-.23-2.58,9.34,9.34,0,0,0-.09-1.9A9,9,0,0,0,2,20.14a7.41,7.41,0,0,1-1-2.37A7.61,7.61,0,0,1,2,15.42a9.6,9.6,0,0,0,.88-1.69A9.56,9.56,0,0,0,3,11.83a7.22,7.22,0,0,1,.29-2.57A7.1,7.1,0,0,1,5.42,7.78,9.46,9.46,0,0,0,7,6.75,9.43,9.43,0,0,0,8.09,5.17,7.56,7.56,0,0,1,9.62,3.09,3.66,3.66,0,0,1,11,2.87c.38,0,.79,0,1.18,0a8.66,8.66,0,0,0,1.9-.09A8.34,8.34,0,0,0,15.82,2l.48-.26V1.21l.09-.05-.78.43A9.53,9.53,0,0,1,14,2.38a9.22,9.22,0,0,1-1.8.07,7,7,0,0,0-2.78.28A6.89,6.89,0,0,0,7.73,5a9.85,9.85,0,0,1-1,1.49,8.9,8.9,0,0,1-1.52,1A7.25,7.25,0,0,0,2.94,9a7,7,0,0,0-.34,2.78,9.22,9.22,0,0,1-.12,1.8,9.18,9.18,0,0,1-.83,1.59A7.21,7.21,0,0,0,.5,17.76a7.05,7.05,0,0,0,1.09,2.58A10.16,10.16,0,0,1,2.39,22a9.91,9.91,0,0,1,.08,1.8,7,7,0,0,0,.28,2.78A7,7,0,0,0,5,28.24a8.88,8.88,0,0,1,1.5,1,10,10,0,0,1,1,1.52A7.16,7.16,0,0,0,9.08,33a7.18,7.18,0,0,0,2.78.35,9.22,9.22,0,0,1,1.8.12,9.55,9.55,0,0,1,1.59.83,7,7,0,0,0,2.56,1.16h0a7.45,7.45,0,0,0,2.54-1.09A9.53,9.53,0,0,1,22,33.62a9.22,9.22,0,0,1,1.8-.07,7,7,0,0,0,2.78-.28A6.89,6.89,0,0,0,28.27,31a9.85,9.85,0,0,1,1-1.49,8.9,8.9,0,0,1,1.52-1A7.25,7.25,0,0,0,33.06,27a7.05,7.05,0,0,0,.34-2.78,9.22,9.22,0,0,1,.12-1.8,9.55,9.55,0,0,1,.83-1.59,7.21,7.21,0,0,0,1.15-2.55A7.05,7.05,0,0,0,34.41,15.66Z" style="fill: #1e1e1e;opacity: 0.7000000000000001"/>
        <path d="M19.7,2.88l.4.22a8.89,8.89,0,0,0,1.61.79A8.92,8.92,0,0,0,23.5,4a6.79,6.79,0,0,1,2.4.23,6.66,6.66,0,0,1,1.42,1.94,7.92,7.92,0,0,0,1,1.48,8.45,8.45,0,0,0,1.5,1,6.82,6.82,0,0,1,2,1.39A6.81,6.81,0,0,1,32,12.39a9.32,9.32,0,0,0,.12,1.78A9.17,9.17,0,0,0,33,15.76a6.47,6.47,0,0,1,1,2.18,6.48,6.48,0,0,1-1,2.18,9.19,9.19,0,0,0-.79,1.6,8.86,8.86,0,0,0-.1,1.78,6.57,6.57,0,0,1-.22,2.39,6.71,6.71,0,0,1-1.95,1.4,8.64,8.64,0,0,0-1.49,1,8.18,8.18,0,0,0-1,1.49,6.71,6.71,0,0,1-1.4,1.95,6.94,6.94,0,0,1-2.4.25,8.79,8.79,0,0,0-1.79.11,9.75,9.75,0,0,0-1.59.8,6.82,6.82,0,0,1-2.18,1h0a6.87,6.87,0,0,1-2.21-1,8.89,8.89,0,0,0-1.61-.79A8.92,8.92,0,0,0,12.5,32a7.11,7.11,0,0,1-2.4-.22,6.88,6.88,0,0,1-1.42-1.95,7.92,7.92,0,0,0-1-1.48,8.45,8.45,0,0,0-1.5-1,6.82,6.82,0,0,1-2-1.39A6.81,6.81,0,0,1,4,23.61a9.32,9.32,0,0,0-.12-1.78A9.17,9.17,0,0,0,3,20.24a6.47,6.47,0,0,1-1-2.18,6.59,6.59,0,0,1,1-2.19,8.83,8.83,0,0,0,.79-1.59,8.24,8.24,0,0,0,.09-1.78,6.75,6.75,0,0,1,.23-2.39,6.71,6.71,0,0,1,1.95-1.4,9.05,9.05,0,0,0,1.49-1,8.69,8.69,0,0,0,1-1.49A6.53,6.53,0,0,1,9.92,4.28,3.92,3.92,0,0,1,11.48,4h.84a8.63,8.63,0,0,0,1.78-.11,9.4,9.4,0,0,0,1.6-.8l.6-.34V1.69L15.82,2a8.34,8.34,0,0,1-1.72.83,8.66,8.66,0,0,1-1.9.09c-.39,0-.8,0-1.18,0a3.66,3.66,0,0,0-1.4.22A7.56,7.56,0,0,0,8.09,5.17,9.43,9.43,0,0,1,7,6.75a9.46,9.46,0,0,1-1.61,1A7.1,7.1,0,0,0,3.31,9.26,7.22,7.22,0,0,0,3,11.83a9.56,9.56,0,0,1-.13,1.9A9.6,9.6,0,0,1,2,15.42,7.61,7.61,0,0,0,.92,17.77a7.41,7.41,0,0,0,1,2.37,9,9,0,0,1,.84,1.72,9.34,9.34,0,0,1,.09,1.9,7.13,7.13,0,0,0,.23,2.58A7.39,7.39,0,0,0,5.2,27.88,8.81,8.81,0,0,1,6.78,29a9.25,9.25,0,0,1,1,1.6A7,7,0,0,0,9.3,32.67a7.21,7.21,0,0,0,2.57.3,8.74,8.74,0,0,1,1.9.14,8.84,8.84,0,0,1,1.7.87,7.32,7.32,0,0,0,2.34,1.1h0a7.66,7.66,0,0,0,2.34-1,8.56,8.56,0,0,1,1.71-.83,8.8,8.8,0,0,1,1.91-.09,7.29,7.29,0,0,0,2.57-.22,7.35,7.35,0,0,0,1.54-2.08A9.43,9.43,0,0,1,29,29.25a9.46,9.46,0,0,1,1.61-1,7.1,7.1,0,0,0,2.11-1.48A7.25,7.25,0,0,0,33,24.17a9.56,9.56,0,0,1,.13-1.9A9.6,9.6,0,0,1,34,20.58a7.61,7.61,0,0,0,1.09-2.35,7.41,7.41,0,0,0-1-2.37,9,9,0,0,1-.84-1.72,9.34,9.34,0,0,1-.09-1.9,7.13,7.13,0,0,0-.23-2.58A7.21,7.21,0,0,0,30.8,8.13a9.32,9.32,0,0,1-1.58-1.08,8.74,8.74,0,0,1-1-1.6A7.21,7.21,0,0,0,26.7,3.33,7.21,7.21,0,0,0,24.13,3a8.74,8.74,0,0,1-1.9-.14A8.84,8.84,0,0,1,20.53,2c-.27-.16-.55-.33-.83-.48h0Z" style="fill: #363636;opacity: 0.45"/>
        <path d="M16.3,17.14V4.6a11.22,11.22,0,0,1-1.69.86c-.76.2-3-.08-3.72.31s-1.58,2.48-2.14,3-2.67,1.44-3.06,2.12-.12,2.94-.32,3.69S3.79,17.19,3.79,18s1.38,2.61,1.58,3.36-.07,3,.33,3.7,2.5,1.58,3.06,2.13,1.46,2.65,2.14,3,3,.13,3.72.33,2.6,1.58,3.38,1.58,2.63-1.37,3.39-1.57,3,.08,3.72-.31,1.58-2.48,2.14-3,2.67-1.44,3.06-2.12.12-2.94.32-3.69,1.58-2.58,1.58-3.36-1.38-2.61-1.58-3.36.07-3-.33-3.7-2.5-1.58-3.06-2.13-1.46-2.65-2.14-3-3-.13-3.72-.33a9.93,9.93,0,0,1-1.68-.86V17.14Z" style="fill: #191818;opacity: 0.25"/>
        <path d="M21.38,5.47c.76.2,3-.06,3.72.33s1.59,2.49,2.14,3S29.91,10.3,30.3,11s.12,2.95.33,3.7,1.58,2.58,1.58,3.36-1.38,2.61-1.58,3.36.07,3-.32,3.69-2.51,1.57-3.06,2.12-1.46,2.65-2.14,3-3,.11-3.72.31-2.6,1.57-3.39,1.57-2.62-1.38-3.38-1.58-3,.06-3.72-.33-1.59-2.49-2.14-3S6.09,25.7,5.7,25s-.12-3-.33-3.7S3.79,18.75,3.79,18s1.38-2.61,1.58-3.36-.07-3,.32-3.69S8.2,9.35,8.75,8.8s1.46-2.65,2.14-3,3-.11,3.72-.31A11.22,11.22,0,0,0,16.3,4.6h0a10.34,10.34,0,0,1-1.69.86c-.76.2-3-.07-3.72.31s-1.58,2.49-2.14,3-2.67,1.44-3.06,2.12-.12,2.94-.32,3.69S3.79,17.19,3.79,18s1.38,2.61,1.58,3.36-.07,3,.32,3.7,2.51,1.58,3.07,2.13,1.46,2.65,2.14,3,3,.13,3.72.33,2.6,1.58,3.38,1.58,2.63-1.36,3.39-1.56,3,.07,3.72-.31,1.58-2.49,2.14-3,2.67-1.44,3.06-2.12.12-2.94.32-3.69,1.58-2.58,1.58-3.36-1.38-2.61-1.58-3.36.07-3-.32-3.7S27.8,9.39,27.24,8.84s-1.46-2.65-2.14-3-3-.13-3.72-.33A10.13,10.13,0,0,1,19.7,4.6h0A9.93,9.93,0,0,0,21.38,5.47Z" style="fill: #191818;opacity: 0.25"/>
        <path d="M21.38,5.47c.76.2,3-.06,3.72.33s1.59,2.49,2.14,3S29.91,10.3,30.31,11s.12,2.95.32,3.7,1.58,2.58,1.58,3.36-1.38,2.61-1.58,3.36.07,3-.32,3.69-2.51,1.57-3.06,2.12-1.46,2.65-2.14,3-3,.11-3.72.31-2.6,1.56-3.39,1.56-2.62-1.38-3.38-1.58-3,.07-3.72-.33-1.59-2.49-2.14-3S6.09,25.7,5.69,25s-.12-3-.32-3.7S3.79,18.75,3.79,18s1.38-2.61,1.58-3.36-.07-3,.32-3.69S8.2,9.35,8.75,8.8s1.46-2.65,2.14-3,3-.11,3.72-.31a10.34,10.34,0,0,0,1.69-.86V2.78l-.6.34a9.4,9.4,0,0,1-1.6.8A8.63,8.63,0,0,1,12.32,4h-.84a3.92,3.92,0,0,0-1.56.24,6.53,6.53,0,0,0-1.39,2,8.69,8.69,0,0,1-1,1.49,9.05,9.05,0,0,1-1.49,1,6.71,6.71,0,0,0-1.95,1.4,6.75,6.75,0,0,0-.23,2.39,8.24,8.24,0,0,1-.09,1.78A8.83,8.83,0,0,1,3,15.87a6.59,6.59,0,0,0-1,2.19,6.47,6.47,0,0,0,1,2.18,9.17,9.17,0,0,1,.81,1.59A9.32,9.32,0,0,1,4,23.61,6.81,6.81,0,0,0,4.21,26a6.82,6.82,0,0,0,2,1.39,8.45,8.45,0,0,1,1.5,1,7.92,7.92,0,0,1,1,1.48,6.88,6.88,0,0,0,1.42,1.95,7.11,7.11,0,0,0,2.4.22,8.92,8.92,0,0,1,1.79.1,8.89,8.89,0,0,1,1.61.79,6.87,6.87,0,0,0,2.21,1h0a6.82,6.82,0,0,0,2.18-1,9.75,9.75,0,0,1,1.59-.8A8.79,8.79,0,0,1,23.68,32a6.94,6.94,0,0,0,2.4-.25,6.71,6.71,0,0,0,1.4-1.95,8.18,8.18,0,0,1,1-1.49,8.64,8.64,0,0,1,1.49-1,6.71,6.71,0,0,0,1.95-1.4,6.57,6.57,0,0,0,.22-2.39,8.86,8.86,0,0,1,.1-1.78,9.19,9.19,0,0,1,.79-1.6,6.48,6.48,0,0,0,1-2.18,6.47,6.47,0,0,0-1-2.18,9.17,9.17,0,0,1-.81-1.59A9.32,9.32,0,0,1,32,12.39,6.81,6.81,0,0,0,31.79,10a6.82,6.82,0,0,0-2-1.39,8.45,8.45,0,0,1-1.5-1,7.92,7.92,0,0,1-1-1.48A6.66,6.66,0,0,0,25.9,4.22,6.79,6.79,0,0,0,23.5,4a8.92,8.92,0,0,1-1.79-.1A8.89,8.89,0,0,1,20.1,3.1l-.4-.22V4.6A10.13,10.13,0,0,0,21.38,5.47Z" style="fill: #363636;opacity: 0.35000000000000003"/>
        <path d="M19.19.81,18.81.64h0V4.21h0v12H17.2v-12h0V.77l-.1,0L16.91.9l-.52.26-.09.05V17.14h3.4V1.06C19.53,1,19.36.88,19.19.81Z" style="fill: #242424"/>
        <path d="M18.11.51a2,2,0,0,0-.44.08l-.16.06L17.2.77V2.32a2,2,0,0,1,1.6.09V.64A2.22,2.22,0,0,0,18.11.51Z" style="fill: #bebdbd;opacity: 0.4"/>
        <path d="M18.8,2.41a2.06,2.06,0,0,0-1.6-.09v1.8h.05l-.05,0v.08a4.3,4.3,0,0,1,1.6,0V4.13l-.06,0,.06,0Z" style="fill: #bebdbd;opacity: 0.6"/>
        <path d="M17.2,4.21h0v12h1.6v-12h0A4.3,4.3,0,0,0,17.2,4.21Z" style="fill: #bebdbd"/>
      </g>
    </g>
  </g>
</svg>
