<svg xmlns="http://www.w3.org/2000/svg" width="24" height="24" viewBox="0 0 24 24">
  <g id="Layer_2" data-name="Layer 2">
    <g id="Layer_3" data-name="Layer 3">
      <g>
        <circle id="circle868" cx="12" cy="11.98" r="11.23" style="fill: #4c4c4c"/>
        <path id="path870" d="M21.25,5.09A11.82,11.82,0,0,0,4.63,3.22,11.47,11.47,0,0,0,2.75,5.09,15.63,15.63,0,0,1,21.25,5.09Z" style="fill: #696e71"/>
        <path id="path872" d="M12,21.75c-5.76,0-10.45-3.45-11-7.84a6.49,6.49,0,0,0-.05.77c0,4.77,4.93,8.64,11,8.64s11-3.84,11-8.64a6.49,6.49,0,0,0-.05-.77C22.45,18.3,17.76,21.75,12,21.75Z" style="fill: #3c4041"/>
        <path id="path884" d="M12,1A11,11,0,1,1,1,12H1A11,11,0,0,1,12,1m0-1A12,12,0,1,0,24,12h0A12,12,0,0,0,12,0Z"/>
        <path id="path872-2" data-name="path872" d="M12,19.73a8.28,8.28,0,0,1-8.22-7.57q0,.38,0,.75a8.25,8.25,0,1,0,16.49,0q0-.37,0-.75A8.26,8.26,0,0,1,12,19.73Z" style="fill: #353838"/>
        <path id="path876" d="M12,4.53A7.47,7.47,0,1,1,4.53,12h0A7.49,7.49,0,0,1,12,4.53m0-1A8.5,8.5,0,1,0,20.5,12h0A8.51,8.51,0,0,0,12,3.5Z" style="fill: #282828"/>
        <path id="path874" d="M12,19.51A7.51,7.51,0,1,1,19.51,12,7.51,7.51,0,0,1,12,19.51Z"/>
        <rect id="rect1003" x="9.58" y="14.28" width="4.85" height="2.58" style="fill: #252627"/>
        <rect id="rect894" x="9.58" y="13.4" width="4.85" height="1.28" style="fill: #35393d"/>
        <rect id="rect890" x="9.58" y="12.42" width="4.85" height="1.04" style="fill: #5b5b5b"/>
        <path d="M12,17.51A5.51,5.51,0,1,1,17.51,12h0A5.51,5.51,0,0,1,12,17.51Z" style="opacity: 0"/>
        <path d="M12,18.51h0A6.52,6.52,0,0,1,5.49,12,6.52,6.52,0,0,1,12,5.49h0a6.51,6.51,0,0,1,0,13Zm0-11A4.52,4.52,0,0,0,7.49,12,4.51,4.51,0,1,0,12,7.49Z" style="fill: #646464"/>
        <path id="path38" d="M18.1,10A6.42,6.42,0,0,0,12,5.49a7.47,7.47,0,0,0-1.41.13A6.41,6.41,0,0,0,7.44,7.39a5.38,5.38,0,0,0-.78,1A12.42,12.42,0,0,0,5.9,10h0C9.44,5,15.05,5.21,18.1,10Z" style="fill: #868686"/>
        <path id="path40" d="M5.9,14A6.44,6.44,0,0,0,12,18.51a7.27,7.27,0,0,0,1.39-.13,6.44,6.44,0,0,0,3.16-1.77,7.1,7.1,0,0,0,.77-.95A14.53,14.53,0,0,0,18.1,14h0C14.54,19,8.94,18.8,5.9,14Z" style="fill: #3d3d3d"/>
      </g>
    </g>
  </g>
</svg>
