<svg xmlns="http://www.w3.org/2000/svg" width="24" height="24" viewBox="0 0 24 24">
  <g id="Layer_2" data-name="Layer 2">
    <g id="Layer_3" data-name="Layer 3">
      <g>
        <circle id="circle868" cx="12" cy="11.98" r="11.23" style="fill: #4c4c4c"/>
        <path id="path870" d="M21.25,5.09A11.82,11.82,0,0,0,4.63,3.22,11.47,11.47,0,0,0,2.75,5.09,15.63,15.63,0,0,1,21.25,5.09Z" style="fill: #696e71"/>
        <path id="path872" d="M12,22c-5.76,0-10.45-3.66-10.95-8a6.49,6.49,0,0,0-.05.77c0,4.77,4.92,8.64,11,8.64s11-3.84,11-8.64a6.49,6.49,0,0,0-.05-.77C22.46,18.3,17.76,22,12,22Z" style="fill: #363636"/>
        <path id="path884" d="M12,1A11,11,0,1,1,1,12H1A11,11,0,0,1,12,1m0-1A12,12,0,1,0,24,12h0A12,12,0,0,0,12,0Z"/>
        <path id="path872-2" data-name="path872" d="M12,19.16c-3.37,0-6.12-1.5-6.41-5,0,.2,0,.41,0,.62,0,3.8,2.88,7,6.44,7a6.74,6.74,0,0,0,6.44-7c0-.21,0-.42,0-.62C18.12,17.66,15.38,19.16,12,19.16Z" style="fill: #363636"/>
        <path id="path874" d="M12,19.51A7.51,7.51,0,1,1,19.51,12,7.51,7.51,0,0,1,12,19.51Z"/>
        <rect id="rect1003" x="9.58" y="14.28" width="4.85" height="2.58" style="fill: #252627"/>
        <rect id="rect894" x="9.58" y="13.4" width="4.85" height="1.28" style="fill: #35393d"/>
        <rect id="rect890" x="9.58" y="12.42" width="4.85" height="1.04" style="fill: #5b5b5b"/>
        <path d="M12,18.51h0A6.51,6.51,0,0,1,5.49,12,6.52,6.52,0,0,1,12,5.49h0a6.51,6.51,0,0,1,0,13ZM12,7.36A4.65,4.65,0,1,0,16.65,12,4.63,4.63,0,0,0,12,7.36Z" style="fill: #646464"/>
        <g>
          <path id="path876" d="M12,4.53A7.47,7.47,0,1,1,4.53,12h0A7.49,7.49,0,0,1,12,4.53m0-.86A8.33,8.33,0,1,0,20.33,12h0A8.33,8.33,0,0,0,12,3.67Z" style="fill: #282828"/>
          <g>
            <path d="M18,9.38a6.5,6.5,0,0,0-6-4h0A6.52,6.52,0,0,0,5.94,9.5C9.53,5,14.83,5.09,18,9.38Z" style="fill: #868686"/>
            <path d="M17.77,15c-3.17,3.55-8.11,3.64-11.62-.15a6.51,6.51,0,0,0,5.63,3.66H12a6.42,6.42,0,0,0,.89-.07A6.51,6.51,0,0,0,17.77,15Z" style="fill: #3d3d3d"/>
          </g>
        </g>
        <path id="path38" d="M7.67,13.76A4.56,4.56,0,0,0,12,17a5.55,5.55,0,0,0,1-.09,4.61,4.61,0,0,0,2.24-1.26,3.85,3.85,0,0,0,.55-.71,8.46,8.46,0,0,0,.54-1.14h0C13.82,17.31,9.83,17.16,7.67,13.76Z" style="fill: #868686"/>
      </g>
    </g>
  </g>
</svg>
