<?xml version="1.0" encoding="UTF-8" standalone="no"?>
<!-- Generator: Adobe Illustrator 21.0.0, SVG Export Plug-In . SVG Version: 6.00 Build 0)  -->

<svg
   xmlns:dc="http://purl.org/dc/elements/1.1/"
   xmlns:cc="http://creativecommons.org/ns#"
   xmlns:rdf="http://www.w3.org/1999/02/22-rdf-syntax-ns#"
   xmlns:svg="http://www.w3.org/2000/svg"
   xmlns="http://www.w3.org/2000/svg"
   xmlns:sodipodi="http://sodipodi.sourceforge.net/DTD/sodipodi-0.dtd"
   xmlns:inkscape="http://www.inkscape.org/namespaces/inkscape"
   version="1.1"
   id="svg4541"
   x="0px"
   y="0px"
   viewBox="0 0 210 380"
   xml:space="preserve"
   sodipodi:docname="BPMCalc.svg"
   inkscape:version="0.92.2 5c3e80d, 2017-08-06"
   width="210"
   height="380"><metadata
     id="metadata61"><rdf:RDF><cc:Work
         rdf:about=""><dc:format>image/svg+xml</dc:format><dc:type
           rdf:resource="http://purl.org/dc/dcmitype/StillImage" /><dc:title>BPMCalc</dc:title></cc:Work></rdf:RDF></metadata><defs
     id="defs59" /><sodipodi:namedview
     pagecolor="#ffffff"
     bordercolor="#666666"
     borderopacity="1"
     objecttolerance="10"
     gridtolerance="10"
     guidetolerance="10"
     inkscape:pageopacity="0"
     inkscape:pageshadow="2"
     inkscape:window-width="1840"
     inkscape:window-height="1152"
     id="namedview57"
     showgrid="false"
     inkscape:zoom="2.5657895"
     inkscape:cx="33.287179"
     inkscape:cy="190"
     inkscape:window-x="0"
     inkscape:window-y="0"
     inkscape:window-maximized="0"
     inkscape:current-layer="svg4541" /><style
     type="text/css"
     id="style2">
	.st0{fill:#44423E;}
	.st1{fill:#3C3835;}
	.st2{fill:#141414;}
	.st3{fill:#FFF7D4;}
	.st4{fill:#141414;stroke:#000000;stroke-width:0.75;stroke-miterlimit:10;}
</style><title
     id="title4">BPMCalc</title><polygon
     class="st0"
     points="0,287.6 0,291.5 0,293 0,297.8 0,380 150,380 150,293 150,291.5 150,287.6 150,286.2 150,272.4 150,31.8 150,31.5 150,30 150,26.1 150,24.7 150,16.5 150,0 0,0 0,24.7 0,26.1 0,30 0,31.8 0,286.2 "
     id="polygon6"
     style="fill:#44423e;fill-opacity:1"
     transform="scale(1.4,1)" /><g
     id="g1661"
     style="fill:#3c3835;fill-opacity:1"
     transform="translate(29.999957)"><g
       id="g1659"
       style="fill:#3c3835;fill-opacity:1"><path
         id="path1657"
         class="st1"
         d="m 164.9,161.8 c -0.5,-1.8 -1.7,-3.3 -3.2,-4.2 -1.5,-1 -3.4,-1.3 -5.1,-0.8 -1.8,0.5 -3.3,1.7 -4.2,3.2 -7.8,14 -16.7,27.5 -26.4,40.3 -8.2,-16.1 -13.7,-33.3 -16.5,-51.2 V 146 l 15.9,-22.3 c 1.9,-2.7 10,-12.4 -6.2,-19.4 -6.1,-2.2 -12.8,-2 -18.7,0.6 -18.4,7.9 -15.2,33.8 -14.7,38 0,1.7 0.2,3.3 0.7,4.9 l -30,49.3 c 0,0 3.9,-25.9 4.6,-30.5 1.2,-5.8 -2.6,-11.5 -8.5,-12.7 0,0 0,0 0,0 l -0.4,-0.1 c -7.9,-1.9 -12.8,0.5 -18,21 -4.4,17.4 -20.1,60.6 -30.6,60.3 -6.2,0 -1.9,-27 5.4,-46.6 8.9,-23.4 30,-55.5 53.8,-70 5.5,-3.4 12.7,-11.9 5.2,-20.3 -9.4,-10.6 -19.5,-2.2 -23.8,1 -11.3,9.6 -20.7,21.3 -27.7,34.5 -9.9,15.6 -17.4,32.5 -22.3,50.3 -7.9,25.8 -16.4,67.7 0.8,69.3 23.8,2.1 42.7,-44.1 42.7,-44.1 0,0 -1,24.2 11.1,24.8 12.1,0.6 35.8,-46.8 42.5,-62.8 4.6,15.5 11.2,30.3 19.8,44 0.4,1 0.8,2 1.1,3.1 -2.7,3.7 -29.9,38.5 -37.8,59.5 -0.9,1.8 -0.9,3.9 0,5.7 0.8,1.6 2.2,2.9 4,3.3 2,0.4 4.1,0 5.9,-1 1.8,-0.8 3.6,-1.7 5.2,-2.8 38.3,-22 43.8,-47.6 41,-67.2 0.6,-1.1 1.3,-2.2 2.1,-3.2 11.5,-14.4 21.8,-29.7 30.9,-45.8 1.2,-1.3 1.8,-3.2 1.4,-5 z"
         style="fill:#3c3835;fill-opacity:1"
         inkscape:connector-curvature="0" /></g></g><rect
     id="rect1806"
     class="st1"
     width="210"
     height="15"
     style="fill:#3c3835;fill-opacity:1;stroke-width:1.02469504"
     x="0"
     y="0" /><rect
     id="rect1982"
     y="365"
     class="st1"
     width="210"
     height="15"
     style="fill:#3c3835;fill-opacity:1;stroke-width:1.02469504"
     x="0" /><g
     id="g1553"><path
       style="fill:#141414"
       inkscape:connector-curvature="0"
       d="m 18.5,2.8 h 8.4 c 2.8,-0.1 5.1,2 5.3,4.7 v 0 c -0.2,2.8 -2.5,4.9 -5.3,4.7 h -8.4 c -2.8,0.1 -5.1,-2 -5.3,-4.7 v 0 c 0.2,-2.7 2.6,-4.8 5.3,-4.7 z"
       class="st2"
       id="rect861" /><path
       style="fill:#141414"
       inkscape:connector-curvature="0"
       d="m 18.5,368.3 h 8.4 c 2.8,-0.1 5.1,2 5.3,4.7 v 0 c -0.2,2.8 -2.5,4.9 -5.3,4.7 h -8.4 c -2.8,0.2 -5.1,-2 -5.3,-4.7 0,0 0,0 0,0 v 0 c 0.2,-2.8 2.5,-4.9 5.3,-4.7 0,0 0,0 0,0 z"
       class="st2"
       id="rect863" /></g><circle
     id="path1686"
     class="st1"
     cx="105"
     cy="359.89999"
     r="15.1"
     style="fill:#3c3835;fill-opacity:1" /><g
     id="Layer_2-2"
     transform="translate(29.944853)"><path
       style="fill:#fff7d4;fill-opacity:1"
       inkscape:connector-curvature="0"
       d="m 82.6,356.8 c 0,-0.1 -0.1,-0.3 -0.3,-0.4 -0.1,-0.1 -0.3,-0.1 -0.4,-0.1 -0.1,0 -0.3,0.1 -0.3,0.3 -0.7,1.2 -1.4,2.3 -2.2,3.4 -0.7,-1.4 -1.2,-2.8 -1.4,-4.3 v -0.3 l 1.3,-1.9 c 0.2,-0.2 0.8,-1 -0.5,-1.6 -0.5,-0.2 -1.1,-0.2 -1.6,0 -1.6,0.7 -1.3,2.8 -1.2,3.2 0,0.1 0,0.3 0.1,0.4 l -2.5,4.1 0.4,-2.6 c 0.1,-0.5 -0.2,-1 -0.7,-1.1 v 0 c -0.7,-0.2 -1.1,0 -1.5,1.8 -0.4,1.5 -1.7,5.1 -2.6,5.1 -0.5,0 -0.2,-2.3 0.4,-3.9 0.9,-2.3 2.5,-4.4 4.5,-5.8 0.5,-0.3 1.1,-1 0.4,-1.7 -0.8,-0.9 -1.6,-0.2 -2,0.1 -1,0.8 -1.7,1.8 -2.3,2.9 -0.8,1.3 -1.5,2.7 -1.9,4.2 -0.7,2.2 -1.4,5.7 0.1,5.8 2,0.2 3.6,-3.7 3.6,-3.7 0,0 -0.1,2 0.9,2.1 1,0.1 3,-3.9 3.6,-5.3 0.4,1.3 0.9,2.5 1.7,3.7 0,0.1 0.1,0.2 0.1,0.3 -1.2,1.5 -2.3,3.2 -3.2,5 -0.1,0.2 -0.1,0.3 0,0.5 0.1,0.1 0.2,0.2 0.3,0.3 0.2,0 0.3,0 0.5,-0.1 0.2,-0.1 0.3,-0.1 0.4,-0.2 3.2,-1.9 3.7,-4 3.4,-5.6 0,-0.1 0.1,-0.2 0.2,-0.3 1,-1.2 1.8,-2.5 2.6,-3.8 0.1,-0.2 0.1,-0.4 0.1,-0.5 z"
       class="st3"
       id="path8-4-6" /></g><g
     id="g1986"
     transform="translate(60)"><path
       id="path1191"
       class="st2"
       d="m 122.2,2.8 c -2.8,-0.1 -5.1,2 -5.2,4.7 0.2,2.8 2.5,4.9 5.3,4.7 h 8.4 c 2.8,0.1 5.1,-2 5.3,-4.7 -0.2,-2.8 -2.5,-4.9 -5.3,-4.7 z"
       inkscape:connector-curvature="0"
       style="fill:#141414" /><path
       id="rect865"
       class="st2"
       d="m 122.2,368.3 c -2.6,-0.3 -4.9,1.6 -5.2,4.2 -0.3,2.6 1.6,4.9 4.2,5.2 0.3,0 0.6,0 1,0 h 8.4 c 2.6,0.3 4.9,-1.6 5.2,-4.2 0.3,-2.6 -1.6,-4.9 -4.2,-5.2 -0.3,0 -0.6,0 -1,0 z"
       inkscape:connector-curvature="0"
       style="fill:#141414" /></g><g
     id="g901"
     transform="translate(29.55,-9.55)"><path
       class="st3"
       d="m 26.7,40.9 c 0.3,0.4 0.4,0.8 0.4,1.3 0,0.7 -0.3,1.3 -0.8,1.7 -0.5,0.4 -1.2,0.6 -2.2,0.6 H 21 c -0.3,0 -0.5,-0.1 -0.6,-0.2 -0.1,-0.1 -0.2,-0.4 -0.2,-0.6 V 37 c 0,-0.3 0.1,-0.5 0.2,-0.6 0.1,-0.1 0.4,-0.2 0.6,-0.2 h 3 c 0.9,0 1.6,0.2 2.1,0.6 0.5,0.4 0.8,0.9 0.8,1.6 0,0.4 -0.1,0.8 -0.4,1.2 -0.3,0.4 -0.6,0.6 -1,0.7 0.5,0 0.9,0.2 1.2,0.6 z m -4.8,-1.4 h 1.8 c 0.5,0 0.8,-0.1 1.1,-0.2 0.2,-0.2 0.3,-0.4 0.3,-0.8 0,-0.4 -0.1,-0.6 -0.3,-0.8 -0.2,-0.2 -0.6,-0.2 -1.1,-0.2 h -1.8 z m 3.1,3.3 c 0.2,-0.2 0.3,-0.4 0.3,-0.8 0,-0.4 -0.1,-0.7 -0.3,-0.8 -0.2,-0.2 -0.6,-0.3 -1.1,-0.3 h -2 v 2.2 h 2 c 0.5,0 0.9,-0.1 1.1,-0.3 z"
       id="path24"
       inkscape:connector-curvature="0"
       style="fill:#fff7d4;fill-opacity:1" /><path
       class="st3"
       d="m 28.9,44.3 c -0.2,-0.2 -0.3,-0.4 -0.3,-0.7 v -6.7 c 0,-0.3 0.1,-0.5 0.2,-0.6 0.1,-0.1 0.4,-0.2 0.6,-0.2 h 3 c 0.9,0 1.6,0.2 2.1,0.7 0.5,0.5 0.8,1.1 0.8,1.9 0,0.8 -0.3,1.5 -0.8,1.9 -0.5,0.5 -1.2,0.7 -2.1,0.7 h -2 v 2.3 c 0,0.3 -0.1,0.5 -0.3,0.7 -0.2,0.2 -0.4,0.3 -0.7,0.3 -0.3,0 -0.4,-0.1 -0.5,-0.3 z m 3.4,-4.4 c 0.9,0 1.4,-0.4 1.4,-1.2 0,-0.8 -0.5,-1.2 -1.4,-1.2 h -1.8 v 2.4 z"
       id="path26"
       inkscape:connector-curvature="0"
       style="fill:#fff7d4;fill-opacity:1" /><path
       class="st3"
       d="m 45,36.3 c 0.2,0.2 0.2,0.4 0.2,0.7 v 6.8 c 0,0.3 -0.1,0.5 -0.2,0.6 -0.2,0.2 -0.4,0.2 -0.6,0.2 -0.2,0 -0.4,-0.1 -0.6,-0.2 -0.2,-0.2 -0.2,-0.4 -0.2,-0.6 v -4.2 l -1.7,3.2 c -0.1,0.2 -0.2,0.4 -0.4,0.5 -0.1,0.1 -0.3,0.1 -0.5,0.1 -0.2,0 -0.3,0 -0.5,-0.1 -0.1,-0.1 -0.3,-0.2 -0.4,-0.5 l -1.7,-3.1 v 4.2 c 0,0.3 -0.1,0.5 -0.2,0.6 -0.2,0.2 -0.4,0.2 -0.6,0.2 -0.2,0 -0.4,-0.1 -0.6,-0.2 -0.2,-0.2 -0.2,-0.4 -0.2,-0.6 v -6.8 c 0,-0.3 0.1,-0.5 0.2,-0.7 0.2,-0.2 0.4,-0.3 0.6,-0.3 0.4,0 0.7,0.2 0.9,0.6 l 2.4,4.6 2.4,-4.6 c 0.2,-0.4 0.5,-0.6 0.9,-0.6 0.4,-0.1 0.6,0 0.8,0.2 z"
       id="path28"
       inkscape:connector-curvature="0"
       style="fill:#fff7d4;fill-opacity:1" /><path
       class="st3"
       d="M 51,44.3 C 50.8,44.1 50.8,43.9 50.8,43.7 V 37 c 0,-0.3 0.1,-0.5 0.2,-0.6 0.1,-0.1 0.4,-0.2 0.6,-0.2 H 54 c 0.9,0 1.7,0.2 2.4,0.5 0.7,0.3 1.2,0.8 1.5,1.5 0.3,0.7 0.5,1.4 0.5,2.3 0,0.9 -0.2,1.6 -0.5,2.3 -0.3,0.6 -0.9,1.1 -1.5,1.5 -0.6,0.4 -1.5,0.5 -2.4,0.5 H 51.6 C 51.4,44.5 51.2,44.4 51,44.3 Z M 53.9,43 c 1.8,0 2.7,-0.9 2.7,-2.7 0,-1.8 -0.9,-2.7 -2.7,-2.7 H 52.6 V 43 Z"
       id="path30"
       inkscape:connector-curvature="0"
       style="fill:#fff7d4;fill-opacity:1" /><path
       class="st3"
       d="m 65.2,43 c 0.1,0.1 0.1,0.3 0.1,0.5 0,0.1 0,0.3 -0.1,0.4 -0.1,0.1 -0.2,0.2 -0.3,0.3 -0.3,0.1 -0.6,0.3 -0.9,0.4 -0.3,0.1 -0.7,0.1 -1,0.1 -0.6,0 -1.2,-0.1 -1.7,-0.4 -0.5,-0.2 -0.8,-0.6 -1.1,-1.1 -0.3,-0.5 -0.4,-1 -0.4,-1.6 0,-0.6 0.1,-1.1 0.4,-1.6 0.2,-0.5 0.6,-0.8 1,-1.1 0.4,-0.3 0.9,-0.4 1.5,-0.4 0.5,0 1,0.1 1.4,0.4 0.4,0.2 0.7,0.6 0.9,1 0.2,0.4 0.3,0.9 0.3,1.5 0,0.2 0,0.3 -0.1,0.4 -0.1,0.1 -0.2,0.1 -0.4,0.1 h -3.4 c 0.1,0.5 0.2,0.8 0.4,1 0.2,0.2 0.6,0.3 1,0.3 0.2,0 0.4,0 0.6,-0.1 0.2,-0.1 0.4,-0.1 0.6,-0.2 0.1,0 0.2,-0.1 0.3,-0.1 0.1,0 0.2,-0.1 0.3,-0.1 0.3,0.1 0.5,0.1 0.6,0.3 z m -3.3,-2.9 c -0.2,0.2 -0.3,0.5 -0.4,1 h 2.3 c 0,-0.4 -0.1,-0.7 -0.3,-1 -0.2,-0.2 -0.5,-0.3 -0.8,-0.3 -0.3,-0.1 -0.6,0 -0.8,0.3 z"
       id="path32"
       inkscape:connector-curvature="0"
       style="fill:#fff7d4;fill-opacity:1" /><path
       class="st3"
       d="M 66.9,44.4 C 66.7,44.3 66.6,44 66.6,43.8 v -6.9 c 0,-0.3 0.1,-0.5 0.3,-0.6 0.2,-0.1 0.4,-0.2 0.7,-0.2 0.3,0 0.5,0.1 0.6,0.2 0.2,0.1 0.3,0.4 0.3,0.6 v 6.9 c 0,0.3 -0.1,0.5 -0.3,0.6 -0.2,0.1 -0.4,0.2 -0.6,0.2 -0.3,0 -0.5,-0.1 -0.7,-0.2 z"
       id="path34"
       inkscape:connector-curvature="0"
       style="fill:#fff7d4;fill-opacity:1" /><path
       class="st3"
       d="m 74.7,39.1 c 0.4,0.4 0.6,1.1 0.6,1.9 v 2.7 c 0,0.3 -0.1,0.5 -0.2,0.6 -0.2,0.1 -0.4,0.2 -0.6,0.2 -0.3,0 -0.5,-0.1 -0.6,-0.2 -0.2,-0.2 -0.2,-0.4 -0.2,-0.6 v -0.1 c -0.1,0.3 -0.3,0.5 -0.6,0.7 -0.3,0.2 -0.6,0.3 -1,0.3 -0.4,0 -0.8,-0.1 -1.1,-0.2 -0.3,-0.2 -0.6,-0.4 -0.8,-0.7 -0.2,-0.3 -0.3,-0.6 -0.3,-1 0,-0.4 0.1,-0.8 0.3,-1 0.2,-0.2 0.6,-0.4 1.1,-0.5 0.5,-0.1 1.2,-0.2 2,-0.2 h 0.3 v -0.2 c 0,-0.3 -0.1,-0.6 -0.2,-0.7 -0.1,-0.2 -0.4,-0.2 -0.7,-0.2 -0.3,0 -0.8,0.1 -1.5,0.4 -0.2,0.1 -0.3,0.1 -0.5,0.1 -0.2,0 -0.3,-0.1 -0.4,-0.2 -0.1,-0.1 -0.2,-0.3 -0.2,-0.5 0,-0.2 0,-0.3 0.1,-0.4 0.1,-0.1 0.2,-0.2 0.3,-0.3 0.3,-0.2 0.6,-0.3 1,-0.4 0.4,-0.1 0.8,-0.1 1.2,-0.1 0.9,0 1.6,0.2 2,0.6 z M 73.3,43 c 0.2,-0.2 0.3,-0.5 0.3,-0.9 v -0.2 h -0.2 c -0.6,0 -1.1,0.1 -1.4,0.2 -0.3,0.1 -0.4,0.3 -0.4,0.6 0,0.2 0.1,0.4 0.2,0.5 0.1,0.1 0.3,0.2 0.6,0.2 0.4,0 0.7,-0.2 0.9,-0.4 z"
       id="path36"
       inkscape:connector-curvature="0"
       style="fill:#fff7d4;fill-opacity:1" /><path
       class="st3"
       d="m 81.2,38.7 c 0.1,-0.1 0.3,-0.1 0.4,-0.1 0.2,0 0.4,0.1 0.6,0.2 0.2,0.1 0.3,0.3 0.3,0.5 0,0.1 0,0.2 -0.1,0.3 l -3.2,6.6 c -0.1,0.2 -0.2,0.3 -0.3,0.4 -0.1,0.1 -0.3,0.1 -0.4,0.1 -0.2,0 -0.4,-0.1 -0.6,-0.2 -0.2,-0.1 -0.3,-0.3 -0.3,-0.5 0,-0.1 0,-0.2 0.1,-0.4 L 78.5,44 76.4,39.6 c 0,-0.1 -0.1,-0.2 -0.1,-0.3 0,-0.2 0.1,-0.4 0.3,-0.6 0.2,-0.2 0.4,-0.2 0.6,-0.2 0.2,0 0.3,0 0.4,0.1 0.1,0.1 0.2,0.2 0.3,0.4 l 1.5,3.2 1.5,-3.2 c 0.1,-0.1 0.2,-0.3 0.3,-0.3 z"
       id="path38"
       inkscape:connector-curvature="0"
       style="fill:#fff7d4;fill-opacity:1" /><path
       class="st3"
       d="m 83.6,45.3 c -0.1,0.1 -0.3,0.1 -0.4,0.1 -0.2,0 -0.3,-0.1 -0.5,-0.2 -0.1,-0.1 -0.2,-0.3 -0.2,-0.5 0,-0.1 0,-0.2 0,-0.3 l 2.7,-8.6 c 0.1,-0.2 0.1,-0.3 0.3,-0.4 0.2,-0.1 0.3,-0.1 0.4,-0.1 0.2,0 0.4,0.1 0.5,0.2 0.1,0.1 0.2,0.3 0.2,0.5 0,0.1 0,0.2 0,0.3 l -2.8,8.6 c 0.1,0.2 0,0.3 -0.2,0.4 z"
       id="path40"
       inkscape:connector-curvature="0"
       style="fill:#fff7d4;fill-opacity:1" /><path
       class="st3"
       d="m 95,36.3 c 0.2,0.2 0.3,0.4 0.3,0.7 v 6.7 c 0,0.3 -0.1,0.5 -0.3,0.7 -0.2,0.2 -0.4,0.3 -0.7,0.3 -0.3,0 -0.5,-0.1 -0.7,-0.3 C 93.4,44.2 93.4,44 93.4,43.7 V 41 h -3.9 v 2.7 c 0,0.3 -0.1,0.5 -0.3,0.7 -0.2,0.2 -0.4,0.3 -0.7,0.3 -0.3,0 -0.5,-0.1 -0.7,-0.3 C 87.6,44.2 87.5,44 87.5,43.7 V 37 c 0,-0.3 0.1,-0.5 0.3,-0.7 0.2,-0.2 0.4,-0.3 0.7,-0.3 0.3,0 0.5,0.1 0.7,0.3 0.2,0.2 0.2,0.4 0.2,0.7 v 2.6 h 3.9 V 37 c 0,-0.3 0.1,-0.5 0.2,-0.7 0.1,-0.2 0.5,-0.3 0.8,-0.3 0.3,0 0.5,0.1 0.7,0.3 z"
       id="path42"
       inkscape:connector-curvature="0"
       style="fill:#fff7d4;fill-opacity:1" /><path
       class="st3"
       d="m 102.3,43.8 c 0,0.4 -0.3,0.7 -0.8,0.7 h -3.9 c -0.2,0 -0.4,-0.1 -0.6,-0.2 -0.2,-0.2 -0.2,-0.3 -0.2,-0.5 0,-0.2 0.1,-0.4 0.3,-0.6 l 2.8,-3.1 h -2.3 c -0.5,0 -0.8,-0.2 -0.8,-0.7 0,-0.5 0.3,-0.7 0.8,-0.7 h 3.7 c 0.2,0 0.4,0.1 0.6,0.2 0.1,0.2 0.2,0.3 0.2,0.6 0,0.2 -0.1,0.4 -0.3,0.6 L 99,43.2 h 2.4 c 0.6,0 0.9,0.2 0.9,0.6 z"
       id="path44"
       inkscape:connector-curvature="0"
       style="fill:#fff7d4;fill-opacity:1" /><path
       class="st3"
       d="m 108.9,44.1 c -0.6,-0.4 -1.1,-0.9 -1.4,-1.5 -0.3,-0.7 -0.5,-1.4 -0.5,-2.3 0,-0.9 0.2,-1.6 0.5,-2.3 0.3,-0.7 0.8,-1.2 1.4,-1.5 0.6,-0.3 1.4,-0.5 2.2,-0.5 1,0 2,0.3 2.7,0.9 0.1,0.1 0.2,0.2 0.3,0.3 0.1,0.1 0.1,0.2 0.1,0.4 0,0.2 -0.1,0.4 -0.2,0.5 -0.1,0.1 -0.3,0.2 -0.4,0.2 -0.1,0 -0.2,0 -0.3,0 -0.1,0 -0.2,-0.1 -0.3,-0.2 -0.3,-0.2 -0.6,-0.4 -0.9,-0.4 -0.3,-0.1 -0.6,-0.1 -0.9,-0.1 -0.8,0 -1.3,0.2 -1.7,0.7 -0.4,0.5 -0.6,1.2 -0.6,2.1 0,1.9 0.8,2.9 2.3,2.9 0.3,0 0.6,0 0.8,-0.1 0.3,-0.1 0.6,-0.2 0.9,-0.4 0.1,-0.1 0.2,-0.1 0.3,-0.2 0.1,0 0.2,0 0.3,0 0.2,0 0.3,0.1 0.4,0.2 0.1,0.1 0.2,0.3 0.2,0.5 0,0.1 0,0.3 -0.1,0.4 -0.1,0.1 -0.1,0.2 -0.2,0.3 -0.8,0.6 -1.7,0.9 -2.7,0.9 -0.9,-0.3 -1.6,-0.4 -2.2,-0.8 z"
       id="path46"
       inkscape:connector-curvature="0"
       style="fill:#fff7d4;fill-opacity:1" /><path
       class="st3"
       d="m 119.8,39.1 c 0.4,0.4 0.6,1.1 0.6,1.9 v 2.7 c 0,0.3 -0.1,0.5 -0.2,0.6 -0.2,0.1 -0.4,0.2 -0.6,0.2 -0.3,0 -0.5,-0.1 -0.6,-0.2 -0.2,-0.2 -0.2,-0.4 -0.2,-0.6 v -0.1 c -0.1,0.3 -0.3,0.5 -0.6,0.7 -0.3,0.2 -0.6,0.3 -1,0.3 -0.4,0 -0.8,-0.1 -1.1,-0.2 -0.3,-0.2 -0.6,-0.4 -0.8,-0.7 -0.2,-0.3 -0.3,-0.6 -0.3,-1 0,-0.4 0.1,-0.8 0.3,-1 0.2,-0.2 0.6,-0.4 1.1,-0.5 0.5,-0.1 1.2,-0.2 2,-0.2 h 0.3 v -0.2 c 0,-0.3 -0.1,-0.6 -0.2,-0.7 -0.1,-0.2 -0.4,-0.2 -0.7,-0.2 -0.3,0 -0.8,0.1 -1.5,0.4 -0.2,0.1 -0.3,0.1 -0.5,0.1 -0.2,0 -0.3,-0.1 -0.4,-0.2 -0.1,-0.1 -0.2,-0.3 -0.2,-0.5 0,-0.2 0,-0.3 0.1,-0.4 0.1,-0.1 0.2,-0.2 0.3,-0.3 0.3,-0.2 0.6,-0.3 1,-0.4 0.4,-0.1 0.8,-0.1 1.2,-0.1 1,0 1.6,0.2 2,0.6 z m -1.4,3.9 c 0.2,-0.2 0.3,-0.5 0.3,-0.9 v -0.2 h -0.2 c -0.6,0 -1.1,0.1 -1.4,0.2 -0.3,0.1 -0.4,0.3 -0.4,0.6 0,0.2 0.1,0.4 0.2,0.5 0.1,0.1 0.3,0.2 0.6,0.2 0.4,0 0.7,-0.2 0.9,-0.4 z"
       id="path48"
       inkscape:connector-curvature="0"
       style="fill:#fff7d4;fill-opacity:1" /><path
       class="st3"
       d="M 122.3,44.4 C 122.1,44.3 122,44 122,43.8 v -6.9 c 0,-0.3 0.1,-0.5 0.3,-0.6 0.2,-0.1 0.4,-0.2 0.7,-0.2 0.3,0 0.5,0.1 0.6,0.2 0.2,0.1 0.3,0.4 0.3,0.6 v 6.9 c 0,0.3 -0.1,0.5 -0.3,0.6 -0.2,0.1 -0.4,0.2 -0.6,0.2 -0.3,0 -0.5,-0.1 -0.7,-0.2 z"
       id="path50"
       inkscape:connector-curvature="0"
       style="fill:#fff7d4;fill-opacity:1" /><path
       class="st3"
       d="m 126.6,44.2 c -0.5,-0.2 -0.8,-0.6 -1,-1.1 -0.2,-0.5 -0.4,-1 -0.4,-1.6 0,-0.6 0.1,-1.2 0.4,-1.6 0.3,-0.5 0.6,-0.8 1.1,-1.1 0.5,-0.3 1,-0.4 1.6,-0.4 0.3,0 0.6,0 1,0.1 0.4,0.1 0.6,0.2 0.9,0.4 0.2,0.2 0.4,0.4 0.4,0.7 0,0.2 0,0.4 -0.1,0.5 -0.1,0.1 -0.2,0.2 -0.4,0.2 -0.1,0 -0.2,0 -0.3,-0.1 -0.1,-0.1 -0.2,-0.1 -0.4,-0.2 -0.2,-0.1 -0.3,-0.2 -0.4,-0.2 -0.1,0 -0.3,-0.1 -0.5,-0.1 -0.4,0 -0.8,0.1 -1,0.4 -0.2,0.3 -0.4,0.7 -0.4,1.2 0,0.5 0.1,1 0.4,1.2 0.3,0.2 0.6,0.4 1,0.4 0.2,0 0.3,0 0.4,-0.1 0.1,-0.1 0.3,-0.1 0.5,-0.2 0.2,-0.1 0.3,-0.1 0.4,-0.2 0.1,0 0.2,-0.1 0.3,-0.1 0.2,0 0.3,0.1 0.4,0.2 0.1,0.1 0.2,0.3 0.2,0.5 0,0.3 -0.1,0.5 -0.4,0.7 -0.3,0.2 -0.6,0.3 -0.9,0.4 -0.3,0.1 -0.7,0.1 -1.1,0.1 -0.7,0.4 -1.2,0.3 -1.7,0 z"
       id="path52"
       inkscape:connector-curvature="0"
       style="fill:#fff7d4;fill-opacity:1" /></g><g
     style="display:inline"
     id="g938"
     transform="matrix(0.56228326,0,0,0.56228326,-52.085636,-11.020274)"><path
       id="path922"
       style="fill:#fff8d5"
       transform="translate(319.8,113.4)"
       d="m 21.14,21.46 a 2.12,2.12 0 0 1 0.4,1.31 2,2 0 0 1 -0.79,1.69 3.4,3.4 0 0 1 -2.17,0.62 H 15.45 A 0.79,0.79 0 0 1 14.57,24.2 v -6.69 a 0.79,0.79 0 0 1 0.88,-0.88 h 3 a 3.38,3.38 0 0 1 2.09,0.59 1.91,1.91 0 0 1 0.77,1.61 A 2,2 0 0 1 21,20 a 2,2 0 0 1 -1,0.73 2.12,2.12 0 0 1 1.14,0.73 z M 16.4,20.08 h 1.76 a 1.83,1.83 0 0 0 1.06,-0.25 0.86,0.86 0 0 0 0.34,-0.75 0.89,0.89 0 0 0 -0.34,-0.77 1.84,1.84 0 0 0 -1.06,-0.25 H 16.4 Z m 3.06,3.34 A 1,1 0 0 0 19.8,22.6 1,1 0 0 0 19.46,21.77 1.76,1.76 0 0 0 18.38,21.51 h -2 v 2.16 h 2 a 1.82,1.82 0 0 0 1.08,-0.26 z"
       inkscape:connector-curvature="0" /><path
       id="path924"
       style="fill:#fff8d5"
       transform="translate(319.8,113.4)"
       d="m 23.33,24.91 a 0.92,0.92 0 0 1 -0.25,-0.68 v -6.72 a 0.79,0.79 0 0 1 0.88,-0.88 h 3 a 3.09,3.09 0 0 1 2.15,0.7 2.49,2.49 0 0 1 0.77,1.94 2.49,2.49 0 0 1 -0.77,1.94 3.09,3.09 0 0 1 -2.15,0.7 H 25 v 2.32 a 1,1 0 0 1 -1.62,0.68 z m 3.4,-4.42 q 1.4,0 1.4,-1.21 0,-1.21 -1.4,-1.22 H 25 v 2.44 z"
       inkscape:connector-curvature="0" /><path
       id="path926"
       style="fill:#fff8d5"
       transform="translate(319.8,113.4)"
       d="m 39.49,16.83 a 0.93,0.93 0 0 1 0.25,0.67 v 6.82 a 0.84,0.84 0 0 1 -0.23,0.62 0.81,0.81 0 0 1 -0.6,0.23 0.8,0.8 0 0 1 -0.59,-0.23 0.84,0.84 0 0 1 -0.23,-0.62 v -4.24 l -1.7,3.2 a 1.34,1.34 0 0 1 -0.37,0.46 0.84,0.84 0 0 1 -0.94,0 1.3,1.3 0 0 1 -0.37,-0.46 L 33,20.14 v 4.18 a 0.85,0.85 0 0 1 -0.23,0.62 0.88,0.88 0 0 1 -1.19,0 0.84,0.84 0 0 1 -0.23,-0.62 V 17.5 a 0.93,0.93 0 0 1 0.25,-0.67 0.85,0.85 0 0 1 0.64,-0.26 1,1 0 0 1 0.88,0.61 L 35.56,21.8 38,17.18 a 1,1 0 0 1 0.86,-0.61 0.85,0.85 0 0 1 0.63,0.26 z"
       inkscape:connector-curvature="0" /></g><rect
     style="opacity:1;vector-effect:none;fill:#181414;fill-opacity:1;stroke:#000000;stroke-width:0.75;stroke-linecap:butt;stroke-linejoin:miter;stroke-miterlimit:4;stroke-dasharray:none;stroke-dashoffset:0;stroke-opacity:1;paint-order:normal"
     id="rect1555"
     width="196"
     height="236"
     x="7"
     y="103.625"
     rx="6"
     ry="6" /><g
     aria-label="NOTE"
     transform="translate(235.77148,24.571781)"
     style="font-style:normal;font-variant:normal;font-weight:normal;font-stretch:normal;font-size:10.66666698px;line-height:1.25;font-family:'Arial Rounded MT Bold';-inkscape-font-specification:'Arial Rounded MT Bold, ';letter-spacing:0px;word-spacing:0px;fill:#fff7d4;fill-opacity:1;stroke:none"
     id="flowRoot1557"><path
       d="m -206.65039,67.770558 2.23047,3.375 v -3.40625 q 0,-0.332031 0.14062,-0.496094 0.14453,-0.167968 0.38672,-0.167968 0.25,0 0.39453,0.167968 0.14453,0.164063 0.14453,0.496094 v 4.503906 q 0,0.753907 -0.625,0.753907 -0.15625,0 -0.28125,-0.04687 -0.125,-0.04297 -0.23437,-0.140625 -0.10938,-0.09766 -0.20313,-0.226563 -0.0937,-0.132812 -0.1875,-0.269531 l -2.17578,-3.335938 v 3.355469 q 0,0.328125 -0.15234,0.496094 -0.15234,0.167969 -0.39063,0.167969 -0.24609,0 -0.39453,-0.167969 -0.14843,-0.171875 -0.14843,-0.496094 v -4.417969 q 0,-0.28125 0.0625,-0.441406 0.0742,-0.175781 0.24609,-0.285156 0.17187,-0.113281 0.37109,-0.113281 0.15625,0 0.26563,0.05078 0.11328,0.05078 0.19531,0.136719 0.0859,0.08594 0.17188,0.222656 0.0898,0.136719 0.18359,0.285156 z"
       style="font-size:8px;fill:#fff7d4;fill-opacity:1"
       id="path1581"
       inkscape:connector-curvature="0" /><path
       d="m -199.56445,67.075246 q 0.89062,0 1.52734,0.363281 0.64063,0.359375 0.96875,1.027344 0.32813,0.664062 0.32813,1.5625 0,0.664062 -0.17969,1.207031 -0.17969,0.542969 -0.53906,0.941406 -0.35938,0.398438 -0.88282,0.609375 -0.52343,0.210938 -1.19922,0.210938 -0.67187,0 -1.20312,-0.214844 -0.53125,-0.21875 -0.88672,-0.613281 -0.35547,-0.394532 -0.53906,-0.949219 -0.17969,-0.554688 -0.17969,-1.199219 0,-0.660156 0.1875,-1.210937 0.19141,-0.550782 0.55078,-0.9375 0.35938,-0.386719 0.875,-0.589844 0.51563,-0.207031 1.17188,-0.207031 z m 1.64843,2.945312 q 0,-0.628906 -0.20312,-1.089844 -0.20313,-0.460937 -0.58203,-0.695312 -0.375,-0.238281 -0.86328,-0.238281 -0.34766,0 -0.64453,0.132812 -0.29297,0.128906 -0.50782,0.378906 -0.21093,0.25 -0.33593,0.640625 -0.1211,0.386719 -0.1211,0.871094 0,0.488281 0.1211,0.882813 0.125,0.394531 0.34765,0.65625 0.22656,0.257812 0.51563,0.386718 0.29297,0.128907 0.64062,0.128907 0.44531,0 0.81641,-0.222657 0.375,-0.222656 0.59375,-0.6875 0.22265,-0.464843 0.22265,-1.144531 z"
       style="font-size:8px;fill:#fff7d4;fill-opacity:1"
       id="path1583"
       inkscape:connector-curvature="0" /><path
       d="m -192.31055,68.129933 h -1.26562 v 4.160156 q 0,0.359375 -0.16016,0.535157 -0.16015,0.171875 -0.41406,0.171875 -0.25781,0 -0.42188,-0.175782 -0.16015,-0.175781 -0.16015,-0.53125 v -4.160156 h -1.26563 q -0.29687,0 -0.4414,-0.128906 -0.14453,-0.132813 -0.14453,-0.347656 0,-0.222657 0.14843,-0.351563 0.15235,-0.128906 0.4375,-0.128906 h 3.6875 q 0.30078,0 0.44532,0.132812 0.14843,0.132813 0.14843,0.347657 0,0.214843 -0.14843,0.347656 -0.14844,0.128906 -0.44532,0.128906 z"
       style="font-size:8px;fill:#fff7d4;fill-opacity:1"
       id="path1585"
       inkscape:connector-curvature="0" /><path
       d="m -187.24805,68.067433 h -2.61328 v 1.40625 h 2.40625 q 0.26563,0 0.39453,0.121094 0.13282,0.117187 0.13282,0.3125 0,0.195312 -0.12891,0.320312 -0.12891,0.121094 -0.39844,0.121094 h -2.40625 v 1.628906 h 2.70313 q 0.27343,0 0.41015,0.128907 0.14063,0.125 0.14063,0.335937 0,0.203125 -0.14063,0.332031 -0.13672,0.125 -0.41015,0.125 h -3.15235 q -0.3789,0 -0.54687,-0.167968 -0.16406,-0.167969 -0.16406,-0.542969 v -4.304688 q 0,-0.25 0.0742,-0.40625 0.0742,-0.160156 0.23047,-0.230468 0.16016,-0.07422 0.40625,-0.07422 h 3.0625 q 0.27735,0 0.41016,0.125 0.13672,0.121094 0.13672,0.320312 0,0.203125 -0.13672,0.328125 -0.13281,0.121094 -0.41016,0.121094 z"
       style="font-size:8px;fill:#fff7d4;fill-opacity:1"
       id="path1587"
       inkscape:connector-curvature="0" /></g><g
     aria-label="MS"
     transform="translate(292.43359,24.571781)"
     style="font-style:normal;font-variant:normal;font-weight:normal;font-stretch:normal;font-size:10.66666698px;line-height:1.25;font-family:'Arial Rounded MT Bold';-inkscape-font-specification:'Arial Rounded MT Bold, ';letter-spacing:0px;word-spacing:0px;fill:#fff7d4;fill-opacity:1;stroke:none"
     id="flowRoot1571"><path
       d="m -206.22852,72.036183 -0.91796,-3.648437 v 3.953125 q 0,0.328125 -0.14844,0.492187 -0.14453,0.164063 -0.38672,0.164063 -0.23438,0 -0.38281,-0.160157 -0.14844,-0.164062 -0.14844,-0.496093 v -4.53125 q 0,-0.375 0.19531,-0.503907 0.19531,-0.132812 0.52735,-0.132812 h 0.35937 q 0.32422,0 0.46875,0.05859 0.14844,0.05859 0.21875,0.210937 0.0703,0.152344 0.16016,0.496094 l 0.83203,3.136719 0.83203,-3.136719 q 0.0898,-0.34375 0.16016,-0.496094 0.0703,-0.152344 0.21484,-0.210937 0.14844,-0.05859 0.47266,-0.05859 h 0.35937 q 0.33203,0 0.52734,0.132812 0.19532,0.128907 0.19532,0.503907 v 4.53125 q 0,0.328125 -0.14844,0.492187 -0.14453,0.164063 -0.39063,0.164063 -0.23046,0 -0.3789,-0.164063 -0.14844,-0.164062 -0.14844,-0.492187 v -3.953125 l -0.91797,3.648437 q -0.0898,0.355469 -0.14844,0.523438 -0.0547,0.164062 -0.20703,0.300781 -0.15234,0.136719 -0.42187,0.136719 -0.20313,0 -0.34375,-0.08984 -0.14063,-0.08594 -0.21875,-0.222656 -0.0781,-0.136719 -0.125,-0.300782 -0.043,-0.167968 -0.0899,-0.347656 z"
       style="font-size:8px"
       id="path1590"
       inkscape:connector-curvature="0" /><path
       d="m -197.13867,71.180714 q 0,0.519532 -0.26953,0.933594 -0.26563,0.414063 -0.78125,0.648438 -0.51563,0.234375 -1.22266,0.234375 -0.84766,0 -1.39844,-0.320313 -0.39062,-0.230469 -0.63672,-0.613281 -0.24218,-0.386719 -0.24218,-0.75 0,-0.210938 0.14453,-0.359375 0.14844,-0.152344 0.375,-0.152344 0.18359,0 0.30859,0.117188 0.12891,0.117187 0.21875,0.347656 0.10938,0.273437 0.23438,0.457031 0.1289,0.183594 0.35937,0.304688 0.23047,0.117187 0.60547,0.117187 0.51563,0 0.83594,-0.238281 0.32422,-0.242188 0.32422,-0.601563 0,-0.285156 -0.17578,-0.460937 -0.17188,-0.179688 -0.44922,-0.273438 -0.27344,-0.09375 -0.73438,-0.199218 -0.61719,-0.144532 -1.03515,-0.335938 -0.41407,-0.195312 -0.66016,-0.527344 -0.24219,-0.335937 -0.24219,-0.832031 0,-0.472656 0.25781,-0.839844 0.25782,-0.367187 0.7461,-0.5625 0.48828,-0.199218 1.14844,-0.199218 0.52734,0 0.91015,0.132812 0.38672,0.128906 0.64063,0.347656 0.2539,0.214844 0.37109,0.453125 0.11719,0.238282 0.11719,0.464844 0,0.207031 -0.14844,0.375 -0.14453,0.164063 -0.36328,0.164063 -0.19922,0 -0.30469,-0.09766 -0.10156,-0.101562 -0.22265,-0.328125 -0.15625,-0.324218 -0.375,-0.503906 -0.21875,-0.183594 -0.70313,-0.183594 -0.44922,0 -0.72656,0.199219 -0.27344,0.195313 -0.27344,0.472656 0,0.171875 0.0937,0.296875 0.0937,0.125 0.25781,0.214844 0.16407,0.08984 0.33203,0.140625 0.16797,0.05078 0.55469,0.148438 0.48438,0.113281 0.875,0.25 0.39453,0.136718 0.66797,0.332031 0.27734,0.195312 0.42969,0.496094 0.15625,0.296875 0.15625,0.730468 z"
       style="font-size:8px"
       id="path1592"
       inkscape:connector-curvature="0" /></g><g
     aria-label="HZ"
     transform="translate(365.5213,24.571781)"
     style="font-style:normal;font-variant:normal;font-weight:normal;font-stretch:normal;font-size:10.66666698px;line-height:1.25;font-family:'Arial Rounded MT Bold';-inkscape-font-specification:'Arial Rounded MT Bold, ';letter-spacing:0px;word-spacing:0px;fill:#fff7d4;fill-opacity:1;stroke:none"
     id="flowRoot1579"><path
       d="m -206.99414,67.778371 v 1.640625 h 2.50391 v -1.640625 q 0,-0.351563 0.15625,-0.527344 0.16015,-0.175781 0.41796,-0.175781 0.26172,0 0.42188,0.175781 0.16406,0.171875 0.16406,0.527344 v 4.511718 q 0,0.355469 -0.16406,0.53125 -0.16406,0.175782 -0.42188,0.175782 -0.26171,0 -0.41796,-0.175782 -0.15625,-0.179687 -0.15625,-0.53125 v -1.925781 h -2.50391 v 1.925781 q 0,0.355469 -0.16406,0.53125 -0.16407,0.175782 -0.42188,0.175782 -0.26172,0 -0.41797,-0.175782 -0.15625,-0.179687 -0.15625,-0.53125 v -4.511718 q 0,-0.351563 0.15235,-0.527344 0.15625,-0.175781 0.42187,-0.175781 0.26172,0 0.42188,0.175781 0.16406,0.171875 0.16406,0.527344 z"
       style="font-size:8px"
       id="path1595"
       inkscape:connector-curvature="0" /><path
       d="m -202.23633,71.563527 2.94141,-3.519531 h -2.52735 q -0.26562,0 -0.40234,-0.117188 -0.13281,-0.117187 -0.13281,-0.308594 0,-0.199218 0.13281,-0.320312 0.13672,-0.125 0.40234,-0.125 h 3.25782 q 0.63281,0 0.63281,0.589844 0,0.28125 -0.10547,0.449218 -0.10547,0.167969 -0.42578,0.542969 l -2.75,3.273438 h 3.03125 q 0.26953,0 0.40234,0.113281 0.13282,0.109375 0.13282,0.308594 0,0.207031 -0.13282,0.328125 -0.13281,0.121093 -0.40234,0.121093 h -3.71875 q -0.37891,0 -0.57031,-0.167968 -0.19141,-0.171875 -0.19141,-0.457032 0,-0.09766 0.0312,-0.179687 0.0312,-0.08203 0.082,-0.152344 0.0547,-0.07422 0.14844,-0.183594 0.0937,-0.113281 0.16406,-0.195312 z"
       style="font-size:8px"
       id="path1597"
       inkscape:connector-curvature="0" /></g><g
     transform="matrix(0.96635726,0,0,0.96635726,43.771026,-15.972118)"
     id="g57"><path
       inkscape:connector-curvature="0"
       d="M 7.15,66.79 A 0.6,0.6 0 0 1 7,66.35 v -3.74 a 0.54,0.54 0 0 1 0.59,-0.6 H 10 a 0.71,0.71 0 0 1 0.46,0.13 0.44,0.44 0 0 1 0.15,0.36 Q 10.61,63 10,63 H 8.25 v 0.94 h 1.63 q 0.61,0 0.61,0.5 A 0.44,0.44 0 0 1 10.34,64.8 0.7,0.7 0 0 1 9.89,64.93 H 8.25 v 1 H 10 q 0.61,0 0.61,0.5 A 0.44,0.44 0 0 1 10.46,66.79 0.71,0.71 0 0 1 10,66.92 H 7.59 A 0.6,0.6 0 0 1 7.15,66.79 Z"
       transform="translate(0,18.75)"
       style="fill:#fff7d4"
       id="path51" /><path
       inkscape:connector-curvature="0"
       d="M 16,66.4 A 0.56,0.56 0 0 1 15.81,66.82 0.59,0.59 0 0 1 15.39,67 0.55,0.55 0 0 1 14.96,66.79 l -1.2,-1.44 -1.23,1.44 a 0.54,0.54 0 0 1 -0.42,0.21 0.58,0.58 0 0 1 -0.42,-0.18 0.56,0.56 0 0 1 0,-0.8 l 1.34,-1.55 -1.31,-1.52 a 0.58,0.58 0 0 1 -0.15,-0.38 0.56,0.56 0 0 1 0.19,-0.42 0.59,0.59 0 0 1 0.44,-0.15 0.55,0.55 0 0 1 0.43,0.21 l 1.18,1.4 1.19,-1.43 a 0.51,0.51 0 0 1 0.4,-0.18 0.59,0.59 0 0 1 0.42,0.18 0.56,0.56 0 0 1 0.19,0.42 0.58,0.58 0 0 1 -0.15,0.38 L 14.55,64.5 15.89,66 A 0.57,0.57 0 0 1 16,66.4 Z"
       transform="translate(0,18.75)"
       style="fill:#fff7d4"
       id="path53" /><path
       inkscape:connector-curvature="0"
       d="m 18.64,66.81 a 0.61,0.61 0 0 1 -0.18,-0.46 v -3.3 h -1 A 0.69,0.69 0 0 1 17,62.92 0.49,0.49 0 0 1 16.85,62.52 0.48,0.48 0 0 1 17,62.13 0.7,0.7 0 0 1 17.46,62 h 3.28 a 0.7,0.7 0 0 1 0.46,0.13 0.48,0.48 0 0 1 0.15,0.39 0.49,0.49 0 0 1 -0.15,0.4 0.69,0.69 0 0 1 -0.46,0.13 h -1 v 3.3 a 0.61,0.61 0 0 1 -0.18,0.46 0.74,0.74 0 0 1 -0.95,0 z"
       transform="translate(0,18.75)"
       style="fill:#fff7d4"
       id="path55" /></g><g
     inkscape:groupmode="layer"
     id="layer1"
     inkscape:label="Layer 1"
     style="display:none"><rect
       style="opacity:1;vector-effect:none;fill:#cccec9;fill-opacity:1;stroke:none;stroke-width:0.75;stroke-linecap:butt;stroke-linejoin:miter;stroke-miterlimit:4;stroke-dasharray:none;stroke-dashoffset:0;stroke-opacity:1;paint-order:normal"
       id="rect874"
       width="0.98805201"
       height="18.608313"
       x="104.50597"
       y="61.129848" /></g></svg>