<?xml version="1.0" encoding="UTF-8" standalone="no"?>
<!-- Created with Inkscape (http://www.inkscape.org/) -->

<svg
   xmlns:dc="http://purl.org/dc/elements/1.1/"
   xmlns:cc="http://creativecommons.org/ns#"
   xmlns:rdf="http://www.w3.org/1999/02/22-rdf-syntax-ns#"
   xmlns:svg="http://www.w3.org/2000/svg"
   xmlns="http://www.w3.org/2000/svg"
   xmlns:sodipodi="http://sodipodi.sourceforge.net/DTD/sodipodi-0.dtd"
   xmlns:inkscape="http://www.inkscape.org/namespaces/inkscape"
   width="90"
   height="380"
   viewBox="0 0 23.812502 100.54168"
   version="1.1"
   id="svg8"
   inkscape:version="0.92.2 5c3e80d, 2017-08-06"
   sodipodi:docname="WaveShaper.svg">
  <defs
     id="defs2" />
  <sodipodi:namedview
     id="base"
     pagecolor="#ffffff"
     bordercolor="#666666"
     borderopacity="1.0"
     inkscape:pageopacity="0.0"
     inkscape:pageshadow="2"
     inkscape:zoom="10.229594"
     inkscape:cx="53.508287"
     inkscape:cy="59.972376"
     inkscape:document-units="mm"
     inkscape:current-layer="layer1"
     showgrid="false"
     units="px"
     inkscape:snap-bbox="true"
     inkscape:snap-page="true"
     inkscape:bbox-nodes="true"
     inkscape:snap-bbox-edge-midpoints="true"
     inkscape:window-width="1608"
     inkscape:window-height="1263"
     inkscape:window-x="59"
     inkscape:window-y="0"
     inkscape:window-maximized="0" />
  <metadata
     id="metadata5">
    <rdf:RDF>
      <cc:Work
         rdf:about="">
        <dc:format>image/svg+xml</dc:format>
        <dc:type
           rdf:resource="http://purl.org/dc/dcmitype/StillImage" />
        <dc:title />
      </cc:Work>
    </rdf:RDF>
  </metadata>
  <g
     inkscape:groupmode="layer"
     id="layer2"
     inkscape:label="background">
    <g
       id="g176"
       transform="matrix(0.26752611,0,0,0.26458333,-60.46898,0)"
       style="fill:#44423e;fill-opacity:1">
      <path
         style="fill:#44423e;fill-opacity:1;stroke-width:1.00554574"
         d="M 105.0957,0 V 47.439453 51.25 54.185547 55.410156 321.10938 322.33984 380 h 90 V 322.33984 321.15039 54.185547 51.25 47.400391 0 Z"
         transform="matrix(0.98900004,0,0,1,122.09056,0)"
         id="polygon168"
         inkscape:connector-curvature="0" />
    </g>
    <g
       style="fill:#3c3835;fill-opacity:1"
       id="g1898"
       data-name="Layer 2"
       transform="matrix(2.0981223,0,0,2.0981223,-113.92693,-706.23001)">
      <g
         style="fill:#3c3835;fill-opacity:1"
         id="g1896"
         data-name="Layer 1-2">
        <path
           id="path1894"
           class="cls-4"
           d="m 71.31,357 a 0.91,0.91 0 0 0 -0.41,-0.53 0.77,0.77 0 0 0 -0.64,-0.1 0.91,0.91 0 0 0 -0.53,0.41 43.94,43.94 0 0 1 -3.33,5.08 21.5,21.5 0 0 1 -2.08,-6.45 v -0.39 l 2,-2.81 c 0.24,-0.34 1.26,-1.56 -0.78,-2.45 a 3.15,3.15 0 0 0 -2.36,0.07 c -2.32,1 -1.92,4.26 -1.85,4.79 q 0,0.31 0.09,0.62 l -3.78,6.22 c 0,0 0.49,-3.26 0.58,-3.85 A 1.36,1.36 0 0 0 57.1,356 c -1,-0.24 -1.61,0.06 -2.27,2.65 -0.56,2.19 -2.54,7.64 -3.86,7.6 -0.78,0 -0.24,-3.41 0.68,-5.87 1.12,-2.95 3.78,-7 6.78,-8.83 0.69,-0.43 1.6,-1.5 0.66,-2.56 -1.19,-1.34 -2.46,-0.28 -3,0.13 a 14.68,14.68 0 0 0 -3.49,4.35 22.82,22.82 0 0 0 -2.81,6.33 c -1,3.25 -2.07,8.54 0.1,8.74 3,0.27 5.39,-5.56 5.39,-5.56 0,0 -0.13,3.05 1.4,3.13 1.53,0.08 4.51,-5.9 5.36,-7.92 a 22.36,22.36 0 0 0 2.5,5.55 2.87,2.87 0 0 1 0.14,0.39 c -0.34,0.47 -3.77,4.86 -4.77,7.5 a 0.82,0.82 0 0 0 0,0.72 0.79,0.79 0 0 0 0.5,0.42 1.12,1.12 0 0 0 0.74,-0.12 5.53,5.53 0 0 0 0.66,-0.35 c 4.83,-2.78 5.52,-6 5.17,-8.48 a 2.08,2.08 0 0 1 0.26,-0.4 42.2,42.2 0 0 0 3.89,-5.77 0.76,0.76 0 0 0 0.18,-0.65 z"
           inkscape:connector-curvature="0"
           style="fill:#3c3835;fill-opacity:1" />
      </g>
    </g>
    <rect
       y="95.25"
       x="4.3505861e-06"
       height="5.2916665"
       width="23.8125"
       id="rect1996"
       style="opacity:1;vector-effect:none;fill:#3c3835;fill-opacity:1;stroke:none;stroke-width:0.25762081;stroke-linecap:butt;stroke-linejoin:miter;stroke-miterlimit:4;stroke-dasharray:none;stroke-dashoffset:0;stroke-opacity:1" />
    <circle
       r="4"
       cy="95.218727"
       cx="11.906255"
       id="circle1732"
       style="opacity:1;vector-effect:none;fill:#3c3835;fill-opacity:1;stroke:none;stroke-width:0.19682446;stroke-linecap:butt;stroke-linejoin:miter;stroke-miterlimit:4;stroke-dasharray:none;stroke-dashoffset:0;stroke-opacity:1" />
    <g
       transform="matrix(0.17622025,0,0,0.17622025,1.337589,31.483538)"
       data-name="Layer 2"
       id="g1738"
       style="fill:#fff7d4;fill-opacity:1">
      <g
         data-name="Layer 1-2"
         id="g1736"
         style="fill:#fff7d4;fill-opacity:1">
        <path
           style="fill:#fff7d4;fill-opacity:1"
           inkscape:connector-curvature="0"
           d="m 71.31,357 a 0.91,0.91 0 0 0 -0.41,-0.53 0.77,0.77 0 0 0 -0.64,-0.1 0.91,0.91 0 0 0 -0.53,0.41 43.94,43.94 0 0 1 -3.33,5.08 21.5,21.5 0 0 1 -2.08,-6.45 v -0.39 l 2,-2.81 c 0.24,-0.34 1.26,-1.56 -0.78,-2.45 a 3.15,3.15 0 0 0 -2.36,0.07 c -2.32,1 -1.92,4.26 -1.85,4.79 q 0,0.31 0.09,0.62 l -3.78,6.22 c 0,0 0.49,-3.26 0.58,-3.85 A 1.36,1.36 0 0 0 57.1,356 c -1,-0.24 -1.61,0.06 -2.27,2.65 -0.56,2.19 -2.54,7.64 -3.86,7.6 -0.78,0 -0.24,-3.41 0.68,-5.87 1.12,-2.95 3.78,-7 6.78,-8.83 0.69,-0.43 1.6,-1.5 0.66,-2.56 -1.19,-1.34 -2.46,-0.28 -3,0.13 a 14.68,14.68 0 0 0 -3.49,4.35 22.82,22.82 0 0 0 -2.81,6.33 c -1,3.25 -2.07,8.54 0.1,8.74 3,0.27 5.39,-5.56 5.39,-5.56 0,0 -0.13,3.05 1.4,3.13 1.53,0.08 4.51,-5.9 5.36,-7.92 a 22.36,22.36 0 0 0 2.5,5.55 2.87,2.87 0 0 1 0.14,0.39 c -0.34,0.47 -3.77,4.86 -4.77,7.5 a 0.82,0.82 0 0 0 0,0.72 0.79,0.79 0 0 0 0.5,0.42 1.12,1.12 0 0 0 0.74,-0.12 5.53,5.53 0 0 0 0.66,-0.35 c 4.83,-2.78 5.52,-6 5.17,-8.48 a 2.08,2.08 0 0 1 0.26,-0.4 42.2,42.2 0 0 0 3.89,-5.77 0.76,0.76 0 0 0 0.18,-0.65 z"
           class="cls-4"
           id="path1734" />
      </g>
    </g>
    <rect
       style="opacity:1;vector-effect:none;fill:#3c3835;fill-opacity:1;stroke:none;stroke-width:0.25762081;stroke-linecap:butt;stroke-linejoin:miter;stroke-miterlimit:4;stroke-dasharray:none;stroke-dashoffset:0;stroke-opacity:1"
       id="rect1998"
       width="23.8125"
       height="5.2916665"
       x="4.3505861e-06"
       y="2.6458333e-06" />
  </g>
  <g
     inkscape:label="Layer 1"
     inkscape:groupmode="layer"
     id="layer1"
     transform="translate(0,-196.45831)">
    <path
       style="opacity:1;vector-effect:none;fill:#a4a4a4;fill-opacity:1;fill-rule:evenodd;stroke:none;stroke-width:0.02557042;stroke-linecap:butt;stroke-linejoin:round;stroke-miterlimit:4;stroke-dasharray:none;stroke-dashoffset:0;stroke-opacity:1;paint-order:normal"
       d="m 0,297.97637 h 3.96875 v 1.66944 H 0 Z"
       id="path869"
       inkscape:connector-curvature="0" />
    <path
       inkscape:connector-curvature="0"
       id="path929"
       d="M 3.96875,297.97637 H 7.9375 v 1.66944 H 3.96875 Z"
       style="opacity:0.95;vector-effect:none;fill:#857a7a;fill-opacity:1;fill-rule:evenodd;stroke:none;stroke-width:0.02557042;stroke-linecap:butt;stroke-linejoin:round;stroke-miterlimit:4;stroke-dasharray:none;stroke-dashoffset:0;stroke-opacity:1;paint-order:normal" />
    <path
       inkscape:connector-curvature="0"
       id="path931"
       d="m 7.8970061,297.97637 h 3.9687499 v 1.66944 H 7.8970061 Z"
       style="opacity:1;vector-effect:none;fill:#a4a4a4;fill-opacity:1;fill-rule:evenodd;stroke:none;stroke-width:0.02557042;stroke-linecap:butt;stroke-linejoin:round;stroke-miterlimit:4;stroke-dasharray:none;stroke-dashoffset:0;stroke-opacity:1;paint-order:normal" />
    <path
       style="opacity:0.95;vector-effect:none;fill:#857a7a;fill-opacity:1;fill-rule:evenodd;stroke:none;stroke-width:0.02557042;stroke-linecap:butt;stroke-linejoin:round;stroke-miterlimit:4;stroke-dasharray:none;stroke-dashoffset:0;stroke-opacity:1;paint-order:normal"
       d="m 11.865756,297.97637 h 3.96875 v 1.66944 h -3.96875 z"
       id="path933"
       inkscape:connector-curvature="0" />
    <path
       inkscape:connector-curvature="0"
       id="path939"
       d="m 15.834506,297.97637 h 3.96875 v 1.66944 h -3.96875 z"
       style="opacity:1;vector-effect:none;fill:#a4a4a4;fill-opacity:1;fill-rule:evenodd;stroke:none;stroke-width:0.02557042;stroke-linecap:butt;stroke-linejoin:round;stroke-miterlimit:4;stroke-dasharray:none;stroke-dashoffset:0;stroke-opacity:1;paint-order:normal" />
    <path
       style="opacity:0.95;vector-effect:none;fill:#857a7a;fill-opacity:1;fill-rule:evenodd;stroke:none;stroke-width:0.02557042;stroke-linecap:butt;stroke-linejoin:round;stroke-miterlimit:4;stroke-dasharray:none;stroke-dashoffset:0;stroke-opacity:1;paint-order:normal"
       d="m 19.803256,297.97637 h 3.96875 v 1.66944 h -3.96875 z"
       id="path941"
       inkscape:connector-curvature="0" />
    <path
       style="opacity:1;vector-effect:none;fill:#a4a4a4;fill-opacity:1;fill-rule:evenodd;stroke:none;stroke-width:0.02557042;stroke-linecap:butt;stroke-linejoin:round;stroke-miterlimit:4;stroke-dasharray:none;stroke-dashoffset:0;stroke-opacity:1;paint-order:normal"
       d="m 23.731512,297.97637 h 3.96875 v 1.66944 h -3.96875 z"
       id="path943"
       inkscape:connector-curvature="0" />
    <path
       inkscape:connector-curvature="0"
       id="path945"
       d="m 27.700262,297.97637 h 3.96875 v 1.66944 h -3.96875 z"
       style="opacity:0.95;vector-effect:none;fill:#857a7a;fill-opacity:1;fill-rule:evenodd;stroke:none;stroke-width:0.02557042;stroke-linecap:butt;stroke-linejoin:round;stroke-miterlimit:4;stroke-dasharray:none;stroke-dashoffset:0;stroke-opacity:1;paint-order:normal" />
    <path
       style="opacity:1;vector-effect:none;fill:#a4a4a4;fill-opacity:1;fill-rule:evenodd;stroke:none;stroke-width:0.02557042;stroke-linecap:butt;stroke-linejoin:round;stroke-miterlimit:4;stroke-dasharray:none;stroke-dashoffset:0;stroke-opacity:1;paint-order:normal"
       d="m 31.669012,297.97637 h 3.96875 v 1.66944 h -3.96875 z"
       id="path947"
       inkscape:connector-curvature="0" />
    <path
       inkscape:connector-curvature="0"
       id="path949"
       d="m 35.637762,297.97637 h 3.96875 v 1.66944 h -3.96875 z"
       style="opacity:0.95;vector-effect:none;fill:#857a7a;fill-opacity:1;fill-rule:evenodd;stroke:none;stroke-width:0.02557042;stroke-linecap:butt;stroke-linejoin:round;stroke-miterlimit:4;stroke-dasharray:none;stroke-dashoffset:0;stroke-opacity:1;paint-order:normal" />
    <rect
       style="opacity:1;vector-effect:none;fill:#000000;fill-opacity:1;stroke:none;stroke-width:0.15187515;stroke-linecap:butt;stroke-linejoin:miter;stroke-miterlimit:4;stroke-dasharray:none;stroke-dashoffset:0;stroke-opacity:1"
       id="rect861"
       width="5"
       height="2.5"
       x="3.5039999"
       y="197.19998"
       ry="1.3924577" />
    <rect
       ry="1.3924577"
       y="293.89999"
       x="3.5039999"
       height="2.5"
       width="5"
       id="rect863"
       style="opacity:1;vector-effect:none;fill:#000000;fill-opacity:1;stroke:none;stroke-width:0.15187515;stroke-linecap:butt;stroke-linejoin:miter;stroke-miterlimit:4;stroke-dasharray:none;stroke-dashoffset:0;stroke-opacity:1" />
    <path
       style="opacity:1;vector-effect:none;fill:#000000;fill-opacity:1;stroke:none;stroke-width:0.15187515;stroke-linecap:butt;stroke-linejoin:miter;stroke-miterlimit:4;stroke-dasharray:none;stroke-dashoffset:0;stroke-opacity:1"
       d="m 16.731163,197.19983 c -0.771422,0 -1.392164,0.55756 -1.392164,1.25006 0,0.6925 0.620742,1.25005 1.392164,1.25005 h 2.215369 c 0.771422,0 1.392161,-0.55755 1.392161,-1.25005 0,-0.6925 -0.620739,-1.25006 -1.392161,-1.25006 z"
       id="path1191"
       inkscape:connector-curvature="0" />
    <path
       style="opacity:1;vector-effect:none;fill:#000000;fill-opacity:1;stroke:none;stroke-width:0.15187515;stroke-linecap:butt;stroke-linejoin:miter;stroke-miterlimit:4;stroke-dasharray:none;stroke-dashoffset:0;stroke-opacity:1"
       d="m 16.731163,293.89991 c -0.771422,0 -1.392164,0.55755 -1.392164,1.25005 0,0.6925 0.620742,1.25005 1.392164,1.25005 h 2.215369 c 0.771422,0 1.392161,-0.55755 1.392161,-1.25005 0,-0.6925 -0.620739,-1.25005 -1.392161,-1.25005 z"
       id="rect865"
       inkscape:connector-curvature="0" />
    <g
       aria-label="-"
       style="font-style:normal;font-variant:normal;font-weight:bold;font-stretch:condensed;font-size:3.52777767px;line-height:1.25;font-family:'DIN Condensed';-inkscape-font-specification:'DIN Condensed, Bold Condensed';font-variant-ligatures:normal;font-variant-caps:normal;font-variant-numeric:normal;font-feature-settings:normal;text-align:start;letter-spacing:0px;word-spacing:0px;writing-mode:lr-tb;text-anchor:start;fill:#fff7d4;fill-opacity:1;stroke:none;stroke-width:0.26458332"
       id="text884"
       transform="matrix(0.84030789,0,0,0.84030789,-0.3538346,40.801913)">
      <path
         d="m 8.391495,235.43578 h 1.0618611 v 0.35984 H 8.391495 Z"
         style="font-style:normal;font-variant:normal;font-weight:bold;font-stretch:condensed;font-size:3.52777767px;font-family:'DIN Condensed';-inkscape-font-specification:'DIN Condensed, Bold Condensed';font-variant-ligatures:normal;font-variant-caps:normal;font-variant-numeric:normal;font-feature-settings:normal;text-align:start;writing-mode:lr-tb;text-anchor:start;fill:#fff7d4;fill-opacity:1;stroke-width:0.26458332"
         id="path893"
         inkscape:connector-curvature="0" />
    </g>
    <g
       aria-label="+"
       style="font-style:normal;font-variant:normal;font-weight:bold;font-stretch:condensed;font-size:3.52777767px;line-height:1.25;font-family:'DIN Condensed';-inkscape-font-specification:'DIN Condensed, Bold Condensed';font-variant-ligatures:normal;font-variant-caps:normal;font-variant-numeric:normal;font-feature-settings:normal;text-align:start;letter-spacing:0px;word-spacing:0px;writing-mode:lr-tb;text-anchor:start;fill:#fff7d4;fill-opacity:1;stroke:none;stroke-width:0.26458332"
       id="text888"
       transform="matrix(0.84030789,0,0,0.84030789,4.4117888,40.730764)">
      <path
         d="m 14.445163,234.80784 h 0.282222 v 0.75142 h 0.751417 v 0.28222 h -0.751417 v 0.75142 h -0.282222 v -0.75142 h -0.751417 v -0.28222 h 0.751417 z"
         style="font-style:normal;font-variant:normal;font-weight:bold;font-stretch:condensed;font-size:3.52777767px;font-family:'DIN Condensed';-inkscape-font-specification:'DIN Condensed, Bold Condensed';font-variant-ligatures:normal;font-variant-caps:normal;font-variant-numeric:normal;font-feature-settings:normal;text-align:start;writing-mode:lr-tb;text-anchor:start;fill:#fff7d4;fill-opacity:1;stroke-width:0.26458332"
         id="path890"
         inkscape:connector-curvature="0" />
    </g>
    <g
       transform="matrix(0,0.84030789,-0.84030789,0,209.89598,220.71071)"
       id="g900"
       style="font-style:normal;font-variant:normal;font-weight:bold;font-stretch:condensed;font-size:3.52777767px;line-height:1.25;font-family:'DIN Condensed';-inkscape-font-specification:'DIN Condensed, Bold Condensed';font-variant-ligatures:normal;font-variant-caps:normal;font-variant-numeric:normal;font-feature-settings:normal;text-align:start;letter-spacing:0px;word-spacing:0px;writing-mode:lr-tb;text-anchor:start;fill:#fff7d4;fill-opacity:1;stroke:none;stroke-width:0.26458332"
       aria-label="-">
      <path
         inkscape:connector-curvature="0"
         id="path898"
         style="font-style:normal;font-variant:normal;font-weight:bold;font-stretch:condensed;font-size:3.52777767px;font-family:'DIN Condensed';-inkscape-font-specification:'DIN Condensed, Bold Condensed';font-variant-ligatures:normal;font-variant-caps:normal;font-variant-numeric:normal;font-feature-settings:normal;text-align:start;writing-mode:lr-tb;text-anchor:start;fill:#fff7d4;fill-opacity:1;stroke-width:0.26458332"
         d="m 8.391495,235.43578 h 1.0618611 v 0.35984 H 8.391495 Z" />
    </g>
    <g
       transform="matrix(0.26458333,0,0,0.26458333,1.8374544,197.00306)"
       id="g42"
       style="fill:#fff7d4;fill-opacity:1">
      <path
         inkscape:connector-curvature="0"
         d="M 20.68,47.31 A 0.91,0.91 0 0 1 21.77,47.38 0.74,0.74 0 0 1 22,48 1.25,1.25 0 0 1 21.93,48.4 l -2.5,6.83 a 0.87,0.87 0 0 1 -0.38,0.45 1.13,1.13 0 0 1 -0.59,0.16 1.1,1.1 0 0 1 -0.59,-0.16 0.87,0.87 0 0 1 -0.37,-0.45 l -1.79,-5.05 -1.84,5.05 a 0.88,0.88 0 0 1 -0.37,0.45 1.14,1.14 0 0 1 -1.17,0 0.87,0.87 0 0 1 -0.38,-0.45 L 9.45,48.4 A 1.16,1.16 0 0 1 9.4,48 a 0.74,0.74 0 0 1 0.26,-0.59 1,1 0 0 1 1.15,-0.07 0.86,0.86 0 0 1 0.34,0.44 l 1.85,5.28 1.92,-5.29 a 0.89,0.89 0 0 1 0.34,-0.44 0.88,0.88 0 0 1 1,0 0.9,0.9 0 0 1 0.34,0.46 l 1.84,5.38 1.91,-5.41 a 0.88,0.88 0 0 1 0.33,-0.45 z"
         transform="translate(-7.25,-14.98)"
         style="fill:#fff7d4;fill-opacity:1"
         id="path22" />
      <path
         inkscape:connector-curvature="0"
         d="m 26.95,50.3 a 2.64,2.64 0 0 1 0.62,1.93 v 2.71 a 0.82,0.82 0 0 1 -0.23,0.62 0.87,0.87 0 0 1 -0.64,0.22 0.83,0.83 0 0 1 -0.62,-0.23 0.82,0.82 0 0 1 -0.23,-0.61 v -0.08 a 1.41,1.41 0 0 1 -0.6,0.7 1.88,1.88 0 0 1 -1,0.25 2.42,2.42 0 0 1 -1.09,-0.24 1.9,1.9 0 0 1 -0.77,-0.67 1.72,1.72 0 0 1 -0.28,-1 1.48,1.48 0 0 1 0.33,-1 2,2 0 0 1 1.06,-0.54 9.39,9.39 0 0 1 2,-0.17 h 0.31 V 52 a 1,1 0 0 0 -0.22,-0.73 1,1 0 0 0 -0.74,-0.23 4.71,4.71 0 0 0 -1.49,0.36 1.13,1.13 0 0 1 -0.47,0.13 0.52,0.52 0 0 1 -0.42,-0.19 0.73,0.73 0 0 1 -0.16,-0.49 0.68,0.68 0 0 1 0.11,-0.4 1,1 0 0 1 0.35,-0.29 3.89,3.89 0 0 1 1,-0.36 5.61,5.61 0 0 1 1.23,-0.13 2.6,2.6 0 0 1 1.95,0.63 z m -1.43,3.9 a 1.31,1.31 0 0 0 0.32,-0.92 v -0.2 h -0.2 a 4.11,4.11 0 0 0 -1.36,0.16 0.56,0.56 0 0 0 -0.39,0.56 0.72,0.72 0 0 0 0.22,0.55 0.78,0.78 0 0 0 0.56,0.21 1.1,1.1 0 0 0 0.85,-0.36 z"
         transform="translate(-7.25,-14.98)"
         style="fill:#fff7d4;fill-opacity:1"
         id="path24" />
      <path
         inkscape:connector-curvature="0"
         d="m 33.26,49.83 a 0.78,0.78 0 0 1 0.43,-0.13 0.91,0.91 0 0 1 0.6,0.22 0.68,0.68 0 0 1 0.26,0.53 0.77,0.77 0 0 1 -0.08,0.35 l -2.16,4.43 a 0.86,0.86 0 0 1 -0.36,0.4 1,1 0 0 1 -1,0 0.93,0.93 0 0 1 -0.37,-0.4 L 28.42,50.8 a 0.82,0.82 0 0 1 -0.07,-0.32 0.69,0.69 0 0 1 0.28,-0.55 1,1 0 0 1 0.63,-0.23 0.85,0.85 0 0 1 0.46,0.13 0.87,0.87 0 0 1 0.32,0.38 l 1.48,3.23 1.46,-3.23 a 0.88,0.88 0 0 1 0.28,-0.38 z"
         transform="translate(-7.25,-14.98)"
         style="fill:#fff7d4;fill-opacity:1"
         id="path26" />
      <path
         inkscape:connector-curvature="0"
         d="m 40.33,54.14 a 0.77,0.77 0 0 1 0.15,0.49 0.65,0.65 0 0 1 -0.12,0.38 1,1 0 0 1 -0.34,0.29 4.29,4.29 0 0 1 -0.95,0.35 4.05,4.05 0 0 1 -1,0.14 3.57,3.57 0 0 1 -1.67,-0.37 2.6,2.6 0 0 1 -1.1,-1.06 3.29,3.29 0 0 1 -0.38,-1.63 3.33,3.33 0 0 1 0.37,-1.6 2.73,2.73 0 0 1 1,-1.09 2.89,2.89 0 0 1 1.5,-0.39 2.75,2.75 0 0 1 1.41,0.35 2.42,2.42 0 0 1 0.94,1 3.31,3.31 0 0 1 0.34,1.53 0.58,0.58 0 0 1 -0.13,0.4 0.45,0.45 0 0 1 -0.35,0.14 h -3.32 a 1.6,1.6 0 0 0 0.43,1 1.42,1.42 0 0 0 1,0.32 2.14,2.14 0 0 0 0.62,-0.08 6,6 0 0 0 0.61,-0.23 l 0.32,-0.13 a 0.87,0.87 0 0 1 0.28,-0.05 0.47,0.47 0 0 1 0.39,0.24 z m -3.28,-2.9 a 1.56,1.56 0 0 0 -0.37,1 H 39 a 1.57,1.57 0 0 0 -0.32,-1 1,1 0 0 0 -0.8,-0.32 1.09,1.09 0 0 0 -0.83,0.32 z"
         transform="translate(-7.25,-14.98)"
         style="fill:#fff7d4;fill-opacity:1"
         id="path28" />
      <path
         inkscape:connector-curvature="0"
         d="M 43,55.59 A 3.68,3.68 0 0 1 41.71,55 a 0.84,0.84 0 0 1 -0.26,-0.28 0.88,0.88 0 0 1 0.11,-0.91 0.54,0.54 0 0 1 0.43,-0.23 0.82,0.82 0 0 1 0.26,0 1.62,1.62 0 0 1 0.31,0.15 4,4 0 0 0 1,0.47 4.25,4.25 0 0 0 1.16,0.15 2.29,2.29 0 0 0 1.28,-0.26 0.84,0.84 0 0 0 0.42,-0.76 0.68,0.68 0 0 0 -0.39,-0.6 5,5 0 0 0 -1.39,-0.43 7.66,7.66 0 0 1 -1.78,-0.55 2.31,2.31 0 0 1 -1,-0.8 2.12,2.12 0 0 1 -0.31,-1.16 2.26,2.26 0 0 1 0.45,-1.37 2.9,2.9 0 0 1 1.21,-0.95 4.27,4.27 0 0 1 1.75,-0.34 4.46,4.46 0 0 1 2.81,0.85 0.92,0.92 0 0 1 0.26,0.29 0.78,0.78 0 0 1 0.08,0.37 0.81,0.81 0 0 1 -0.19,0.53 0.54,0.54 0 0 1 -0.43,0.23 0.82,0.82 0 0 1 -0.25,0 1.72,1.72 0 0 1 -0.32,-0.16 5.06,5.06 0 0 0 -0.91,-0.47 3,3 0 0 0 -1.01,-0.18 2,2 0 0 0 -1.15,0.28 0.88,0.88 0 0 0 -0.42,0.77 0.7,0.7 0 0 0 0.16,0.47 1.35,1.35 0 0 0 0.54,0.33 8.31,8.31 0 0 0 1.07,0.3 6,6 0 0 1 2.35,0.92 1.87,1.87 0 0 1 0.71,1.55 2.26,2.26 0 0 1 -0.43,1.36 2.75,2.75 0 0 1 -1.2,0.91 A 4.62,4.62 0 0 1 44.84,55.8 6.7,6.7 0 0 1 43,55.59 Z"
         transform="translate(-7.25,-14.98)"
         style="fill:#fff7d4;fill-opacity:1"
         id="path30" />
      <path
         inkscape:connector-curvature="0"
         d="m 55.21,52.15 v 2.77 a 0.81,0.81 0 0 1 -0.25,0.62 0.94,0.94 0 0 1 -0.67,0.23 0.92,0.92 0 0 1 -0.66,-0.23 0.82,0.82 0 0 1 -0.24,-0.62 v -2.8 a 1.18,1.18 0 0 0 -0.22,-0.79 0.86,0.86 0 0 0 -0.69,-0.26 1.19,1.19 0 0 0 -0.91,0.36 1.34,1.34 0 0 0 -0.34,1 v 2.52 a 0.82,0.82 0 0 1 -0.24,0.62 0.92,0.92 0 0 1 -0.66,0.23 0.94,0.94 0 0 1 -0.67,-0.23 0.81,0.81 0 0 1 -0.25,-0.62 V 48 a 0.76,0.76 0 0 1 0.26,-0.6 1,1 0 0 1 0.68,-0.23 0.91,0.91 0 0 1 0.64,0.22 0.74,0.74 0 0 1 0.24,0.58 v 2.62 a 2,2 0 0 1 0.8,-0.69 2.57,2.57 0 0 1 1.12,-0.23 q 2.06,0 2.06,2.48 z"
         transform="translate(-7.25,-14.98)"
         style="fill:#fff7d4;fill-opacity:1"
         id="path32" />
      <path
         inkscape:connector-curvature="0"
         d="m 61.13,50.3 a 2.64,2.64 0 0 1 0.62,1.93 v 2.71 a 0.82,0.82 0 0 1 -0.23,0.62 0.87,0.87 0 0 1 -0.64,0.22 0.83,0.83 0 0 1 -0.62,-0.23 0.82,0.82 0 0 1 -0.23,-0.61 v -0.08 a 1.42,1.42 0 0 1 -0.6,0.7 1.88,1.88 0 0 1 -1,0.25 2.42,2.42 0 0 1 -1.09,-0.24 1.89,1.89 0 0 1 -0.77,-0.67 1.72,1.72 0 0 1 -0.28,-1 1.48,1.48 0 0 1 0.33,-1 2,2 0 0 1 1.06,-0.54 9.4,9.4 0 0 1 2,-0.17 H 60 V 52 a 1,1 0 0 0 -0.22,-0.73 1,1 0 0 0 -0.74,-0.23 4.72,4.72 0 0 0 -1.49,0.36 1.13,1.13 0 0 1 -0.47,0.13 0.52,0.52 0 0 1 -0.42,-0.19 0.73,0.73 0 0 1 -0.16,-0.49 0.68,0.68 0 0 1 0.11,-0.4 1,1 0 0 1 0.35,-0.29 3.89,3.89 0 0 1 1,-0.36 5.6,5.6 0 0 1 1.19,-0.13 2.6,2.6 0 0 1 1.98,0.63 z m -1.43,3.9 a 1.31,1.31 0 0 0 0.32,-0.92 v -0.2 h -0.2 a 4.11,4.11 0 0 0 -1.36,0.16 0.56,0.56 0 0 0 -0.39,0.56 0.72,0.72 0 0 0 0.22,0.55 0.78,0.78 0 0 0 0.56,0.21 1.1,1.1 0 0 0 0.86,-0.36 z"
         transform="translate(-7.25,-14.98)"
         style="fill:#fff7d4;fill-opacity:1"
         id="path34" />
      <path
         inkscape:connector-curvature="0"
         d="m 68.11,50.06 a 2.6,2.6 0 0 1 0.89,1.09 3.76,3.76 0 0 1 0.33,1.61 3.68,3.68 0 0 1 -0.33,1.6 2.42,2.42 0 0 1 -2.27,1.43 2.38,2.38 0 0 1 -1.09,-0.25 1.79,1.79 0 0 1 -0.75,-0.69 v 2.27 a 0.74,0.74 0 0 1 -0.24,0.58 0.91,0.91 0 0 1 -0.64,0.22 1,1 0 0 1 -0.68,-0.23 0.76,0.76 0 0 1 -0.26,-0.6 v -6.55 a 0.81,0.81 0 0 1 0.25,-0.62 0.91,0.91 0 0 1 0.65,-0.23 0.89,0.89 0 0 1 0.65,0.23 0.82,0.82 0 0 1 0.24,0.62 v 0.1 a 1.83,1.83 0 0 1 0.76,-0.71 2.34,2.34 0 0 1 1.1,-0.26 2.41,2.41 0 0 1 1.39,0.39 z M 67.22,54 a 1.9,1.9 0 0 0 0.35,-1.23 2,2 0 0 0 -0.35,-1.27 1.17,1.17 0 0 0 -1,-0.45 1.18,1.18 0 0 0 -1,0.44 2,2 0 0 0 -0.35,1.25 2,2 0 0 0 0.38,1.26 1.18,1.18 0 0 0 1,0.44 1.2,1.2 0 0 0 0.97,-0.44 z"
         transform="translate(-7.25,-14.98)"
         style="fill:#fff7d4;fill-opacity:1"
         id="path36" />
      <path
         inkscape:connector-curvature="0"
         d="m 75.59,54.14 a 0.78,0.78 0 0 1 0.15,0.49 0.65,0.65 0 0 1 -0.12,0.38 1,1 0 0 1 -0.34,0.29 4.27,4.27 0 0 1 -0.95,0.35 4,4 0 0 1 -1,0.14 3.58,3.58 0 0 1 -1.67,-0.37 2.61,2.61 0 0 1 -1.1,-1.06 3.29,3.29 0 0 1 -0.38,-1.63 3.33,3.33 0 0 1 0.37,-1.6 2.73,2.73 0 0 1 1,-1.09 2.9,2.9 0 0 1 1.5,-0.39 2.74,2.74 0 0 1 1.45,0.35 2.42,2.42 0 0 1 0.94,1 3.31,3.31 0 0 1 0.34,1.53 0.58,0.58 0 0 1 -0.13,0.4 0.45,0.45 0 0 1 -0.35,0.14 h -3.37 a 1.6,1.6 0 0 0 0.43,1 1.43,1.43 0 0 0 1,0.32 2.13,2.13 0 0 0 0.62,-0.08 6.1,6.1 0 0 0 0.61,-0.23 l 0.32,-0.13 a 0.86,0.86 0 0 1 0.29,0.05 0.47,0.47 0 0 1 0.39,0.14 z m -3.28,-2.9 a 1.57,1.57 0 0 0 -0.37,1 h 2.32 a 1.57,1.57 0 0 0 -0.32,-1 1,1 0 0 0 -0.8,-0.32 1.09,1.09 0 0 0 -0.83,0.32 z"
         transform="translate(-7.25,-14.98)"
         style="fill:#fff7d4;fill-opacity:1"
         id="path38" />
      <path
         inkscape:connector-curvature="0"
         d="M 81,49.85 A 0.71,0.71 0 0 1 81.21,50.41 0.8,0.8 0 0 1 81,51 1.12,1.12 0 0 1 80.32,51.24 h -0.36 a 1.37,1.37 0 0 0 -1,0.43 1.41,1.41 0 0 0 -0.29,0.92 v 2.29 a 0.78,0.78 0 0 1 -0.26,0.64 1,1 0 0 1 -0.64,0.22 1,1 0 0 1 -0.65,-0.22 0.78,0.78 0 0 1 -0.26,-0.64 v -4.4 a 0.75,0.75 0 0 1 0.26,-0.61 1,1 0 0 1 0.64,-0.22 0.88,0.88 0 0 1 0.6,0.21 0.73,0.73 0 0 1 0.24,0.58 v 0.32 a 1.67,1.67 0 0 1 0.65,-0.79 2,2 0 0 1 1,-0.31 h 0.17 A 0.75,0.75 0 0 1 81,49.85 Z"
         transform="translate(-7.25,-14.98)"
         style="fill:#fff7d4;fill-opacity:1"
         id="path40" />
    </g>
    <path
       style="display:inline;fill:#fff7d4;fill-opacity:1;stroke:#fff7d4;stroke-width:0.10583333;stroke-linecap:round;stroke-linejoin:round;stroke-miterlimit:10;stroke-opacity:1;stroke-dasharray:none"
       d="m 11.90625,243.74067 v 4.92145"
       id="path27769"
       inkscape:connector-curvature="0" />
    <g
       transform="matrix(0.31605192,0,0,0.31605192,-101.78017,108.1031)"
       id="g482">
      <path
         inkscape:connector-curvature="0"
         d="m 28,247.9 a 2.09,2.09 0 0 1 -0.75,-0.36 0.48,0.48 0 0 1 -0.15,-0.16 0.5,0.5 0 0 1 0.06,-0.51 0.31,0.31 0 0 1 0.24,-0.13 h 0.15 l 0.17,0.08 a 2.28,2.28 0 0 0 0.59,0.27 2.41,2.41 0 0 0 0.66,0.08 1.3,1.3 0 0 0 0.69,-0.15 0.48,0.48 0 0 0 0.24,-0.43 0.39,0.39 0 0 0 -0.22,-0.34 2.85,2.85 0 0 0 -0.79,-0.24 4.34,4.34 0 0 1 -1,-0.31 1.3,1.3 0 0 1 -0.55,-0.46 1.2,1.2 0 0 1 -0.17,-0.66 1.28,1.28 0 0 1 0.25,-0.77 1.65,1.65 0 0 1 0.69,-0.54 2.43,2.43 0 0 1 1,-0.19 2.53,2.53 0 0 1 1.59,0.48 0.54,0.54 0 0 1 0.15,0.17 0.44,0.44 0 0 1 0,0.21 0.46,0.46 0 0 1 -0.11,0.3 0.31,0.31 0 0 1 -0.24,0.13 h -0.14 l -0.18,-0.09 a 2.83,2.83 0 0 0 -0.51,-0.27 1.71,1.71 0 0 0 -0.6,-0.09 1.16,1.16 0 0 0 -0.65,0.16 0.5,0.5 0 0 0 -0.24,0.44 0.39,0.39 0 0 0 0.09,0.27 0.76,0.76 0 0 0 0.31,0.19 4.55,4.55 0 0 0 0.61,0.17 3.38,3.38 0 0 1 1.33,0.52 1.06,1.06 0 0 1 0.4,0.88 1.28,1.28 0 0 1 -0.24,0.77 1.56,1.56 0 0 1 -0.68,0.52 2.61,2.61 0 0 1 -1,0.18 3.81,3.81 0 0 1 -1,-0.12 z"
         transform="translate(319.8,124.29)"
         style="fill:#fff8d5"
         id="path472" />
      <path
         inkscape:connector-curvature="0"
         d="m 36.57,243.28 a 0.51,0.51 0 0 1 0.14,0.38 v 3.81 a 0.53,0.53 0 0 1 -0.14,0.38 0.57,0.57 0 0 1 -0.76,0 0.53,0.53 0 0 1 -0.14,-0.39 v -1.52 h -2.21 v 1.52 a 0.53,0.53 0 0 1 -0.14,0.38 0.5,0.5 0 0 1 -0.37,0.15 0.51,0.51 0 0 1 -0.38,-0.14 0.52,0.52 0 0 1 -0.14,-0.39 v -3.81 a 0.49,0.49 0 0 1 0.52,-0.52 0.5,0.5 0 0 1 0.38,0.14 0.52,0.52 0 0 1 0.14,0.38 v 1.45 h 2.21 v -1.45 a 0.52,0.52 0 0 1 0.14,-0.38 0.5,0.5 0 0 1 0.38,-0.14 0.51,0.51 0 0 1 0.37,0.15 z"
         transform="translate(319.8,124.29)"
         style="fill:#fff8d5"
         id="path474" />
      <path
         inkscape:connector-curvature="0"
         d="m 42.87,247.53 a 0.41,0.41 0 0 1 -0.15,0.32 0.52,0.52 0 0 1 -0.35,0.13 0.46,0.46 0 0 1 -0.24,-0.07 0.45,0.45 0 0 1 -0.18,-0.21 l -0.36,-0.8 h -2.31 l -0.36,0.8 a 0.46,0.46 0 0 1 -0.17,0.21 0.45,0.45 0 0 1 -0.25,0.07 0.53,0.53 0 0 1 -0.35,-0.13 0.41,0.41 0 0 1 -0.16,-0.32 0.55,0.55 0 0 1 0.05,-0.22 l 1.84,-3.86 a 0.54,0.54 0 0 1 0.22,-0.25 0.65,0.65 0 0 1 0.65,0 0.6,0.6 0 0 1 0.23,0.25 l 1.84,3.86 a 0.54,0.54 0 0 1 0.05,0.22 z m -3.23,-1.44 h 1.58 l -0.79,-1.77 z"
         transform="translate(319.8,124.29)"
         style="fill:#fff8d5"
         id="path476" />
      <path
         inkscape:connector-curvature="0"
         d="m 44.28,247.86 a 0.52,0.52 0 0 1 -0.14,-0.39 v -3.81 a 0.45,0.45 0 0 1 0.5,-0.5 h 1.71 a 1.75,1.75 0 0 1 1.22,0.39 1.61,1.61 0 0 1 0,2.2 1.75,1.75 0 0 1 -1.22,0.39 h -1.16 v 1.31 a 0.55,0.55 0 0 1 -0.92,0.39 z m 1.92,-2.5 q 0.8,0 0.8,-0.69 0,-0.69 -0.8,-0.69 h -1 v 1.38 z"
         transform="translate(319.8,124.29)"
         style="fill:#fff8d5"
         id="path478" />
      <path
         inkscape:connector-curvature="0"
         d="m 49.48,247.83 a 0.5,0.5 0 0 1 -0.13,-0.37 v -3.8 a 0.45,0.45 0 0 1 0.5,-0.5 h 2.41 q 0.5,0 0.5,0.41 0,0.41 -0.5,0.42 h -1.87 v 1.12 h 1.73 q 0.5,0 0.5,0.41 0,0.41 -0.5,0.41 h -1.73 v 1.2 h 1.87 q 0.5,0 0.5,0.41 0,0.41 -0.5,0.41 h -2.41 a 0.5,0.5 0 0 1 -0.37,-0.12 z"
         transform="translate(319.8,124.29)"
         style="fill:#fff8d5"
         id="path480" />
    </g>
    <g
       transform="matrix(0.26458333,0,0,0.26458333,6.1854405,215.81635)"
       id="g201">
      <path
         inkscape:connector-curvature="0"
         d="m -112.79,96.2 a 0.53,0.53 0 0 1 0.14,0.39 v 4.91 a 0.49,0.49 0 0 1 -0.13,0.37 0.47,0.47 0 0 1 -0.35,0.13 0.44,0.44 0 0 1 -0.34,-0.13 0.51,0.51 0 0 1 -0.12,-0.37 v -3.42 l -1.41,2.67 a 0.82,0.82 0 0 1 -0.22,0.27 0.44,0.44 0 0 1 -0.27,0.09 0.46,0.46 0 0 1 -0.27,-0.08 0.76,0.76 0 0 1 -0.22,-0.27 l -1.42,-2.63 v 3.38 a 0.51,0.51 0 0 1 -0.13,0.36 0.45,0.45 0 0 1 -0.34,0.14 0.44,0.44 0 0 1 -0.34,-0.13 0.51,0.51 0 0 1 -0.12,-0.37 v -4.93 a 0.54,0.54 0 0 1 0.14,-0.39 0.48,0.48 0 0 1 0.37,-0.15 0.56,0.56 0 0 1 0.51,0.36 l 1.84,3.51 1.83,-3.51 a 0.55,0.55 0 0 1 0.49,-0.36 0.5,0.5 0 0 1 0.36,0.16 z"
         transform="translate(129.82)"
         style="fill:#fff8d5"
         id="path195" />
      <path
         inkscape:connector-curvature="0"
         d="m -109.42,101.66 a 2.44,2.44 0 0 1 -1,-1 3.52,3.52 0 0 1 -0.34,-1.59 3.53,3.53 0 0 1 0.34,-1.59 2.42,2.42 0 0 1 1,-1 2.92,2.92 0 0 1 1.49,-0.37 2.9,2.9 0 0 1 1.48,0.37 2.43,2.43 0 0 1 1,1 3.53,3.53 0 0 1 0.34,1.59 3.52,3.52 0 0 1 -0.34,1.59 2.44,2.44 0 0 1 -1,1 2.87,2.87 0 0 1 -1.47,0.37 2.89,2.89 0 0 1 -1.5,-0.37 z m 2.74,-1 a 2.47,2.47 0 0 0 0.45,-1.59 2.45,2.45 0 0 0 -0.45,-1.59 1.54,1.54 0 0 0 -1.26,-0.55 1.55,1.55 0 0 0 -1.27,0.55 2.45,2.45 0 0 0 -0.45,1.59 2.47,2.47 0 0 0 0.45,1.59 1.54,1.54 0 0 0 1.27,0.56 1.53,1.53 0 0 0 1.26,-0.61 z"
         transform="translate(129.82)"
         style="fill:#fff8d5"
         id="path197" />
      <path
         inkscape:connector-curvature="0"
         d="m -103.12,101.81 a 0.5,0.5 0 0 1 -0.14,-0.37 V 96.6 a 0.5,0.5 0 0 1 0.14,-0.37 0.52,0.52 0 0 1 0.38,-0.13 h 1.64 a 3.07,3.07 0 0 1 2.23,0.77 2.86,2.86 0 0 1 0.8,2.13 2.87,2.87 0 0 1 -0.79,2.16 3.07,3.07 0 0 1 -2.23,0.77 h -1.64 a 0.52,0.52 0 0 1 -0.39,-0.12 z m 2,-0.74 a 1.8,1.8 0 0 0 2,-2.06 1.8,1.8 0 0 0 -2,-2.05 h -1 v 4.11 z"
         transform="translate(129.82)"
         style="fill:#fff8d5"
         id="path199" />
    </g>
    <path
       style="display:inline;fill:#202020;fill-opacity:1;fill-rule:nonzero;stroke:none;stroke-width:0.2330292"
       d="m 21.508559,275.90368 c 0,-0.43021 -0.352577,-0.78171 -0.782785,-0.78171 h -6.009987 c -0.430208,0 -0.782787,0.3515 -0.782787,0.78171 v 9.13358 c 0,0.43022 0.352579,0.78279 0.782787,0.78279 h 6.009987 c 0.430208,0 0.782785,-0.35257 0.782785,-0.78279 z m 0,0"
       id="path25377"
       inkscape:connector-curvature="0" />
    <g
       id="g1583">
      <path
         style="display:inline;fill:#fff7d4;fill-opacity:1;stroke:none;stroke-width:0.2330292"
         d="m 16.402943,277.55901 c 0.388158,0 0.672808,-0.29328 0.672808,-0.65125 0,-0.35797 -0.280336,-0.64693 -0.668494,-0.64693 -0.388159,0 -0.668497,0.29328 -0.668497,0.64693 v 0.004 c 0,0.35796 0.280338,0.64693 0.664183,0.64693 z m 0.0043,-0.25446 c -0.219955,0 -0.37953,-0.18114 -0.37953,-0.39679 0,-0.21564 0.15526,-0.39247 0.375218,-0.39247 0.22427,0 0.383847,0.17683 0.383847,0.39247 v 0.004 c 0,0.21564 -0.155263,0.39247 -0.379535,0.39247 z m 0,0"
         id="path12074"
         inkscape:connector-curvature="0" />
      <path
         style="display:inline;fill:#fff7d4;fill-opacity:1;stroke:none;stroke-width:0.2330292"
         d="m 17.902541,277.55901 c 0.340719,0 0.552048,-0.18977 0.552048,-0.5693 v -0.58224 c 0,-0.0776 -0.06038,-0.13801 -0.138012,-0.13801 -0.07763,0 -0.138012,0.0604 -0.138012,0.13801 v 0.59518 c 0,0.19839 -0.103509,0.3019 -0.271709,0.3019 -0.168204,0 -0.271713,-0.10782 -0.271713,-0.31053 v -0.58655 c 0,-0.0776 -0.06038,-0.13801 -0.138012,-0.13801 -0.07332,0 -0.138012,0.0604 -0.138012,0.13801 v 0.59087 c 0,0.3709 0.207018,0.56067 0.543422,0.56067 z m 0,0"
         id="path12070"
         inkscape:connector-curvature="0" />
      <path
         style="display:inline;fill:#fff7d4;fill-opacity:1;stroke:none;stroke-width:0.2330292"
         d="m 19.080558,277.40806 c 0,0.0776 0.06038,0.13801 0.138012,0.13801 0.07763,0 0.138012,-0.0604 0.138012,-0.13801 v -0.8712 h 0.263087 c 0.07332,0 0.129386,-0.0561 0.129386,-0.12939 0,-0.069 -0.05607,-0.12507 -0.129386,-0.12507 H 18.81316 c -0.06901,0 -0.125072,0.0561 -0.125072,0.12507 0,0.0733 0.05607,0.12939 0.125072,0.12939 h 0.267398 z m 0,0"
         id="path12066"
         inkscape:connector-curvature="0" />
    </g>
    <g
       transform="translate(-16.881907,193.81249)"
       id="g2847">
      <path
         style="display:inline;fill:#202020;fill-opacity:1;fill-rule:nonzero;stroke:none;stroke-width:0.2330292"
         d="m 26.368901,82.091199 c 0,-0.43021 -0.352577,-0.78171 -0.782785,-0.78171 h -6.009987 c -0.430208,0 -0.782787,0.3515 -0.782787,0.78171 v 9.13358 c 0,0.43022 0.352579,0.78279 0.782787,0.78279 h 6.009987 c 0.430208,0 0.782785,-0.35257 0.782785,-0.78279 z m 0,0"
         id="path2839"
         inkscape:connector-curvature="0" />
    </g>
    <g
       id="g1019"
       transform="translate(-1.0583334,193.81249)">
      <path
         style="display:inline;fill:#fff7d4;fill-opacity:1;stroke:none;stroke-width:0.2330292"
         d="m 6.0202792,83.62577 c 0,0.0604 0.05175,0.10782 0.112135,0.10782 0.06038,0 0.112135,-0.0474 0.112135,-0.10782 v -1.056659 c 0,-0.0604 -0.05175,-0.10782 -0.112135,-0.10782 -0.06038,0 -0.112135,0.0474 -0.112135,0.10782 z m 0,0"
         id="path12062"
         inkscape:connector-curvature="0" />
      <path
         style="display:inline;fill:#fff7d4;fill-opacity:1;stroke:none;stroke-width:0.2330292"
         d="m 6.6335022,83.62577 c 0,0.0604 0.05175,0.10782 0.112135,0.10782 0.06038,0 0.10782,-0.0474 0.10782,-0.10782 v -0.797891 l 0.646931,0.8367 c 0.03019,0.0388 0.06038,0.069 0.112135,0.069 h 0.0086 c 0.06038,0 0.107823,-0.0518 0.107823,-0.11213 V 82.5691 c 0,-0.0604 -0.04744,-0.10782 -0.107823,-0.10782 -0.06038,0 -0.1078209,0.0474 -0.1078209,0.10782 v 0.77201 L 6.8836232,82.525979 c -0.03019,-0.0388 -0.06038,-0.0647 -0.112135,-0.0647 h -0.02586 c -0.06038,0 -0.112135,0.0518 -0.112135,0.112141 z m 0,0"
         id="path12058"
         inkscape:connector-curvature="0" />
    </g>
    <g
       style="display:inline"
       transform="matrix(0.25689694,0,0,0.25689694,-81.856008,262.30131)"
       id="g426">
      <path
         inkscape:connector-curvature="0"
         d="m 34.11,-120.55 a 1.2,1.2 0 0 1 0.23,0.74 1.16,1.16 0 0 1 -0.45,1 1.92,1.92 0 0 1 -1.23,0.35 h -1.78 a 0.5,0.5 0 0 1 -0.37,-0.13 0.5,0.5 0 0 1 -0.13,-0.37 v -3.8 a 0.5,0.5 0 0 1 0.13,-0.37 0.5,0.5 0 0 1 0.37,-0.13 h 1.72 a 1.92,1.92 0 0 1 1.19,0.33 1.08,1.08 0 0 1 0.44,0.91 1.11,1.11 0 0 1 -0.2,0.66 1.14,1.14 0 0 1 -0.55,0.41 1.2,1.2 0 0 1 0.63,0.4 z m -2.69,-0.79 h 1 a 1,1 0 0 0 0.6,-0.14 0.49,0.49 0 0 0 0.19,-0.42 0.5,0.5 0 0 0 -0.19,-0.44 1,1 0 0 0 -0.6,-0.14 h -1 z m 1.73,1.89 a 0.54,0.54 0 0 0 0.19,-0.46 0.56,0.56 0 0 0 -0.19,-0.47 1,1 0 0 0 -0.61,-0.15 h -1.12 v 1.22 h 1.12 a 1,1 0 0 0 0.61,-0.14 z"
         transform="translate(319.8,124.29)"
         style="fill:#fff8d5"
         id="path414-6" />
      <path
         inkscape:connector-curvature="0"
         d="m 39,-123.33 a 0.48,0.48 0 0 1 0.34,0.15 0.45,0.45 0 0 1 0.15,0.34 0.48,0.48 0 0 1 -0.13,0.32 l -1.49,1.77 v 1.75 a 0.51,0.51 0 0 1 -0.15,0.39 0.53,0.53 0 0 1 -0.37,0.14 0.55,0.55 0 0 1 -0.39,-0.14 0.51,0.51 0 0 1 -0.15,-0.39 v -1.77 l -1.48,-1.77 a 0.45,0.45 0 0 1 -0.13,-0.32 0.46,0.46 0 0 1 0.15,-0.34 0.46,0.46 0 0 1 0.34,-0.15 0.45,0.45 0 0 1 0.35,0.18 l 1.3,1.58 1.3,-1.58 a 0.45,0.45 0 0 1 0.36,-0.16 z"
         transform="translate(319.8,124.29)"
         style="fill:#fff8d5"
         id="path416-1" />
      <path
         inkscape:connector-curvature="0"
         d="m 40.83,-118.6 a 0.52,0.52 0 0 1 -0.14,-0.39 v -3.81 a 0.5,0.5 0 0 1 0.13,-0.37 0.5,0.5 0 0 1 0.37,-0.13 h 1.71 a 1.75,1.75 0 0 1 1.22,0.39 1.41,1.41 0 0 1 0.44,1.1 1.41,1.41 0 0 1 -0.44,1.1 1.75,1.75 0 0 1 -1.22,0.39 h -1.15 v 1.32 a 0.52,0.52 0 0 1 -0.14,0.39 0.52,0.52 0 0 1 -0.39,0.14 0.52,0.52 0 0 1 -0.39,-0.13 z m 1.92,-2.5 q 0.8,0 0.8,-0.69 0,-0.69 -0.8,-0.69 h -1 v 1.38 z"
         transform="translate(319.8,124.29)"
         style="fill:#fff8d5"
         id="path418" />
      <path
         inkscape:connector-curvature="0"
         d="m 49.92,-118.92 a 0.41,0.41 0 0 1 -0.15,0.32 0.52,0.52 0 0 1 -0.35,0.13 0.46,0.46 0 0 1 -0.24,-0.07 0.44,0.44 0 0 1 -0.18,-0.21 l -0.36,-0.8 h -2.31 l -0.36,0.8 a 0.46,0.46 0 0 1 -0.17,0.21 0.45,0.45 0 0 1 -0.25,0.07 0.53,0.53 0 0 1 -0.35,-0.13 0.41,0.41 0 0 1 -0.16,-0.32 0.55,0.55 0 0 1 0.05,-0.22 l 1.84,-3.86 a 0.54,0.54 0 0 1 0.22,-0.25 0.64,0.64 0 0 1 0.32,-0.08 0.63,0.63 0 0 1 0.33,0.09 0.61,0.61 0 0 1 0.2,0.24 l 1.84,3.86 a 0.55,0.55 0 0 1 0.08,0.22 z m -3.23,-1.44 h 1.58 l -0.79,-1.77 z"
         transform="translate(319.8,124.29)"
         style="fill:#fff8d5"
         id="path420" />
      <path
         inkscape:connector-curvature="0"
         d="m 51.85,-118.56 a 2.09,2.09 0 0 1 -0.75,-0.36 0.47,0.47 0 0 1 -0.15,-0.16 0.46,0.46 0 0 1 0,-0.21 0.46,0.46 0 0 1 0.11,-0.3 0.31,0.31 0 0 1 0.24,-0.13 h 0.15 l 0.17,0.08 a 2.29,2.29 0 0 0 0.59,0.27 2.41,2.41 0 0 0 0.66,0.08 1.3,1.3 0 0 0 0.69,-0.15 0.48,0.48 0 0 0 0.24,-0.43 0.39,0.39 0 0 0 -0.22,-0.34 2.85,2.85 0 0 0 -0.79,-0.24 4.33,4.33 0 0 1 -1,-0.31 1.3,1.3 0 0 1 -0.55,-0.46 1.2,1.2 0 0 1 -0.17,-0.66 1.29,1.29 0 0 1 0.25,-0.77 1.65,1.65 0 0 1 0.69,-0.54 2.43,2.43 0 0 1 1,-0.19 2.53,2.53 0 0 1 1.59,0.48 0.54,0.54 0 0 1 0.15,0.17 0.45,0.45 0 0 1 0,0.21 0.46,0.46 0 0 1 -0.11,0.3 0.31,0.31 0 0 1 -0.24,0.13 h -0.14 l -0.18,-0.09 a 2.85,2.85 0 0 0 -0.51,-0.27 1.7,1.7 0 0 0 -0.59,-0.09 1.16,1.16 0 0 0 -0.65,0.16 0.5,0.5 0 0 0 -0.24,0.44 0.39,0.39 0 0 0 0.09,0.27 0.76,0.76 0 0 0 0.31,0.19 4.57,4.57 0 0 0 0.61,0.17 3.39,3.39 0 0 1 1.33,0.52 1.06,1.06 0 0 1 0.4,0.88 1.28,1.28 0 0 1 -0.24,0.77 1.55,1.55 0 0 1 -0.68,0.52 2.61,2.61 0 0 1 -1,0.18 3.81,3.81 0 0 1 -1.06,-0.12 z"
         transform="translate(319.8,124.29)"
         style="fill:#fff8d5"
         id="path422" />
      <path
         inkscape:connector-curvature="0"
         d="m 57,-118.56 a 2.09,2.09 0 0 1 -0.75,-0.36 0.47,0.47 0 0 1 -0.15,-0.16 0.46,0.46 0 0 1 0,-0.21 0.46,0.46 0 0 1 0.11,-0.3 0.31,0.31 0 0 1 0.24,-0.13 h 0.15 l 0.17,0.08 a 2.29,2.29 0 0 0 0.59,0.27 2.41,2.41 0 0 0 0.66,0.08 1.3,1.3 0 0 0 0.69,-0.15 0.48,0.48 0 0 0 0.24,-0.43 0.39,0.39 0 0 0 -0.22,-0.34 2.85,2.85 0 0 0 -0.79,-0.24 4.33,4.33 0 0 1 -1,-0.31 1.3,1.3 0 0 1 -0.55,-0.46 1.2,1.2 0 0 1 -0.17,-0.66 1.29,1.29 0 0 1 0.25,-0.77 1.65,1.65 0 0 1 0.69,-0.54 2.43,2.43 0 0 1 1,-0.19 2.53,2.53 0 0 1 1.59,0.48 0.54,0.54 0 0 1 0.15,0.17 0.45,0.45 0 0 1 0,0.21 0.46,0.46 0 0 1 -0.11,0.3 0.31,0.31 0 0 1 -0.24,0.13 h -0.14 l -0.18,-0.09 a 2.85,2.85 0 0 0 -0.51,-0.27 1.7,1.7 0 0 0 -0.59,-0.09 1.16,1.16 0 0 0 -0.65,0.16 0.5,0.5 0 0 0 -0.24,0.44 0.39,0.39 0 0 0 0.09,0.27 0.76,0.76 0 0 0 0.31,0.19 4.57,4.57 0 0 0 0.61,0.17 3.39,3.39 0 0 1 1.33,0.52 1.06,1.06 0 0 1 0.4,0.88 1.28,1.28 0 0 1 -0.24,0.77 1.55,1.55 0 0 1 -0.68,0.52 2.61,2.61 0 0 1 -1,0.18 3.81,3.81 0 0 1 -1.06,-0.12 z"
         transform="translate(319.8,124.29)"
         style="fill:#fff8d5"
         id="path424" />
    </g>
  </g>
</svg>
