<?xml version="1.0" encoding="UTF-8" standalone="no"?>
<svg
   xmlns:dc="http://purl.org/dc/elements/1.1/"
   xmlns:cc="http://creativecommons.org/ns#"
   xmlns:rdf="http://www.w3.org/1999/02/22-rdf-syntax-ns#"
   xmlns:svg="http://www.w3.org/2000/svg"
   xmlns="http://www.w3.org/2000/svg"
   xmlns:sodipodi="http://sodipodi.sourceforge.net/DTD/sodipodi-0.dtd"
   xmlns:inkscape="http://www.inkscape.org/namespaces/inkscape"
   id="Layer_1"
   data-name="Layer 1"
   width="120"
   height="380"
   viewBox="0 0 120 380"
   version="1.1"
   sodipodi:docname="as-BlankPanelSpecial0.svg"
   inkscape:version="0.92.2 5c3e80d, 2017-08-06">
  <metadata
     id="metadata664">
    <rdf:RDF>
      <cc:Work
         rdf:about="">
        <dc:format>image/svg+xml</dc:format>
        <dc:type
           rdf:resource="http://purl.org/dc/dcmitype/StillImage" />
        <dc:title>as-BlankPanel8-pcb</dc:title>
      </cc:Work>
    </rdf:RDF>
  </metadata>
  <defs
     id="defs662" />
  <sodipodi:namedview
     pagecolor="#ffffff"
     bordercolor="#666666"
     borderopacity="1"
     objecttolerance="10"
     gridtolerance="10"
     guidetolerance="10"
     inkscape:pageopacity="0"
     inkscape:pageshadow="2"
     inkscape:window-width="2203"
     inkscape:window-height="1270"
     id="namedview660"
     showgrid="false"
     inkscape:zoom="3.0551642"
     inkscape:cx="-48.679296"
     inkscape:cy="169.79325"
     inkscape:window-x="0"
     inkscape:window-y="0"
     inkscape:window-maximized="0"
     inkscape:current-layer="g587" />
  <title
     id="title2">as-BlankPanel8-pcb</title>
  <g
     id="g587">
    <rect
       id="rect1709"
       x="0.0099999998"
       width="120"
       height="380"
       style="fill:#333333;fill-opacity:0.15686275"
       y="0" />
    <g
       id="g9">
      <rect
         id="rect1709-2"
         x="0.13"
         y="226.13"
         width="120"
         height="1.26"
         style="fill:#2b2c2b" />
      <rect
         id="rect1709-3"
         x="0.14022857"
         y="224.86885"
         width="120"
         height="1.26"
         style="fill:#252624" />
      <rect
         id="rect1709-4"
         x="0.13511428"
         y="223.60954"
         width="120"
         height="1.26"
         style="fill:#1e1d1d" />
      <rect
         id="rect1709-5"
         x="0.13"
         y="222.35001"
         width="120"
         height="1.26"
         style="fill:#191818" />
    </g>
    <g
       id="g31">
      <rect
         id="rect1806"
         x="0.0099999998"
         width="120"
         height="14.43"
         style="fill:#d9d9d8"
         y="0" />
      <rect
         id="rect1806-2"
         x="0.0099999998"
         y="14.41"
         width="120"
         height="1.02"
         style="fill:#b3b3b3" />
      <g
         id="g29">
        <circle
           cx="7.5100002"
           cy="7.9400001"
           r="3.4400001"
           style="fill:#333333"
           id="circle13" />
        <circle
           cx="22.51"
           cy="7.9400001"
           r="3.4400001"
           style="fill:#333333"
           id="circle15" />
        <circle
           cx="37.509998"
           cy="7.9400001"
           r="3.4400001"
           style="fill:#333333"
           id="circle17" />
        <circle
           cx="52.509998"
           cy="7.9400001"
           r="3.4400001"
           style="fill:#333333"
           id="circle19" />
        <circle
           cx="67.510002"
           cy="7.9400001"
           r="3.4400001"
           style="fill:#333333"
           id="circle21" />
        <circle
           cx="82.510002"
           cy="7.9400001"
           r="3.4400001"
           style="fill:#333333"
           id="circle23" />
        <circle
           cx="97.510002"
           cy="7.9400001"
           r="3.4400001"
           style="fill:#333333"
           id="circle25" />
        <circle
           cx="112.51"
           cy="7.9400001"
           r="3.4400001"
           style="fill:#333333"
           id="circle27" />
      </g>
    </g>
    <g
       id="g53">
      <rect
         id="rect1806-3"
         x="0.0099999998"
         y="365.57001"
         width="120"
         height="14.43"
         style="fill:#d9d9d8" />
      <rect
         id="rect1806-4"
         x="0.0099999998"
         y="364.57001"
         width="120"
         height="1.02"
         style="fill:#b3b3b3" />
      <g
         id="g51">
        <circle
           cx="112.51"
           cy="372.06"
           r="3.4400001"
           style="fill:#333333"
           id="circle35" />
        <circle
           cx="97.510002"
           cy="372.06"
           r="3.4400001"
           style="fill:#333333"
           id="circle37" />
        <circle
           cx="82.510002"
           cy="372.06"
           r="3.4400001"
           style="fill:#333333"
           id="circle39" />
        <circle
           cx="67.510002"
           cy="372.06"
           r="3.4400001"
           style="fill:#333333"
           id="circle41" />
        <circle
           cx="52.509998"
           cy="372.06"
           r="3.4400001"
           style="fill:#333333"
           id="circle43" />
        <circle
           cx="37.509998"
           cy="372.06"
           r="3.4400001"
           style="fill:#333333"
           id="circle45" />
        <circle
           cx="22.51"
           cy="372.06"
           r="3.4400001"
           style="fill:#333333"
           id="circle47" />
        <circle
           cx="7.5100002"
           cy="372.06"
           r="3.4400001"
           style="fill:#333333"
           id="circle49" />
      </g>
    </g>
    <rect
       x="0.0099999998"
       y="147.67"
       width="119.87"
       height="74.669998"
       style="fill:#034732"
       id="rect55" />
    <rect
       id="rect1806-5"
       x="0.0099999998"
       y="165.42999"
       width="119.97"
       height="1.02"
       style="fill:#0e3e1f" />
    <rect
       id="rect1806-6"
       x="0.0099999998"
       y="170.84"
       width="119.97"
       height="1.02"
       style="fill:#0e3e1f" />
    <rect
       id="rect1806-7"
       x="0.0099999998"
       y="176.25"
       width="119.97"
       height="1.02"
       style="fill:#0e3e1f" />
    <rect
       id="rect1806-8"
       x="0.0099999998"
       y="181.66"
       width="119.97"
       height="1.02"
       style="fill:#0e3e1f" />
    <rect
       id="rect1806-9"
       x="0.0099999998"
       y="187.07001"
       width="119.97"
       height="1.02"
       style="fill:#0e3e1f" />
    <rect
       id="rect1806-10"
       x="0.0099999998"
       y="192.48"
       width="119.97"
       height="1.02"
       style="fill:#0e3e1f" />
    <rect
       id="rect1806-11"
       x="0.0099999998"
       y="197.89"
       width="119.97"
       height="1.02"
       style="fill:#0e3e1f" />
    <rect
       id="rect1806-12"
       x="0.0099999998"
       y="203.3"
       width="119.97"
       height="1.02"
       style="fill:#0e3e1f" />
    <g
       id="g177">
      <g
         id="g77">
        <g
           id="g69">
          <polygon
             points="32.37,168.48 34.7,167.2 34.77,164.53 32.49,163.14 30.15,164.42 30.09,167.09 "
             style="fill:#2d2929"
             id="polygon65" />
          <circle
             cx="32.439999"
             cy="165.8"
             r="0.76999998"
             transform="rotate(-58.68,32.43477,165.79463)"
             style="fill:#bb9965"
             id="circle67" />
        </g>
        <g
           id="g75">
          <polygon
             points="37.05,168.48 39.39,167.2 39.46,164.53 37.18,163.14 34.84,164.42 34.77,167.09 "
             style="fill:#2d2929"
             id="polygon71" />
          <circle
             cx="37.119999"
             cy="165.8"
             r="0.76999998"
             transform="rotate(-58.68,37.126801,165.79818)"
             style="fill:#bb9965"
             id="circle73" />
        </g>
      </g>
      <g
         id="g91">
        <g
           id="g83">
          <polygon
             points="32.37,173.91 34.7,172.63 34.77,169.96 32.49,168.57 30.15,169.85 30.09,172.52 "
             style="fill:#2d2929"
             id="polygon79" />
          <circle
             cx="32.43"
             cy="171.23"
             r="0.76999998"
             transform="rotate(-58.68,32.436453,171.22707)"
             style="fill:#bb9965"
             id="circle81" />
        </g>
        <g
           id="g89">
          <polygon
             points="37.05,173.91 39.39,172.63 39.46,169.96 37.18,168.57 34.84,169.85 34.77,172.52 "
             style="fill:#2d2929"
             id="polygon85" />
          <circle
             cx="37.119999"
             cy="171.23"
             r="0.76999998"
             transform="rotate(-58.68,37.128484,171.23062)"
             style="fill:#bb9965"
             id="circle87" />
        </g>
      </g>
      <g
         id="g105">
        <g
           id="g97">
          <polygon
             points="32.37,179.34 34.7,178.06 34.77,175.39 32.49,174.01 30.15,175.29 30.09,177.95 "
             style="fill:#2d2929"
             id="polygon93" />
          <circle
             cx="32.43"
             cy="176.66"
             r="0.76999998"
             transform="rotate(-58.68,32.438137,176.65951)"
             style="fill:#bb9965"
             id="circle95" />
        </g>
        <g
           id="g103">
          <polygon
             points="37.05,179.34 39.39,178.06 39.46,175.39 37.18,174.01 34.84,175.29 34.77,177.95 "
             style="fill:#2d2929"
             id="polygon99" />
          <circle
             cx="37.119999"
             cy="176.66"
             r="0.76999998"
             transform="rotate(-58.68,37.121272,176.65806)"
             style="fill:#bb9965"
             id="circle101" />
        </g>
      </g>
      <g
         id="g119">
        <g
           id="g111">
          <polygon
             points="32.37,184.77 34.7,183.49 34.77,180.83 32.49,179.44 30.15,180.72 30.09,183.39 "
             style="fill:#2d2929"
             id="polygon107" />
          <circle
             cx="32.43"
             cy="182.10001"
             r="0.76999998"
             transform="rotate(-58.68,32.43482,182.10084)"
             style="fill:#bb9965"
             id="circle109" />
        </g>
        <g
           id="g117">
          <polygon
             points="37.05,184.77 39.39,183.49 39.46,180.83 37.18,179.44 34.84,180.72 34.77,183.39 "
             style="fill:#2d2929"
             id="polygon113" />
          <circle
             cx="37.130001"
             cy="182.09"
             r="0.76999998"
             transform="rotate(-58.68,37.131851,182.09549)"
             style="fill:#bb9965"
             id="circle115" />
        </g>
      </g>
      <g
         id="g133">
        <g
           id="g125">
          <polygon
             points="32.37,190.21 34.7,188.93 34.77,186.26 32.49,184.87 30.15,186.15 30.09,188.82 "
             style="fill:#2d2929"
             id="polygon121" />
          <circle
             cx="32.43"
             cy="187.53"
             r="0.76999998"
             transform="rotate(-58.68,32.427608,187.52828)"
             style="fill:#bb9965"
             id="circle123" />
        </g>
        <g
           id="g131">
          <polygon
             points="37.05,190.21 39.39,188.93 39.46,186.26 37.18,184.87 34.84,186.15 34.77,188.82 "
             style="fill:#2d2929"
             id="polygon127" />
          <circle
             cx="37.119999"
             cy="187.53"
             r="0.76999998"
             transform="rotate(-58.68,37.110743,187.52683)"
             style="fill:#bb9965"
             id="circle129" />
        </g>
      </g>
      <g
         id="g147">
        <g
           id="g139">
          <polygon
             points="32.37,195.64 34.7,194.36 34.77,191.69 32.49,190.31 30.15,191.59 30.09,194.25 "
             style="fill:#2d2929"
             id="polygon135" />
          <circle
             cx="32.43"
             cy="192.95"
             r="0.76999998"
             transform="rotate(-58.68,32.429291,192.96071)"
             style="fill:#bb9965"
             id="circle137" />
        </g>
        <g
           id="g145">
          <polygon
             points="37.05,195.64 39.39,194.36 39.46,191.69 37.18,190.31 34.84,191.59 34.77,194.25 "
             style="fill:#2d2929"
             id="polygon141" />
          <circle
             cx="37.119999"
             cy="192.96001"
             r="0.76999998"
             transform="rotate(-58.68,37.112426,192.95926)"
             style="fill:#bb9965"
             id="circle143" />
        </g>
      </g>
      <g
         id="g161">
        <g
           id="g153">
          <polygon
             points="32.37,201.07 34.7,199.79 34.77,197.12 32.49,195.74 30.15,197.02 30.09,199.68 "
             style="fill:#2d2929"
             id="polygon149" />
          <circle
             cx="32.43"
             cy="198.39"
             r="0.76999998"
             transform="rotate(-58.68,32.422079,198.38815)"
             style="fill:#bb9965"
             id="circle151" />
        </g>
        <g
           id="g159">
          <polygon
             points="37.05,201.07 39.39,199.79 39.46,197.12 37.18,195.74 34.84,197.02 34.77,199.68 "
             style="fill:#2d2929"
             id="polygon155" />
          <circle
             cx="37.110001"
             cy="198.39"
             r="0.76999998"
             transform="rotate(-58.68,37.11411,198.3917)"
             style="fill:#bb9965"
             id="circle157" />
        </g>
      </g>
      <g
         id="g175">
        <g
           id="g167">
          <polygon
             points="32.37,206.5 34.7,205.22 34.77,202.56 32.49,201.17 30.15,202.45 30.09,205.12 "
             style="fill:#2d2929"
             id="polygon163" />
          <circle
             cx="32.43"
             cy="203.83"
             r="0.76999998"
             transform="rotate(-58.68,32.432658,203.82559)"
             style="fill:#bb9965"
             id="circle165" />
        </g>
        <g
           id="g173">
          <polygon
             points="37.05,206.5 39.39,205.22 39.46,202.56 37.18,201.17 34.84,202.45 34.77,205.12 "
             style="fill:#2d2929"
             id="polygon169" />
          <circle
             cx="37.119999"
             cy="203.83"
             r="0.76999998"
             transform="rotate(-58.68,37.124688,203.82914)"
             style="fill:#bb9965"
             id="circle171" />
        </g>
      </g>
    </g>
    <g
       id="g291">
      <g
         id="g191">
        <g
           id="g183">
          <polygon
             points="81.86,168.48 84.2,167.2 84.27,164.53 81.99,163.14 79.65,164.42 79.59,167.09 "
             style="fill:#2d2929"
             id="polygon179" />
          <circle
             cx="81.93"
             cy="165.8"
             r="0.76999998"
             transform="rotate(-58.68,81.92426,165.79931)"
             style="fill:#bb9965"
             id="circle181" />
        </g>
        <g
           id="g189">
          <polygon
             points="86.55,168.48 88.89,167.2 88.96,164.53 86.68,163.14 84.34,164.42 84.28,167.09 "
             style="fill:#2d2929"
             id="polygon185" />
          <circle
             cx="86.620003"
             cy="165.78999"
             r="0.76999998"
             transform="rotate(-58.68,86.621291,165.79396)"
             style="fill:#bb9965"
             id="circle187" />
        </g>
      </g>
      <g
         id="g205">
        <g
           id="g197">
          <polygon
             points="81.86,173.91 84.2,172.63 84.27,169.96 81.99,168.57 79.65,169.85 79.59,172.52 "
             style="fill:#2d2929"
             id="polygon193" />
          <circle
             cx="81.93"
             cy="171.23"
             r="0.76999998"
             transform="rotate(-58.68,81.925943,171.23175)"
             style="fill:#bb9965"
             id="circle195" />
        </g>
        <g
           id="g203">
          <polygon
             points="86.55,173.91 88.89,172.63 88.96,169.96 86.68,168.57 84.34,169.85 84.28,172.52 "
             style="fill:#2d2929"
             id="polygon199" />
          <circle
             cx="86.610001"
             cy="171.23"
             r="0.76999998"
             transform="rotate(-58.68,86.614079,171.2214)"
             style="fill:#bb9965"
             id="circle201" />
        </g>
      </g>
      <g
         id="g219">
        <g
           id="g211">
          <polygon
             points="81.86,179.34 84.2,178.06 84.27,175.39 81.99,174.01 79.65,175.29 79.59,177.95 "
             style="fill:#2d2929"
             id="polygon207" />
          <circle
             cx="81.919998"
             cy="176.66"
             r="0.76999998"
             transform="rotate(-58.68,81.923731,176.65029)"
             style="fill:#bb9965"
             id="circle209" />
        </g>
        <g
           id="g217">
          <polygon
             points="86.55,179.34 88.89,178.06 88.96,175.39 86.68,174.01 84.34,175.29 84.28,177.95 "
             style="fill:#2d2929"
             id="polygon213" />
          <circle
             cx="86.610001"
             cy="176.66"
             r="0.76999998"
             transform="rotate(-58.68,86.610762,176.66273)"
             style="fill:#bb9965"
             id="circle215" />
        </g>
      </g>
      <g
         id="g233">
        <g
           id="g225">
          <polygon
             points="81.86,184.77 84.2,183.49 84.27,180.83 81.99,179.44 79.65,180.72 79.59,183.39 "
             style="fill:#2d2929"
             id="polygon221" />
          <circle
             cx="81.93"
             cy="182.09"
             r="0.76999998"
             transform="rotate(-58.68,81.92931,182.09662)"
             style="fill:#bb9965"
             id="circle223" />
        </g>
        <g
           id="g231">
          <polygon
             points="86.55,184.77 88.89,183.49 88.96,180.83 86.68,179.44 84.34,180.72 84.28,183.39 "
             style="fill:#2d2929"
             id="polygon227" />
          <circle
             cx="86.620003"
             cy="182.10001"
             r="0.76999998"
             transform="rotate(-58.68,86.621341,182.10017)"
             style="fill:#bb9965"
             id="circle229" />
        </g>
      </g>
      <g
         id="g247">
        <g
           id="g239">
          <polygon
             points="81.86,190.21 84.2,188.93 84.27,186.26 81.99,184.87 79.65,186.15 79.59,188.82 "
             style="fill:#2d2929"
             id="polygon235" />
          <circle
             cx="81.93"
             cy="187.53"
             r="0.76999998"
             transform="rotate(-58.68,81.930993,187.52906)"
             style="fill:#bb9965"
             id="circle237" />
        </g>
        <g
           id="g245">
          <polygon
             points="86.55,190.21 88.89,188.93 88.96,186.26 86.68,184.87 84.34,186.15 84.28,188.82 "
             style="fill:#2d2929"
             id="polygon241" />
          <circle
             cx="86.620003"
             cy="187.53"
             r="0.76999998"
             transform="rotate(-58.68,86.614129,187.52761)"
             style="fill:#bb9965"
             id="circle243" />
        </g>
      </g>
      <g
         id="g261">
        <g
           id="g253">
          <polygon
             points="81.86,195.64 84.2,194.36 84.27,191.69 81.99,190.31 79.65,191.59 79.59,194.25 "
             style="fill:#2d2929"
             id="polygon249" />
          <circle
             cx="81.93"
             cy="192.96001"
             r="0.76999998"
             transform="rotate(-58.68,81.923781,192.9565)"
             style="fill:#bb9965"
             id="circle251" />
        </g>
        <g
           id="g259">
          <polygon
             points="86.55,195.64 88.89,194.36 88.96,191.69 86.68,190.31 84.34,191.59 84.28,194.25 "
             style="fill:#2d2929"
             id="polygon255" />
          <circle
             cx="86.620003"
             cy="192.96001"
             r="0.76999998"
             transform="rotate(-58.68,86.615812,192.96004)"
             style="fill:#bb9965"
             id="circle257" />
        </g>
      </g>
      <g
         id="g275">
        <g
           id="g267">
          <polygon
             points="81.86,201.07 84.2,199.79 84.27,197.12 81.99,195.74 79.65,197.02 79.59,199.68 "
             style="fill:#2d2929"
             id="polygon263" />
          <circle
             cx="81.93"
             cy="198.39"
             r="0.76999998"
             transform="rotate(-58.68,81.925465,198.38893)"
             style="fill:#bb9965"
             id="circle265" />
        </g>
        <g
           id="g273">
          <polygon
             points="86.55,201.07 88.89,199.79 88.96,197.12 86.68,195.74 84.34,197.02 84.28,199.68 "
             style="fill:#2d2929"
             id="polygon269" />
          <circle
             cx="86.620003"
             cy="198.38"
             r="0.76999998"
             transform="rotate(-58.68,86.6136,198.37859)"
             style="fill:#bb9965"
             id="circle271" />
        </g>
      </g>
      <g
         id="g289">
        <g
           id="g281">
          <polygon
             points="81.86,206.5 84.2,205.22 84.27,202.56 81.99,201.17 79.65,202.45 79.59,205.12 "
             style="fill:#2d2929"
             id="polygon277" />
          <circle
             cx="81.93"
             cy="203.83"
             r="0.76999998"
             transform="rotate(-58.68,81.936043,203.82637)"
             style="fill:#bb9965"
             id="circle279" />
        </g>
        <g
           id="g287">
          <polygon
             points="86.55,206.5 88.89,205.22 88.96,202.56 86.68,201.17 84.34,202.45 84.28,205.12 "
             style="fill:#2d2929"
             id="polygon283" />
          <circle
             cx="86.620003"
             cy="203.82001"
             r="0.76999998"
             transform="rotate(-58.68,86.619178,203.82492)"
             style="fill:#bb9965"
             id="circle285" />
        </g>
      </g>
    </g>
    <g
       id="g361">
      <g
         id="g301">
        <path
           d="m 45.6,165.23 a 0.28,0.28 0 0 1 0.08,0.21 v 1 a 1.16,1.16 0 0 1 0,0.31 0.35,0.35 0 0 1 -0.11,0.17 0.69,0.69 0 0 1 -0.24,0.11 2.88,2.88 0 0 1 -0.45,0.09 3.47,3.47 0 0 1 -0.48,0 2,2 0 0 1 -1,-0.22 1.5,1.5 0 0 1 -0.63,-0.62 2.22,2.22 0 0 1 0,-1.92 1.51,1.51 0 0 1 0.62,-0.63 2,2 0 0 1 1,-0.22 1.8,1.8 0 0 1 1.15,0.36 0.37,0.37 0 0 1 0.1,0.12 0.33,0.33 0 0 1 0,0.15 0.35,0.35 0 0 1 -0.07,0.22 0.22,0.22 0 0 1 -0.17,0.09 h -0.12 l -0.13,-0.06 a 1.75,1.75 0 0 0 -0.38,-0.19 1.3,1.3 0 0 0 -0.38,-0.05 q -1,0 -1,1.18 a 1.34,1.34 0 0 0 0.27,0.91 1,1 0 0 0 0.8,0.3 2.26,2.26 0 0 0 0.58,-0.07 v -0.78 h -0.46 a 0.33,0.33 0 0 1 -0.23,-0.07 0.29,0.29 0 0 1 0,-0.4 0.33,0.33 0 0 1 0.23,-0.07 h 0.85 a 0.31,0.31 0 0 1 0.17,0.08 z"
           style="fill:#ffffff"
           id="path293"
           inkscape:connector-curvature="0" />
        <path
           d="m 50.17,166.79 a 0.3,0.3 0 0 1 -0.11,0.24 0.38,0.38 0 0 1 -0.26,0.1 0.33,0.33 0 0 1 -0.18,-0.05 0.32,0.32 0 0 1 -0.13,-0.16 l -0.27,-0.59 h -1.69 l -0.27,0.59 a 0.32,0.32 0 0 1 -0.31,0.21 0.39,0.39 0 0 1 -0.26,-0.1 0.3,0.3 0 0 1 -0.12,-0.24 0.39,0.39 0 0 1 0,-0.16 L 48,163.79 a 0.4,0.4 0 0 1 0.17,-0.18 0.47,0.47 0 0 1 0.48,0 0.44,0.44 0 0 1 0.17,0.18 l 1.35,2.83 c 0.01,0.06 0.05,0.12 0,0.17 z M 47.8,165.74 H 49 l -0.58,-1.3 z"
           style="fill:#ffffff"
           id="path295"
           inkscape:connector-curvature="0" />
        <path
           d="m 51.57,167 a 0.37,0.37 0 0 1 -0.11,-0.28 v -2.53 h -0.81 c -0.25,0 -0.37,-0.11 -0.37,-0.32 0,-0.21 0.12,-0.32 0.37,-0.32 H 53 c 0.25,0 0.37,0.11 0.37,0.32 0,0.21 -0.12,0.32 -0.37,0.32 h -0.81 v 2.53 a 0.38,0.38 0 0 1 -0.1,0.28 0.44,0.44 0 0 1 -0.52,0 z"
           style="fill:#ffffff"
           id="path297"
           inkscape:connector-curvature="0" />
        <path
           d="m 54.36,167 a 0.36,0.36 0 0 1 -0.09,-0.27 v -2.79 a 0.33,0.33 0 0 1 0.29,-0.37 h 1.84 c 0.25,0 0.37,0.1 0.37,0.3 0,0.2 -0.12,0.31 -0.37,0.31 H 55 V 165 h 1.27 c 0.25,0 0.37,0.1 0.37,0.31 0,0.21 -0.12,0.3 -0.37,0.3 H 55 v 0.88 h 1.4 c 0.25,0 0.37,0.1 0.37,0.31 0,0.21 -0.12,0.3 -0.37,0.3 H 54.63 A 0.36,0.36 0 0 1 54.36,167 Z"
           style="fill:#ffffff"
           id="path299"
           inkscape:connector-curvature="0" />
      </g>
      <g
         id="g307">
        <path
           d="m 43.37,172.48 a 1.48,1.48 0 0 1 -0.6,-0.63 2.29,2.29 0 0 1 0,-1.92 1.49,1.49 0 0 1 0.6,-0.63 2,2 0 0 1 2,0.14 0.37,0.37 0 0 1 0.1,0.12 0.32,0.32 0 0 1 0,0.15 0.35,0.35 0 0 1 -0.07,0.22 0.22,0.22 0 0 1 -0.18,0.09 H 45.1 L 45,170 a 1.65,1.65 0 0 0 -0.37,-0.19 1.11,1.11 0 0 0 -0.37,-0.06 0.87,0.87 0 0 0 -0.72,0.3 1.38,1.38 0 0 0 -0.24,0.89 q 0,1.19 1,1.19 a 1.06,1.06 0 0 0 0.35,-0.06 2.31,2.31 0 0 0 0.38,-0.19 l 0.13,-0.06 h 0.12 a 0.22,0.22 0 0 1 0.18,0.09 0.36,0.36 0 0 1 0.07,0.22 0.33,0.33 0 0 1 0,0.15 0.37,0.37 0 0 1 -0.1,0.12 2,2 0 0 1 -2,0.14 z"
           style="fill:#ffffff"
           id="path303"
           inkscape:connector-curvature="0" />
        <path
           d="m 49.18,169.15 a 0.35,0.35 0 0 1 0.19,-0.05 0.41,0.41 0 0 1 0.27,0.1 0.31,0.31 0 0 1 0.12,0.24 0.36,0.36 0 0 1 0,0.15 l -1.35,2.85 a 0.39,0.39 0 0 1 -0.17,0.18 0.49,0.49 0 0 1 -0.48,0 0.39,0.39 0 0 1 -0.17,-0.18 l -1.35,-2.85 a 0.32,0.32 0 0 1 0,-0.14 0.31,0.31 0 0 1 0.13,-0.25 0.44,0.44 0 0 1 0.28,-0.1 0.36,0.36 0 0 1 0.19,0.05 0.33,0.33 0 0 1 0.13,0.16 l 1,2.34 1,-2.34 a 0.33,0.33 0 0 1 0.21,-0.16 z"
           style="fill:#ffffff"
           id="path305"
           inkscape:connector-curvature="0" />
      </g>
      <g
         id="g315">
        <path
           d="m 45,176.59 a 0.24,0.24 0 0 1 0.08,0.18 0.26,0.26 0 0 1 -0.26,0.26 h -0.7 v 0.71 a 0.24,0.24 0 0 1 -0.07,0.18 0.28,0.28 0 0 1 -0.37,0 0.25,0.25 0 0 1 -0.08,-0.18 V 177 h -0.7 a 0.26,0.26 0 0 1 -0.26,-0.26 0.24,0.24 0 0 1 0.08,-0.18 0.25,0.25 0 0 1 0.18,-0.07 h 0.7 v -0.71 a 0.26,0.26 0 0 1 0.52,0 c 0,0 0,0 0,0 v 0.71 h 0.7 a 0.25,0.25 0 0 1 0.18,0.1 z"
           style="fill:#ffffff"
           id="path309"
           inkscape:connector-curvature="0" />
        <path
           d="m 48.1,176.07 a 1,1 0 0 1 0.4,0.4 1.22,1.22 0 0 1 0.14,0.59 1.16,1.16 0 0 1 -0.17,0.62 1.12,1.12 0 0 1 -0.46,0.42 1.52,1.52 0 0 1 -0.69,0.15 2,2 0 0 1 -0.61,-0.09 1.62,1.62 0 0 1 -0.51,-0.26 0.34,0.34 0 0 1 -0.11,-0.12 0.62,0.62 0 0 1 0.07,-0.37 0.22,0.22 0 0 1 0.18,-0.09 h 0.11 l 0.13,0.06 a 2.72,2.72 0 0 0 0.37,0.19 0.93,0.93 0 0 0 0.36,0.07 0.67,0.67 0 0 0 0.46,-0.14 0.52,0.52 0 0 0 0.16,-0.42 0.53,0.53 0 0 0 -0.16,-0.41 0.62,0.62 0 0 0 -0.44,-0.15 1.06,1.06 0 0 0 -0.31,0 1.38,1.38 0 0 0 -0.31,0.14 0.42,0.42 0 0 1 -0.21,0.06 0.29,0.29 0 0 1 -0.2,-0.07 0.24,0.24 0 0 1 -0.08,-0.19 V 175 a 0.33,0.33 0 0 1 0.3,-0.36 h 1.67 c 0.25,0 0.37,0.1 0.37,0.29 0,0.19 -0.12,0.3 -0.37,0.3 H 47 V 176 a 1.13,1.13 0 0 1 0.56,-0.13 1.17,1.17 0 0 1 0.54,0.2 z"
           style="fill:#ffffff"
           id="path311"
           inkscape:connector-curvature="0" />
        <path
           d="m 52.34,174.71 a 0.35,0.35 0 0 1 0.19,-0.05 0.41,0.41 0 0 1 0.27,0.1 0.31,0.31 0 0 1 0.12,0.25 0.35,0.35 0 0 1 0,0.15 L 51.53,178 a 0.4,0.4 0 0 1 -0.17,0.18 0.49,0.49 0 0 1 -0.48,0 0.4,0.4 0 0 1 -0.17,-0.18 l -1.35,-2.85 a 0.32,0.32 0 0 1 0,-0.15 0.31,0.31 0 0 1 0.13,-0.25 0.44,0.44 0 0 1 0.28,-0.1 0.37,0.37 0 0 1 0.19,0.05 0.32,0.32 0 0 1 0.13,0.16 l 1.07,2.34 1.07,-2.34 a 0.33,0.33 0 0 1 0.11,-0.15 z"
           style="fill:#ffffff"
           id="path313"
           inkscape:connector-curvature="0" />
      </g>
      <g
         id="g325">
        <path
           d="m 45,182.15 a 0.25,0.25 0 0 1 0.08,0.18 0.26,0.26 0 0 1 -0.26,0.26 h -0.7 v 0.7 a 0.24,0.24 0 0 1 -0.07,0.18 0.26,0.26 0 0 1 -0.19,0.07 0.25,0.25 0 0 1 -0.18,-0.07 0.24,0.24 0 0 1 -0.08,-0.18 v -0.7 h -0.7 a 0.26,0.26 0 0 1 -0.26,-0.26 0.25,0.25 0 0 1 0.08,-0.18 0.26,0.26 0 0 1 0.18,-0.07 h 0.7 v -0.71 a 0.26,0.26 0 0 1 0.26,-0.26 0.26,0.26 0 0 1 0.26,0.26 v 0.71 h 0.7 a 0.26,0.26 0 0 1 0.18,0.07 z"
           style="fill:#ffffff"
           id="path317"
           inkscape:connector-curvature="0" />
        <path
           d="m 48.7,183.45 q 0,0.31 -0.37,0.32 h -1.7 q -0.37,0 -0.37,-0.32 0,-0.32 0.37,-0.31 h 0.46 v -2 l -0.44,0.26 a 0.29,0.29 0 0 1 -0.15,0 0.27,0.27 0 0 1 -0.21,-0.1 0.36,0.36 0 0 1 -0.09,-0.24 0.29,0.29 0 0 1 0.15,-0.26 l 0.79,-0.48 a 0.68,0.68 0 0 1 0.35,-0.1 0.36,0.36 0 0 1 0.38,0.38 v 2.54 h 0.46 q 0.37,0 0.37,0.31 z"
           style="fill:#ffffff"
           id="path319"
           inkscape:connector-curvature="0" />
        <path
           d="m 52.14,183.45 q 0,0.31 -0.37,0.32 h -1.86 a 0.34,0.34 0 0 1 -0.25,-0.09 0.31,0.31 0 0 1 -0.09,-0.23 0.47,0.47 0 0 1 0.15,-0.33 l 1.1,-1.17 a 1.1,1.1 0 0 0 0.37,-0.72 0.4,0.4 0 0 0 -0.12,-0.31 0.47,0.47 0 0 0 -0.33,-0.11 0.93,0.93 0 0 0 -0.35,0.06 3,3 0 0 0 -0.37,0.19 l -0.13,0.07 h -0.1 a 0.22,0.22 0 0 1 -0.18,-0.1 0.36,0.36 0 0 1 -0.08,-0.23 0.33,0.33 0 0 1 0,-0.16 0.31,0.31 0 0 1 0.11,-0.11 1.94,1.94 0 0 1 1.1,-0.36 1.51,1.51 0 0 1 0.62,0.12 0.94,0.94 0 0 1 0.41,0.34 0.92,0.92 0 0 1 0.15,0.51 1.26,1.26 0 0 1 -0.13,0.57 2.48,2.48 0 0 1 -0.43,0.58 l -0.79,0.83 h 1.16 q 0.41,0.02 0.41,0.33 z"
           style="fill:#ffffff"
           id="path321"
           inkscape:connector-curvature="0" />
        <path
           d="m 55.84,180.26 a 0.35,0.35 0 0 1 0.19,-0.05 0.41,0.41 0 0 1 0.27,0.1 0.31,0.31 0 0 1 0.12,0.25 0.35,0.35 0 0 1 0,0.15 L 55,183.55 a 0.4,0.4 0 0 1 -0.17,0.18 0.49,0.49 0 0 1 -0.48,0 0.4,0.4 0 0 1 -0.17,-0.18 l -1.35,-2.85 a 0.32,0.32 0 0 1 0,-0.14 0.31,0.31 0 0 1 0.13,-0.25 0.44,0.44 0 0 1 0.28,-0.1 0.37,0.37 0 0 1 0.19,0.05 0.33,0.33 0 0 1 0.13,0.16 l 1.07,2.34 1.07,-2.34 a 0.34,0.34 0 0 1 0.14,-0.16 z"
           style="fill:#ffffff"
           id="path323"
           inkscape:connector-curvature="0" />
      </g>
      <g
         id="g333">
        <path
           d="m 45.6,187.45 a 0.28,0.28 0 0 1 0.08,0.21 v 1 a 1.17,1.17 0 0 1 0,0.31 0.35,0.35 0 0 1 -0.11,0.17 0.71,0.71 0 0 1 -0.24,0.11 2.89,2.89 0 0 1 -0.45,0.09 3.47,3.47 0 0 1 -0.48,0 2,2 0 0 1 -1,-0.22 1.5,1.5 0 0 1 -0.63,-0.62 2.22,2.22 0 0 1 0,-1.93 1.5,1.5 0 0 1 0.62,-0.63 2,2 0 0 1 1,-0.22 1.8,1.8 0 0 1 1.15,0.36 0.37,0.37 0 0 1 0.1,0.12 0.33,0.33 0 0 1 0,0.15 0.36,0.36 0 0 1 -0.07,0.22 0.22,0.22 0 0 1 -0.17,0.09 h -0.12 l -0.13,-0.06 a 1.71,1.71 0 0 0 -0.38,-0.19 1.27,1.27 0 0 0 -0.38,-0.05 q -1,0 -1,1.18 a 1.34,1.34 0 0 0 0.27,0.91 1,1 0 0 0 0.8,0.3 2.31,2.31 0 0 0 0.58,-0.07 v -0.78 h -0.46 a 0.33,0.33 0 0 1 -0.23,-0.07 0.29,0.29 0 0 1 0,-0.4 0.33,0.33 0 0 1 0.23,-0.07 h 0.85 a 0.31,0.31 0 0 1 0.17,0.09 z"
           style="fill:#ffffff"
           id="path327"
           inkscape:connector-curvature="0" />
        <path
           d="m 49.8,185.88 a 0.38,0.38 0 0 1 0.1,0.28 V 189 a 0.39,0.39 0 0 1 -0.1,0.28 0.39,0.39 0 0 1 -0.56,0 l -1.67,-2.14 V 189 a 0.4,0.4 0 0 1 -0.1,0.28 0.36,0.36 0 0 1 -0.52,0 0.39,0.39 0 0 1 -0.1,-0.28 v -2.8 a 0.38,0.38 0 0 1 0.1,-0.28 0.35,0.35 0 0 1 0.27,-0.11 0.34,0.34 0 0 1 0.29,0.13 l 1.67,2.06 v -1.87 a 0.39,0.39 0 0 1 0.1,-0.28 0.34,0.34 0 0 1 0.26,-0.11 0.35,0.35 0 0 1 0.26,0.14 z"
           style="fill:#ffffff"
           id="path329"
           inkscape:connector-curvature="0" />
        <path
           d="m 51.2,189.22 a 0.37,0.37 0 0 1 -0.09,-0.27 v -2.79 a 0.33,0.33 0 0 1 0.3,-0.36 h 1.07 a 2.16,2.16 0 0 1 1,0.21 1.47,1.47 0 0 1 0.63,0.61 1.91,1.91 0 0 1 0.22,0.94 2,2 0 0 1 -0.22,0.95 1.46,1.46 0 0 1 -0.63,0.61 2.19,2.19 0 0 1 -1,0.21 h -1 a 0.37,0.37 0 0 1 -0.28,-0.11 z m 1.22,-0.53 a 1.14,1.14 0 1 0 0,-2.27 h -0.54 v 2.27 z"
           style="fill:#ffffff"
           id="path331"
           inkscape:connector-curvature="0" />
      </g>
      <g
         id="g341">
        <path
           d="m 45.6,193 a 0.28,0.28 0 0 1 0.08,0.21 v 1 a 1.16,1.16 0 0 1 0,0.31 0.35,0.35 0 0 1 -0.11,0.18 0.69,0.69 0 0 1 -0.24,0.11 2.77,2.77 0 0 1 -0.45,0.09 3.47,3.47 0 0 1 -0.48,0 2,2 0 0 1 -1,-0.22 1.5,1.5 0 0 1 -0.63,-0.62 2.22,2.22 0 0 1 0,-1.93 1.5,1.5 0 0 1 0.62,-0.63 2,2 0 0 1 1,-0.22 1.8,1.8 0 0 1 1.15,0.36 0.37,0.37 0 0 1 0.1,0.12 0.33,0.33 0 0 1 0,0.15 0.36,0.36 0 0 1 -0.07,0.22 0.22,0.22 0 0 1 -0.17,0.09 h -0.12 l -0.13,-0.07 a 1.7,1.7 0 0 0 -0.38,-0.18 1.27,1.27 0 0 0 -0.38,-0.06 q -1,0 -1,1.19 a 1.34,1.34 0 0 0 0.27,0.91 1,1 0 0 0 0.8,0.3 2.26,2.26 0 0 0 0.58,-0.08 v -0.77 h -0.46 a 0.33,0.33 0 0 1 -0.23,-0.07 0.29,0.29 0 0 1 0,-0.4 0.33,0.33 0 0 1 0.23,-0.07 h 0.85 A 0.31,0.31 0 0 1 45.6,193 Z"
           style="fill:#ffffff"
           id="path335"
           inkscape:connector-curvature="0" />
        <path
           d="m 49.8,191.43 a 0.39,0.39 0 0 1 0.1,0.28 v 2.81 a 0.39,0.39 0 0 1 -0.1,0.28 0.39,0.39 0 0 1 -0.56,0 l -1.67,-2.15 v 1.89 a 0.41,0.41 0 0 1 -0.1,0.28 0.36,0.36 0 0 1 -0.52,0 0.39,0.39 0 0 1 -0.1,-0.28 v -2.81 a 0.39,0.39 0 0 1 0.1,-0.28 0.35,0.35 0 0 1 0.27,-0.11 0.34,0.34 0 0 1 0.29,0.13 l 1.67,2.13 v -1.87 a 0.39,0.39 0 0 1 0.1,-0.28 0.34,0.34 0 0 1 0.26,-0.11 0.36,0.36 0 0 1 0.26,0.09 z"
           style="fill:#ffffff"
           id="path337"
           inkscape:connector-curvature="0" />
        <path
           d="m 51.2,194.78 a 0.37,0.37 0 0 1 -0.09,-0.27 v -2.79 a 0.33,0.33 0 0 1 0.3,-0.36 h 1.07 a 2.16,2.16 0 0 1 1,0.21 1.47,1.47 0 0 1 0.63,0.6 1.92,1.92 0 0 1 0.22,0.95 2,2 0 0 1 -0.22,0.95 1.45,1.45 0 0 1 -0.63,0.61 2.17,2.17 0 0 1 -1,0.21 h -1 a 0.37,0.37 0 0 1 -0.28,-0.11 z m 1.22,-0.54 a 1.13,1.13 0 0 0 0,-2.26 h -0.54 v 2.26 z"
           style="fill:#ffffff"
           id="path339"
           inkscape:connector-curvature="0" />
      </g>
      <g
         id="g349">
        <path
           d="m 45.6,198.56 a 0.28,0.28 0 0 1 0.08,0.21 v 1 a 1.16,1.16 0 0 1 0,0.31 0.35,0.35 0 0 1 -0.11,0.17 0.69,0.69 0 0 1 -0.24,0.11 2.88,2.88 0 0 1 -0.45,0.09 3.47,3.47 0 0 1 -0.48,0 2,2 0 0 1 -1,-0.22 1.5,1.5 0 0 1 -0.63,-0.62 2.22,2.22 0 0 1 0,-1.92 1.51,1.51 0 0 1 0.62,-0.63 2,2 0 0 1 1,-0.22 1.8,1.8 0 0 1 1.15,0.36 0.37,0.37 0 0 1 0.1,0.12 0.33,0.33 0 0 1 0,0.15 0.35,0.35 0 0 1 -0.07,0.22 0.22,0.22 0 0 1 -0.17,0.09 h -0.12 l -0.13,-0.06 a 1.75,1.75 0 0 0 -0.38,-0.19 1.3,1.3 0 0 0 -0.38,-0.05 q -1,0 -1,1.18 a 1.34,1.34 0 0 0 0.27,0.91 1,1 0 0 0 0.8,0.3 2.26,2.26 0 0 0 0.58,-0.07 V 199 h -0.46 a 0.33,0.33 0 0 1 -0.23,-0.07 0.29,0.29 0 0 1 0,-0.4 0.33,0.33 0 0 1 0.23,-0.07 h 0.85 a 0.31,0.31 0 0 1 0.17,0.1 z"
           style="fill:#ffffff"
           id="path343"
           inkscape:connector-curvature="0" />
        <path
           d="m 49.8,197 a 0.38,0.38 0 0 1 0.1,0.28 v 2.8 a 0.39,0.39 0 0 1 -0.1,0.28 0.35,0.35 0 0 1 -0.27,0.11 0.36,0.36 0 0 1 -0.29,-0.13 l -1.67,-2.14 v 1.88 a 0.4,0.4 0 0 1 -0.1,0.28 0.36,0.36 0 0 1 -0.52,0 0.39,0.39 0 0 1 -0.1,-0.28 v -2.8 A 0.38,0.38 0 0 1 47,197 a 0.35,0.35 0 0 1 0.27,-0.11 0.34,0.34 0 0 1 0.29,0.13 l 1.67,2.13 v -1.87 a 0.39,0.39 0 0 1 0.1,-0.28 0.34,0.34 0 0 1 0.26,-0.11 0.35,0.35 0 0 1 0.21,0.11 z"
           style="fill:#ffffff"
           id="path345"
           inkscape:connector-curvature="0" />
        <path
           d="m 51.2,200.33 a 0.37,0.37 0 0 1 -0.09,-0.27 v -2.79 a 0.33,0.33 0 0 1 0.28,-0.37 h 1.09 a 2.18,2.18 0 0 1 1,0.21 1.47,1.47 0 0 1 0.63,0.61 1.91,1.91 0 0 1 0.22,0.94 2,2 0 0 1 -0.22,0.95 1.46,1.46 0 0 1 -0.63,0.61 2.19,2.19 0 0 1 -1,0.21 h -1 a 0.37,0.37 0 0 1 -0.28,-0.1 z m 1.22,-0.53 a 1.14,1.14 0 0 0 0,-2.27 h -0.54 v 2.27 z"
           style="fill:#ffffff"
           id="path347"
           inkscape:connector-curvature="0" />
      </g>
      <g
         id="g359">
        <path
           d="m 42.56,204.64 c 0,-0.2 0.12,-0.29 0.36,-0.29 h 1 c 0.24,0 0.36,0.1 0.36,0.29 0,0.19 -0.12,0.29 -0.36,0.29 h -1 q -0.36,0.01 -0.36,-0.29 z"
           style="fill:#ffffff"
           id="path351"
           inkscape:connector-curvature="0" />
        <path
           d="m 47.9,205.67 c 0,0.21 -0.12,0.32 -0.37,0.32 h -1.7 q -0.37,0 -0.37,-0.32 0,-0.32 0.37,-0.31 h 0.47 v -2 l -0.44,0.26 a 0.29,0.29 0 0 1 -0.15,0 0.27,0.27 0 0 1 -0.21,-0.1 0.36,0.36 0 0 1 -0.09,-0.24 0.29,0.29 0 0 1 0.16,-0.26 l 0.79,-0.48 a 0.68,0.68 0 0 1 0.35,-0.1 0.36,0.36 0 0 1 0.38,0.38 v 2.54 h 0.46 c 0.23,0 0.35,0.1 0.35,0.31 z"
           style="fill:#ffffff"
           id="path353"
           inkscape:connector-curvature="0" />
        <path
           d="m 51.34,205.67 c 0,0.21 -0.12,0.32 -0.37,0.32 h -1.86 a 0.33,0.33 0 0 1 -0.25,-0.09 0.31,0.31 0 0 1 -0.09,-0.23 0.46,0.46 0 0 1 0.14,-0.33 l 1.1,-1.17 a 1.11,1.11 0 0 0 0.37,-0.72 0.41,0.41 0 0 0 -0.12,-0.31 0.47,0.47 0 0 0 -0.33,-0.11 0.92,0.92 0 0 0 -0.35,0.06 2.87,2.87 0 0 0 -0.37,0.19 l -0.13,0.07 H 49 a 0.22,0.22 0 0 1 -0.18,-0.1 0.36,0.36 0 0 1 -0.08,-0.23 0.34,0.34 0 0 1 0,-0.16 0.31,0.31 0 0 1 0.11,-0.11 1.86,1.86 0 0 1 0.52,-0.26 1.84,1.84 0 0 1 0.59,-0.1 1.5,1.5 0 0 1 0.62,0.12 0.93,0.93 0 0 1 0.41,0.34 0.92,0.92 0 0 1 0.14,0.51 1.26,1.26 0 0 1 -0.1,0.64 2.48,2.48 0 0 1 -0.43,0.58 l -0.79,0.83 H 51 c 0.21,-0.05 0.34,0.05 0.34,0.26 z"
           style="fill:#ffffff"
           id="path355"
           inkscape:connector-curvature="0" />
        <path
           d="m 54.11,203.53 a 0.32,0.32 0 0 1 0.18,-0.05 0.38,0.38 0 0 1 0.25,0.09 0.28,0.28 0 0 1 0.11,0.22 0.32,0.32 0 0 1 0,0.15 l -0.9,1.84 a 0.37,0.37 0 0 1 -0.15,0.17 0.44,0.44 0 0 1 -0.43,0 0.39,0.39 0 0 1 -0.16,-0.17 l -0.9,-1.84 a 0.35,0.35 0 0 1 0,-0.13 0.29,0.29 0 0 1 0.12,-0.23 0.41,0.41 0 0 1 0.26,-0.09 0.35,0.35 0 0 1 0.19,0.05 0.36,0.36 0 0 1 0.14,0.16 l 0.61,1.34 0.57,-1.34 a 0.36,0.36 0 0 1 0.11,-0.17 z"
           style="fill:#ffffff"
           id="path357"
           inkscape:connector-curvature="0" />
      </g>
    </g>
    <g
       id="g431">
      <g
         id="g371">
        <path
           d="m 95.94,165.23 a 0.28,0.28 0 0 1 0.08,0.21 v 1 a 1.16,1.16 0 0 1 0,0.31 0.35,0.35 0 0 1 -0.11,0.17 0.69,0.69 0 0 1 -0.24,0.11 2.88,2.88 0 0 1 -0.45,0.09 3.47,3.47 0 0 1 -0.48,0 2,2 0 0 1 -1,-0.22 1.5,1.5 0 0 1 -0.63,-0.62 2.22,2.22 0 0 1 0,-1.92 1.51,1.51 0 0 1 0.62,-0.63 2,2 0 0 1 0.95,-0.22 1.8,1.8 0 0 1 1.15,0.36 0.37,0.37 0 0 1 0.1,0.12 0.33,0.33 0 0 1 0,0.15 0.35,0.35 0 0 1 -0.07,0.22 0.22,0.22 0 0 1 -0.17,0.09 h -0.12 l -0.13,-0.06 a 1.75,1.75 0 0 0 -0.38,-0.19 1.3,1.3 0 0 0 -0.38,-0.05 q -1,0 -1,1.18 a 1.34,1.34 0 0 0 0.27,0.91 1,1 0 0 0 0.8,0.3 2.26,2.26 0 0 0 0.58,-0.07 v -0.78 h -0.46 a 0.33,0.33 0 0 1 -0.23,-0.07 0.29,0.29 0 0 1 0,-0.4 0.33,0.33 0 0 1 0.23,-0.07 h 0.85 a 0.31,0.31 0 0 1 0.22,0.08 z"
           style="fill:#ffffff"
           id="path363"
           inkscape:connector-curvature="0" />
        <path
           d="m 100.51,166.79 a 0.3,0.3 0 0 1 -0.11,0.24 0.38,0.38 0 0 1 -0.26,0.1 0.33,0.33 0 0 1 -0.18,-0.05 0.32,0.32 0 0 1 -0.13,-0.16 l -0.27,-0.59 h -1.69 l -0.27,0.59 A 0.32,0.32 0 0 1 97.29,167.13 0.39,0.39 0 0 1 97,167 a 0.3,0.3 0 0 1 -0.12,-0.24 0.39,0.39 0 0 1 0,-0.16 l 1.35,-2.83 a 0.4,0.4 0 0 1 0.17,-0.18 0.47,0.47 0 0 1 0.48,0 0.44,0.44 0 0 1 0.17,0.18 l 1.35,2.83 a 0.41,0.41 0 0 1 0.11,0.19 z m -2.37,-1.05 h 1.16 l -0.58,-1.3 z"
           style="fill:#ffffff"
           id="path365"
           inkscape:connector-curvature="0" />
        <path
           d="m 101.91,167 a 0.37,0.37 0 0 1 -0.11,-0.28 v -2.53 H 101 c -0.25,0 -0.37,-0.11 -0.37,-0.32 0,-0.21 0.12,-0.32 0.37,-0.32 h 2.4 c 0.25,0 0.37,0.11 0.37,0.32 0,0.21 -0.12,0.32 -0.37,0.32 h -0.81 v 2.53 a 0.38,0.38 0 0 1 -0.1,0.28 0.44,0.44 0 0 1 -0.57,0 z"
           style="fill:#ffffff"
           id="path367"
           inkscape:connector-curvature="0" />
        <path
           d="m 104.69,167 a 0.36,0.36 0 0 1 -0.09,-0.27 v -2.79 a 0.33,0.33 0 0 1 0.29,-0.37 h 1.84 c 0.25,0 0.37,0.1 0.37,0.3 0,0.2 -0.12,0.31 -0.37,0.31 h -1.37 V 165 h 1.27 c 0.25,0 0.37,0.1 0.37,0.31 0,0.21 -0.12,0.3 -0.37,0.3 h -1.27 v 0.88 h 1.38 c 0.25,0 0.37,0.1 0.37,0.31 0,0.21 -0.12,0.3 -0.37,0.3 H 105 a 0.36,0.36 0 0 1 -0.31,-0.1 z"
           style="fill:#ffffff"
           id="path369"
           inkscape:connector-curvature="0" />
      </g>
      <g
         id="g377">
        <path
           d="m 93.7,172.48 a 1.48,1.48 0 0 1 -0.6,-0.63 2.29,2.29 0 0 1 0,-1.92 1.49,1.49 0 0 1 0.6,-0.63 2,2 0 0 1 2,0.14 0.37,0.37 0 0 1 0.1,0.12 0.32,0.32 0 0 1 0,0.15 0.35,0.35 0 0 1 -0.07,0.22 0.22,0.22 0 0 1 -0.18,0.09 h -0.12 l -0.12,-0.06 a 1.65,1.65 0 0 0 -0.37,-0.19 1.11,1.11 0 0 0 -0.37,-0.06 0.87,0.87 0 0 0 -0.72,0.3 1.38,1.38 0 0 0 -0.24,0.89 q 0,1.19 1,1.19 A 1.06,1.06 0 0 0 95,172 a 2.31,2.31 0 0 0 0.38,-0.19 l 0.13,-0.06 h 0.12 a 0.22,0.22 0 0 1 0.18,0.09 0.36,0.36 0 0 1 0.07,0.22 0.33,0.33 0 0 1 0,0.15 0.37,0.37 0 0 1 -0.1,0.12 2,2 0 0 1 -2,0.14 z"
           style="fill:#ffffff"
           id="path373"
           inkscape:connector-curvature="0" />
        <path
           d="m 99.51,169.15 a 0.35,0.35 0 0 1 0.19,-0.05 0.41,0.41 0 0 1 0.27,0.1 0.31,0.31 0 0 1 0.12,0.24 0.36,0.36 0 0 1 0,0.15 l -1.35,2.85 a 0.39,0.39 0 0 1 -0.17,0.18 0.49,0.49 0 0 1 -0.48,0 0.39,0.39 0 0 1 -0.17,-0.18 l -1.35,-2.85 a 0.32,0.32 0 0 1 0,-0.14 0.31,0.31 0 0 1 0.13,-0.25 0.44,0.44 0 0 1 0.28,-0.1 0.36,0.36 0 0 1 0.19,0.05 0.33,0.33 0 0 1 0.13,0.16 l 1.07,2.34 1.07,-2.34 a 0.33,0.33 0 0 1 0.07,-0.16 z"
           style="fill:#ffffff"
           id="path375"
           inkscape:connector-curvature="0" />
      </g>
      <g
         id="g385">
        <path
           d="m 95.29,176.59 a 0.24,0.24 0 0 1 0.08,0.18 0.26,0.26 0 0 1 -0.26,0.26 h -0.7 v 0.71 a 0.24,0.24 0 0 1 -0.07,0.18 0.28,0.28 0 0 1 -0.37,0 0.25,0.25 0 0 1 -0.08,-0.18 V 177 h -0.7 a 0.26,0.26 0 0 1 -0.26,-0.26 0.24,0.24 0 0 1 0.08,-0.18 0.25,0.25 0 0 1 0.18,-0.07 h 0.7 v -0.71 a 0.26,0.26 0 0 1 0.52,0 c 0,0 0,0 0,0 v 0.71 h 0.7 a 0.25,0.25 0 0 1 0.18,0.1 z"
           style="fill:#ffffff"
           id="path379"
           inkscape:connector-curvature="0" />
        <path
           d="m 98.43,176.07 a 1,1 0 0 1 0.4,0.4 1.22,1.22 0 0 1 0.14,0.59 1.16,1.16 0 0 1 -0.17,0.62 1.12,1.12 0 0 1 -0.46,0.42 1.52,1.52 0 0 1 -0.69,0.15 2,2 0 0 1 -0.61,-0.09 1.62,1.62 0 0 1 -0.51,-0.26 0.34,0.34 0 0 1 -0.11,-0.12 0.62,0.62 0 0 1 0.07,-0.37 0.22,0.22 0 0 1 0.18,-0.09 h 0.11 l 0.13,0.06 a 2.72,2.72 0 0 0 0.37,0.19 0.93,0.93 0 0 0 0.36,0.07 0.67,0.67 0 0 0 0.46,-0.14 0.52,0.52 0 0 0 0.16,-0.42 0.53,0.53 0 0 0 -0.16,-0.41 0.62,0.62 0 0 0 -0.44,-0.15 1.06,1.06 0 0 0 -0.31,0 1.38,1.38 0 0 0 -0.31,0.14 0.42,0.42 0 0 1 -0.21,0.06 0.29,0.29 0 0 1 -0.2,-0.07 0.24,0.24 0 0 1 -0.08,-0.19 V 175 a 0.33,0.33 0 0 1 0.3,-0.36 h 1.67 c 0.25,0 0.37,0.1 0.37,0.29 0,0.19 -0.12,0.3 -0.37,0.3 H 97.29 V 176 a 1.13,1.13 0 0 1 0.56,-0.13 1.17,1.17 0 0 1 0.58,0.2 z"
           style="fill:#ffffff"
           id="path381"
           inkscape:connector-curvature="0" />
        <path
           d="m 102.67,174.71 a 0.35,0.35 0 0 1 0.19,-0.05 0.41,0.41 0 0 1 0.27,0.1 0.31,0.31 0 0 1 0.12,0.25 0.35,0.35 0 0 1 0,0.15 l -1.38,2.84 a 0.4,0.4 0 0 1 -0.17,0.18 0.49,0.49 0 0 1 -0.48,0 0.4,0.4 0 0 1 -0.17,-0.18 l -1.35,-2.85 a 0.32,0.32 0 0 1 0,-0.15 0.31,0.31 0 0 1 0.13,-0.25 0.44,0.44 0 0 1 0.28,-0.1 0.37,0.37 0 0 1 0.19,0.05 0.32,0.32 0 0 1 0.13,0.16 l 1.07,2.34 1.07,-2.34 a 0.33,0.33 0 0 1 0.1,-0.15 z"
           style="fill:#ffffff"
           id="path383"
           inkscape:connector-curvature="0" />
      </g>
      <g
         id="g395">
        <path
           d="m 95.29,182.15 a 0.25,0.25 0 0 1 0.08,0.18 0.26,0.26 0 0 1 -0.26,0.26 h -0.7 v 0.7 a 0.24,0.24 0 0 1 -0.07,0.18 0.26,0.26 0 0 1 -0.19,0.07 0.25,0.25 0 0 1 -0.18,-0.07 0.24,0.24 0 0 1 -0.08,-0.18 v -0.7 h -0.7 a 0.26,0.26 0 0 1 -0.26,-0.26 0.25,0.25 0 0 1 0.08,-0.18 0.26,0.26 0 0 1 0.18,-0.07 h 0.7 v -0.71 a 0.26,0.26 0 0 1 0.26,-0.26 0.26,0.26 0 0 1 0.26,0.26 v 0.71 h 0.7 a 0.26,0.26 0 0 1 0.18,0.07 z"
           style="fill:#ffffff"
           id="path387"
           inkscape:connector-curvature="0" />
        <path
           d="m 99,183.45 q 0,0.31 -0.37,0.32 H 97 q -0.37,0 -0.37,-0.32 0,-0.32 0.37,-0.31 h 0.46 v -2 l -0.44,0.26 a 0.29,0.29 0 0 1 -0.15,0 0.27,0.27 0 0 1 -0.21,-0.1 0.36,0.36 0 0 1 -0.09,-0.24 0.29,0.29 0 0 1 0.15,-0.26 l 0.79,-0.48 a 0.68,0.68 0 0 1 0.35,-0.1 0.36,0.36 0 0 1 0.38,0.38 v 2.54 h 0.46 a 0.27,0.27 0 0 1 0.3,0.31 z"
           style="fill:#ffffff"
           id="path389"
           inkscape:connector-curvature="0" />
        <path
           d="m 102.47,183.45 q 0,0.31 -0.37,0.32 h -1.86 a 0.34,0.34 0 0 1 -0.25,-0.09 0.31,0.31 0 0 1 -0.09,-0.23 0.47,0.47 0 0 1 0.15,-0.33 l 1.1,-1.17 a 1.1,1.1 0 0 0 0.37,-0.72 0.4,0.4 0 0 0 -0.12,-0.31 0.47,0.47 0 0 0 -0.33,-0.11 0.93,0.93 0 0 0 -0.35,0.06 3,3 0 0 0 -0.37,0.19 l -0.13,0.07 h -0.1 a 0.22,0.22 0 0 1 -0.18,-0.1 0.36,0.36 0 0 1 -0.08,-0.23 0.33,0.33 0 0 1 0,-0.16 0.31,0.31 0 0 1 0.11,-0.11 1.94,1.94 0 0 1 1.1,-0.36 1.51,1.51 0 0 1 0.62,0.12 0.94,0.94 0 0 1 0.41,0.34 0.92,0.92 0 0 1 0.15,0.51 1.26,1.26 0 0 1 -0.13,0.57 2.48,2.48 0 0 1 -0.43,0.58 l -0.79,0.83 h 1.16 q 0.41,0.02 0.41,0.33 z"
           style="fill:#ffffff"
           id="path391"
           inkscape:connector-curvature="0" />
        <path
           d="m 106.18,180.26 a 0.35,0.35 0 0 1 0.19,-0.05 0.41,0.41 0 0 1 0.27,0.1 0.31,0.31 0 0 1 0.12,0.25 0.35,0.35 0 0 1 0,0.15 l -1.35,2.85 a 0.4,0.4 0 0 1 -0.17,0.18 0.49,0.49 0 0 1 -0.48,0 0.4,0.4 0 0 1 -0.17,-0.18 l -1.35,-2.85 a 0.32,0.32 0 0 1 0,-0.14 0.31,0.31 0 0 1 0.13,-0.25 0.44,0.44 0 0 1 0.28,-0.1 0.37,0.37 0 0 1 0.19,0.05 0.33,0.33 0 0 1 0.13,0.16 l 1.07,2.34 1.07,-2.34 a 0.34,0.34 0 0 1 0.07,-0.17 z"
           style="fill:#ffffff"
           id="path393"
           inkscape:connector-curvature="0" />
      </g>
      <g
         id="g403">
        <path
           d="m 95.94,187.45 a 0.28,0.28 0 0 1 0.08,0.21 v 1 a 1.17,1.17 0 0 1 0,0.31 0.35,0.35 0 0 1 -0.11,0.17 0.71,0.71 0 0 1 -0.24,0.11 2.89,2.89 0 0 1 -0.45,0.09 3.47,3.47 0 0 1 -0.48,0 2,2 0 0 1 -1,-0.22 1.5,1.5 0 0 1 -0.63,-0.62 2.22,2.22 0 0 1 0,-1.93 1.5,1.5 0 0 1 0.62,-0.63 2,2 0 0 1 0.95,-0.22 1.8,1.8 0 0 1 1.15,0.36 0.37,0.37 0 0 1 0.1,0.12 0.33,0.33 0 0 1 0,0.15 0.36,0.36 0 0 1 -0.07,0.22 0.22,0.22 0 0 1 -0.17,0.09 h -0.12 l -0.13,-0.06 a 1.71,1.71 0 0 0 -0.38,-0.19 1.27,1.27 0 0 0 -0.38,-0.05 q -1,0 -1,1.18 a 1.34,1.34 0 0 0 0.27,0.91 1,1 0 0 0 0.8,0.3 2.31,2.31 0 0 0 0.58,-0.07 v -0.78 h -0.46 a 0.33,0.33 0 0 1 -0.23,-0.07 0.29,0.29 0 0 1 0,-0.4 0.33,0.33 0 0 1 0.23,-0.07 h 0.85 a 0.31,0.31 0 0 1 0.22,0.09 z"
           style="fill:#ffffff"
           id="path397"
           inkscape:connector-curvature="0" />
        <path
           d="m 100.14,185.88 a 0.38,0.38 0 0 1 0.1,0.28 V 189 a 0.39,0.39 0 0 1 -0.1,0.28 0.39,0.39 0 0 1 -0.56,0 l -1.67,-2.14 V 189 a 0.4,0.4 0 0 1 -0.1,0.28 0.36,0.36 0 0 1 -0.52,0 0.39,0.39 0 0 1 -0.1,-0.28 v -2.8 a 0.38,0.38 0 0 1 0.1,-0.28 0.35,0.35 0 0 1 0.27,-0.11 0.34,0.34 0 0 1 0.29,0.13 l 1.66,2.06 v -1.87 a 0.39,0.39 0 0 1 0.1,-0.28 0.34,0.34 0 0 1 0.26,-0.11 0.35,0.35 0 0 1 0.27,0.14 z"
           style="fill:#ffffff"
           id="path399"
           inkscape:connector-curvature="0" />
        <path
           d="m 101.53,189.22 a 0.37,0.37 0 0 1 -0.09,-0.27 v -2.79 a 0.33,0.33 0 0 1 0.3,-0.36 h 1.07 a 2.16,2.16 0 0 1 1,0.21 1.47,1.47 0 0 1 0.63,0.61 1.91,1.91 0 0 1 0.22,0.94 2,2 0 0 1 -0.22,0.95 1.46,1.46 0 0 1 -0.63,0.61 2.19,2.19 0 0 1 -1,0.21 h -1 a 0.37,0.37 0 0 1 -0.28,-0.11 z m 1.22,-0.53 a 1.14,1.14 0 1 0 0,-2.27 h -0.54 v 2.27 z"
           style="fill:#ffffff"
           id="path401"
           inkscape:connector-curvature="0" />
      </g>
      <g
         id="g411">
        <path
           d="m 95.94,193 a 0.28,0.28 0 0 1 0.08,0.21 v 1 a 1.16,1.16 0 0 1 0,0.31 0.35,0.35 0 0 1 -0.11,0.18 0.69,0.69 0 0 1 -0.24,0.11 2.77,2.77 0 0 1 -0.45,0.09 3.47,3.47 0 0 1 -0.48,0 2,2 0 0 1 -1,-0.22 1.5,1.5 0 0 1 -0.63,-0.62 2.22,2.22 0 0 1 0,-1.93 1.5,1.5 0 0 1 0.62,-0.63 2,2 0 0 1 0.95,-0.22 1.8,1.8 0 0 1 1.15,0.36 0.37,0.37 0 0 1 0.1,0.12 0.33,0.33 0 0 1 0,0.15 0.36,0.36 0 0 1 -0.07,0.22 0.22,0.22 0 0 1 -0.17,0.09 h -0.12 l -0.13,-0.07 a 1.7,1.7 0 0 0 -0.38,-0.18 1.27,1.27 0 0 0 -0.38,-0.06 q -1,0 -1,1.19 a 1.34,1.34 0 0 0 0.32,0.9 1,1 0 0 0 0.8,0.3 2.26,2.26 0 0 0 0.58,-0.08 v -0.77 h -0.46 a 0.33,0.33 0 0 1 -0.23,-0.07 0.29,0.29 0 0 1 0,-0.4 0.33,0.33 0 0 1 0.23,-0.07 h 0.85 a 0.31,0.31 0 0 1 0.17,0.09 z"
           style="fill:#ffffff"
           id="path405"
           inkscape:connector-curvature="0" />
        <path
           d="m 100.14,191.43 a 0.39,0.39 0 0 1 0.1,0.28 v 2.81 a 0.39,0.39 0 0 1 -0.1,0.28 0.39,0.39 0 0 1 -0.56,0 l -1.67,-2.15 v 1.89 a 0.41,0.41 0 0 1 -0.1,0.28 0.36,0.36 0 0 1 -0.52,0 0.39,0.39 0 0 1 -0.1,-0.28 v -2.81 a 0.39,0.39 0 0 1 0.1,-0.28 0.35,0.35 0 0 1 0.27,-0.11 0.34,0.34 0 0 1 0.29,0.13 l 1.67,2.13 v -1.87 a 0.39,0.39 0 0 1 0.1,-0.28 0.34,0.34 0 0 1 0.26,-0.11 0.36,0.36 0 0 1 0.26,0.09 z"
           style="fill:#ffffff"
           id="path407"
           inkscape:connector-curvature="0" />
        <path
           d="m 101.53,194.78 a 0.37,0.37 0 0 1 -0.09,-0.27 v -2.79 a 0.33,0.33 0 0 1 0.3,-0.36 h 1.07 a 2.16,2.16 0 0 1 1,0.21 1.47,1.47 0 0 1 0.63,0.6 1.92,1.92 0 0 1 0.22,0.95 2,2 0 0 1 -0.22,0.95 1.45,1.45 0 0 1 -0.63,0.61 2.17,2.17 0 0 1 -1,0.21 h -1 a 0.37,0.37 0 0 1 -0.28,-0.11 z m 1.22,-0.54 a 1.13,1.13 0 0 0 0,-2.26 h -0.54 v 2.26 z"
           style="fill:#ffffff"
           id="path409"
           inkscape:connector-curvature="0" />
      </g>
      <g
         id="g419">
        <path
           d="m 95.94,198.56 a 0.28,0.28 0 0 1 0.08,0.21 v 1 a 1.16,1.16 0 0 1 0,0.31 0.35,0.35 0 0 1 -0.11,0.17 0.69,0.69 0 0 1 -0.24,0.11 2.88,2.88 0 0 1 -0.45,0.09 3.47,3.47 0 0 1 -0.48,0 2,2 0 0 1 -1,-0.22 1.5,1.5 0 0 1 -0.63,-0.62 2.22,2.22 0 0 1 0,-1.92 1.51,1.51 0 0 1 0.62,-0.63 2,2 0 0 1 0.95,-0.22 1.8,1.8 0 0 1 1.15,0.36 0.37,0.37 0 0 1 0.1,0.12 0.33,0.33 0 0 1 0,0.15 0.35,0.35 0 0 1 -0.07,0.22 0.22,0.22 0 0 1 -0.17,0.09 h -0.12 l -0.13,-0.06 a 1.75,1.75 0 0 0 -0.38,-0.19 1.3,1.3 0 0 0 -0.38,-0.05 q -1,0 -1,1.18 a 1.34,1.34 0 0 0 0.27,0.91 1,1 0 0 0 0.8,0.3 2.26,2.26 0 0 0 0.58,-0.07 V 199 h -0.46 a 0.33,0.33 0 0 1 -0.23,-0.07 0.29,0.29 0 0 1 0,-0.4 0.33,0.33 0 0 1 0.23,-0.07 h 0.85 a 0.31,0.31 0 0 1 0.22,0.1 z"
           style="fill:#ffffff"
           id="path413"
           inkscape:connector-curvature="0" />
        <path
           d="m 100.14,197 a 0.38,0.38 0 0 1 0.1,0.28 v 2.8 a 0.39,0.39 0 0 1 -0.1,0.28 0.35,0.35 0 0 1 -0.27,0.11 0.36,0.36 0 0 1 -0.29,-0.13 l -1.67,-2.14 v 1.88 a 0.4,0.4 0 0 1 -0.1,0.28 0.36,0.36 0 0 1 -0.52,0 0.39,0.39 0 0 1 -0.1,-0.28 v -2.8 a 0.38,0.38 0 0 1 0.1,-0.28 0.35,0.35 0 0 1 0.27,-0.11 0.34,0.34 0 0 1 0.29,0.13 l 1.67,2.13 v -1.87 a 0.39,0.39 0 0 1 0.1,-0.28 0.34,0.34 0 0 1 0.26,-0.11 0.35,0.35 0 0 1 0.26,0.11 z"
           style="fill:#ffffff"
           id="path415"
           inkscape:connector-curvature="0" />
        <path
           d="m 101.53,200.33 a 0.37,0.37 0 0 1 -0.09,-0.27 v -2.79 a 0.33,0.33 0 0 1 0.28,-0.37 h 1.09 a 2.18,2.18 0 0 1 1,0.21 1.47,1.47 0 0 1 0.63,0.61 1.91,1.91 0 0 1 0.22,0.94 2,2 0 0 1 -0.22,0.95 1.46,1.46 0 0 1 -0.63,0.61 2.19,2.19 0 0 1 -1,0.21 h -1 a 0.37,0.37 0 0 1 -0.28,-0.1 z m 1.22,-0.53 a 1.14,1.14 0 0 0 0,-2.27 h -0.54 v 2.27 z"
           style="fill:#ffffff"
           id="path417"
           inkscape:connector-curvature="0" />
      </g>
      <g
         id="g429">
        <path
           d="m 92.89,204.64 c 0,-0.2 0.12,-0.29 0.36,-0.29 h 1 c 0.24,0 0.36,0.1 0.36,0.29 0,0.19 -0.12,0.29 -0.36,0.29 h -1 q -0.36,0.01 -0.36,-0.29 z"
           style="fill:#ffffff"
           id="path421"
           inkscape:connector-curvature="0" />
        <path
           d="m 98.23,205.67 c 0,0.21 -0.12,0.32 -0.37,0.32 h -1.7 q -0.37,0 -0.37,-0.32 0,-0.32 0.37,-0.31 h 0.47 v -2 l -0.44,0.26 a 0.29,0.29 0 0 1 -0.15,0 0.27,0.27 0 0 1 -0.21,-0.1 0.36,0.36 0 0 1 -0.09,-0.24 0.29,0.29 0 0 1 0.16,-0.26 l 0.79,-0.48 a 0.68,0.68 0 0 1 0.35,-0.1 0.36,0.36 0 0 1 0.38,0.38 v 2.54 h 0.46 c 0.23,0 0.35,0.1 0.35,0.31 z"
           style="fill:#ffffff"
           id="path423"
           inkscape:connector-curvature="0" />
        <path
           d="m 101.67,205.67 c 0,0.21 -0.12,0.32 -0.37,0.32 h -1.86 a 0.33,0.33 0 0 1 -0.25,-0.09 0.31,0.31 0 0 1 -0.09,-0.23 0.46,0.46 0 0 1 0.14,-0.33 l 1.1,-1.17 a 1.11,1.11 0 0 0 0.37,-0.72 0.41,0.41 0 0 0 -0.12,-0.31 0.47,0.47 0 0 0 -0.33,-0.11 0.92,0.92 0 0 0 -0.35,0.06 2.87,2.87 0 0 0 -0.37,0.19 l -0.13,0.07 H 99.3 A 0.22,0.22 0 0 1 99.12,203.25 0.36,0.36 0 0 1 99,203 a 0.34,0.34 0 0 1 0,-0.16 0.31,0.31 0 0 1 0.11,-0.11 1.86,1.86 0 0 1 0.52,-0.26 1.84,1.84 0 0 1 0.59,-0.1 1.5,1.5 0 0 1 0.62,0.12 0.93,0.93 0 0 1 0.41,0.34 0.92,0.92 0 0 1 0.14,0.51 1.26,1.26 0 0 1 -0.13,0.57 2.48,2.48 0 0 1 -0.43,0.58 l -0.79,0.83 h 1.16 c 0.35,0.04 0.47,0.14 0.47,0.35 z"
           style="fill:#ffffff"
           id="path425"
           inkscape:connector-curvature="0" />
        <path
           d="m 104.44,203.53 a 0.32,0.32 0 0 1 0.18,-0.05 0.38,0.38 0 0 1 0.25,0.09 0.28,0.28 0 0 1 0.11,0.22 0.32,0.32 0 0 1 0,0.15 l -0.9,1.84 a 0.37,0.37 0 0 1 -0.15,0.17 0.44,0.44 0 0 1 -0.43,0 0.39,0.39 0 0 1 -0.16,-0.17 l -0.9,-1.84 a 0.35,0.35 0 0 1 0,-0.13 0.29,0.29 0 0 1 0.12,-0.23 0.41,0.41 0 0 1 0.26,-0.09 0.35,0.35 0 0 1 0.19,0.05 0.36,0.36 0 0 1 0.14,0.16 l 0.61,1.34 0.61,-1.34 a 0.36,0.36 0 0 1 0.07,-0.17 z"
           style="fill:#ffffff"
           id="path427"
           inkscape:connector-curvature="0" />
      </g>
    </g>
    <g
       id="g454">
      <g
         id="g449">
        <path
           d="m 21.63,156.47 a 0.73,0.73 0 0 1 0.14,0.45 0.71,0.71 0 0 1 -0.27,0.58 1.17,1.17 0 0 1 -0.75,0.21 h -1.08 a 0.27,0.27 0 0 1 -0.3,-0.3 v -2.31 a 0.27,0.27 0 0 1 0.24,-0.3 h 1.06 a 1.17,1.17 0 0 1 0.72,0.2 0.66,0.66 0 0 1 0.27,0.55 0.67,0.67 0 0 1 -0.12,0.4 0.69,0.69 0 0 1 -0.34,0.25 0.73,0.73 0 0 1 0.43,0.27 z M 20,156 h 0.61 a 0.63,0.63 0 0 0 0.37,-0.08 0.3,0.3 0 0 0 0.12,-0.26 0.31,0.31 0 0 0 -0.12,-0.27 0.63,0.63 0 0 0 -0.37,-0.08 H 20 Z m 1,1.14 a 0.33,0.33 0 0 0 0.12,-0.28 0.34,0.34 0 0 0 -0.12,-0.28 0.6,0.6 0 0 0 -0.37,-0.09 H 20 v 0.74 h 0.68 A 0.62,0.62 0 0 0 21,157.14 Z"
           style="fill:#ffffff"
           id="path433"
           inkscape:connector-curvature="0" />
        <path
           d="m 22.6,157.44 a 1.24,1.24 0 0 1 -0.32,-0.92 v -1.41 a 0.3,0.3 0 0 1 0.28,-0.32 v 0 a 0.31,0.31 0 0 1 0.23,0.09 0.32,0.32 0 0 1 0.08,0.23 v 1.44 a 0.78,0.78 0 0 0 0.16,0.53 0.67,0.67 0 0 0 0.92,0 0.78,0.78 0 0 0 0.16,-0.53 v -1.44 a 0.32,0.32 0 0 1 0.08,-0.23 0.31,0.31 0 0 1 0.23,-0.09 0.3,0.3 0 0 1 0.32,0.32 v 1.41 a 1.24,1.24 0 0 1 -0.32,0.92 1.53,1.53 0 0 1 -1.87,0 z"
           style="fill:#ffffff"
           id="path435"
           inkscape:connector-curvature="0" />
        <path
           d="m 25.87,157.68 a 1.26,1.26 0 0 1 -0.46,-0.22 0.29,0.29 0 0 1 -0.09,-0.1 0.3,0.3 0 0 1 0,-0.31 0.19,0.19 0 0 1 0.15,-0.08 h 0.09 l 0.11,0.05 a 1.37,1.37 0 0 0 0.36,0.16 1.47,1.47 0 0 0 0.4,0.05 0.79,0.79 0 0 0 0.42,-0.09 0.29,0.29 0 0 0 0.14,-0.26 0.23,0.23 0 0 0 -0.13,-0.21 1.74,1.74 0 0 0 -0.48,-0.15 2.63,2.63 0 0 1 -0.61,-0.19 0.8,0.8 0 0 1 -0.33,-0.28 0.73,0.73 0 0 1 -0.11,-0.4 0.78,0.78 0 0 1 0.15,-0.47 1,1 0 0 1 0.42,-0.33 1.48,1.48 0 0 1 0.6,-0.12 1.54,1.54 0 0 1 1,0.29 0.33,0.33 0 0 1 0.09,0.1 0.27,0.27 0 0 1 0,0.13 0.28,0.28 0 0 1 -0.06,0.18 0.19,0.19 0 0 1 -0.15,0.08 H 27.3 l -0.11,-0.05 a 1.72,1.72 0 0 0 -0.31,-0.16 1,1 0 0 0 -0.36,-0.05 0.71,0.71 0 0 0 -0.4,0.1 0.31,0.31 0 0 0 -0.14,0.27 0.24,0.24 0 0 0 0.06,0.16 0.47,0.47 0 0 0 0.19,0.11 l 0.37,0.1 a 2,2 0 0 1 0.81,0.32 0.64,0.64 0 0 1 0.25,0.53 0.78,0.78 0 0 1 -0.15,0.47 1,1 0 0 1 -0.41,0.31 1.59,1.59 0 0 1 -0.62,0.11 2.29,2.29 0 0 1 -0.61,-0.05 z"
           style="fill:#ffffff"
           id="path437"
           inkscape:connector-curvature="0" />
        <path
           d="m 31.7,156.47 a 0.73,0.73 0 0 1 0.14,0.45 0.71,0.71 0 0 1 -0.27,0.58 1.17,1.17 0 0 1 -0.75,0.21 h -1.08 a 0.27,0.27 0 0 1 -0.3,-0.3 v -2.31 a 0.27,0.27 0 0 1 0.24,-0.3 h 1.06 a 1.17,1.17 0 0 1 0.72,0.2 0.66,0.66 0 0 1 0.27,0.55 0.67,0.67 0 0 1 -0.12,0.4 0.69,0.69 0 0 1 -0.34,0.25 0.73,0.73 0 0 1 0.43,0.27 z M 30.07,156 h 0.61 a 0.63,0.63 0 0 0 0.37,-0.08 0.3,0.3 0 0 0 0.12,-0.26 0.31,0.31 0 0 0 -0.12,-0.27 0.63,0.63 0 0 0 -0.37,-0.08 h -0.61 z m 1,1.15 a 0.33,0.33 0 0 0 0.12,-0.28 0.34,0.34 0 0 0 -0.12,-0.28 0.6,0.6 0 0 0 -0.37,-0.09 h -0.68 v 0.74 h 0.68 a 0.62,0.62 0 0 0 0.37,-0.1 z"
           style="fill:#ffffff"
           id="path439"
           inkscape:connector-curvature="0" />
        <path
           d="m 33,157.58 a 1.24,1.24 0 0 1 -0.49,-0.52 1.89,1.89 0 0 1 0,-1.58 1.23,1.23 0 0 1 0.49,-0.48 1.65,1.65 0 0 1 1.51,0 1.23,1.23 0 0 1 0.49,0.52 1.89,1.89 0 0 1 0,1.58 1.24,1.24 0 0 1 -0.49,0.52 1.64,1.64 0 0 1 -1.51,0 z m 1.33,-0.57 a 1.42,1.42 0 0 0 0,-1.48 0.77,0.77 0 0 0 -1.09,-0.06 l -0.06,0.06 a 1.43,1.43 0 0 0 0,1.48 0.76,0.76 0 0 0 1.07,0.07 l 0.07,-0.07 z"
           style="fill:#ffffff"
           id="path441"
           inkscape:connector-curvature="0" />
        <path
           d="m 38.37,157.46 a 0.25,0.25 0 0 1 -0.09,0.2 0.32,0.32 0 0 1 -0.21,0.08 0.19,0.19 0 0 1 -0.26,-0.13 l -0.22,-0.49 h -1.4 l -0.22,0.49 a 0.27,0.27 0 0 1 -0.26,0.17 0.32,0.32 0 0 1 -0.21,-0.08 0.25,0.25 0 0 1 -0.1,-0.2 0.34,0.34 0 0 1 0,-0.13 L 36.55,155 a 0.32,0.32 0 0 1 0.14,-0.15 0.39,0.39 0 0 1 0.39,0 0.37,0.37 0 0 1 0.14,0.15 l 1.12,2.34 a 0.34,0.34 0 0 1 0.03,0.12 z m -2,-0.87 h 1 l -0.48,-1.07 z"
           style="fill:#ffffff"
           id="path443"
           inkscape:connector-curvature="0" />
        <path
           d="m 41.26,157.49 a 0.23,0.23 0 0 1 -0.09,0.19 0.35,0.35 0 0 1 -0.37,0 0.31,0.31 0 0 1 -0.12,-0.12 l -0.55,-0.81 a 0.48,0.48 0 0 0 -0.15,-0.15 0.38,0.38 0 0 0 -0.2,0 h -0.33 v 0.83 a 0.32,0.32 0 0 1 -0.08,0.24 0.31,0.31 0 0 1 -0.23,0.09 0.3,0.3 0 0 1 -0.32,-0.32 v -2.31 a 0.27,0.27 0 0 1 0.24,-0.3 h 1.06 a 1.16,1.16 0 0 1 0.77,0.23 0.81,0.81 0 0 1 0.26,0.65 0.84,0.84 0 0 1 -0.19,0.56 0.89,0.89 0 0 1 -0.53,0.29 0.54,0.54 0 0 1 0.22,0.1 0.84,0.84 0 0 1 0.19,0.21 l 0.31,0.47 a 0.31,0.31 0 0 1 0.11,0.15 z M 40.45,156 a 0.44,0.44 0 0 0 0,-0.61 0.67,0.67 0 0 0 -0.4,-0.09 h -0.62 v 0.8 H 40 a 0.66,0.66 0 0 0 0.45,-0.1 z"
           style="fill:#ffffff"
           id="path445"
           inkscape:connector-curvature="0" />
        <path
           d="m 41.87,157.65 a 0.3,0.3 0 0 1 -0.08,-0.22 v -2.31 a 0.27,0.27 0 0 1 0.24,-0.3 h 0.89 a 1.79,1.79 0 0 1 0.82,0.17 1.21,1.21 0 0 1 0.52,0.5 1.58,1.58 0 0 1 0.18,0.78 1.61,1.61 0 0 1 -0.18,0.78 1.2,1.2 0 0 1 -0.52,0.5 1.81,1.81 0 0 1 -0.82,0.17 h -0.83 a 0.3,0.3 0 0 1 -0.22,-0.07 z m 1,-0.44 a 0.94,0.94 0 0 0 0,-1.87 h -0.44 v 1.87 z"
           style="fill:#ffffff"
           id="path447"
           inkscape:connector-curvature="0" />
      </g>
      <g
         id="g1794">
        <g
           id="g1792">
          <path
             id="path1790"
             d="m 18.25,155.39 a 0.22,0.22 0 0 0 -0.1,-0.13 0.19,0.19 0 0 0 -0.16,0 0.22,0.22 0 0 0 -0.13,0.1 10.83,10.83 0 0 1 -0.82,1.25 5.3,5.3 0 0 1 -0.51,-1.59 v -0.1 l 0.49,-0.69 c 0.06,-0.08 0.31,-0.38 -0.19,-0.6 a 0.78,0.78 0 0 0 -0.58,0 c -0.57,0.25 -0.47,1 -0.46,1.18 a 0.55,0.55 0 0 0 0,0.15 l -0.93,1.53 0.14,-0.95 a 0.34,0.34 0 0 0 -0.26,-0.39 v 0 c -0.25,-0.06 -0.4,0 -0.56,0.65 -0.16,0.65 -0.63,1.88 -1,1.87 -0.37,-0.01 -0.06,-0.84 0.17,-1.45 A 4.78,4.78 0 0 1 15.08,154 c 0.17,-0.11 0.39,-0.37 0.16,-0.63 -0.23,-0.26 -0.61,-0.07 -0.74,0 A 3.62,3.62 0 0 0 13.64,154.44 5.62,5.62 0 0 0 13,156 c -0.25,0.8 -0.51,2.1 0,2.15 0.74,0.07 1.33,-1.37 1.33,-1.37 0,0 0,0.75 0.34,0.77 0.34,0.02 1.11,-1.45 1.32,-2 a 5.51,5.51 0 0 0 0.62,1.37 v 0.1 a 10.35,10.35 0 0 0 -1.12,2 0.2,0.2 0 0 0 0,0.18 0.19,0.19 0 0 0 0.12,0.1 0.28,0.28 0 0 0 0.18,0 l 0.16,-0.09 c 1.19,-0.68 1.36,-1.48 1.27,-2.09 l 0.06,-0.1 a 10.4,10.4 0 0 0 1,-1.42 0.19,0.19 0 0 0 0,-0.16 z"
             style="fill:#ffffff"
             inkscape:connector-curvature="0" />
        </g>
      </g>
    </g>
    <g
       id="g488">
      <g
         id="g462">
        <polygon
           points="2.36,167.64 3.96,166.76 4,164.93 2.44,163.98 0.83,164.86 0.79,166.69 "
           style="fill:#bb9965"
           id="polygon456" />
        <circle
           cx="2.4100001"
           cy="165.8"
           r="0.89999998"
           transform="rotate(-58.68,2.4082275,165.79671)"
           style="fill:#bbbdbf"
           id="circle458" />
        <path
           d="M 2.15,165 H 0 v 1.6 h 2.15 a 0.8,0.8 0 1 0 0,-1.6 z"
           style="fill:#929497"
           id="path460"
           inkscape:connector-curvature="0" />
      </g>
      <g
         id="g470">
        <polygon
           points="2.36,180.32 3.96,179.44 4,177.61 2.44,176.66 0.83,177.53 0.79,179.37 "
           style="fill:#bb9965"
           id="polygon464" />
        <circle
           cx="2.4100001"
           cy="178.48"
           r="0.89999998"
           transform="rotate(-58.68,2.4054885,178.48426)"
           style="fill:#bbbdbf"
           id="circle466" />
        <path
           d="M 2.15,177.65 H 0 v 1.6 h 2.15 a 0.8,0.8 0 1 0 0,-1.6 z"
           style="fill:#929497"
           id="path468"
           inkscape:connector-curvature="0" />
      </g>
      <g
         id="g478">
        <polygon
           points="2.36,193 3.96,192.12 4,190.29 2.44,189.33 0.83,190.21 0.79,192.04 "
           style="fill:#bb9965"
           id="polygon472" />
        <circle
           cx="2.4000001"
           cy="191.14999"
           r="0.89999998"
           transform="rotate(-58.68,2.4038541,191.14901)"
           style="fill:#bbbdbf"
           id="circle474" />
        <path
           d="M 2.15,190.33 H 0 v 1.6 h 2.15 a 0.8,0.8 0 1 0 0,-1.6 z"
           style="fill:#929497"
           id="path476"
           inkscape:connector-curvature="0" />
      </g>
      <g
         id="g486">
        <polygon
           points="2.36,205.67 3.96,204.79 4,202.96 2.44,202.01 0.83,202.89 0.79,204.72 "
           style="fill:#bb9965"
           id="polygon480" />
        <circle
           cx="2.4000001"
           cy="203.83"
           r="0.89999998"
           transform="rotate(-58.68,2.4061151,203.82767)"
           style="fill:#bbbdbf"
           id="circle482" />
        <path
           d="M 2.15,203 H 0 v 1.6 h 2.15 a 0.8,0.8 0 1 0 0,-1.6 z"
           style="fill:#929497"
           id="path484"
           inkscape:connector-curvature="0" />
      </g>
    </g>
    <g
       id="g522">
      <g
         id="g496">
        <polygon
           points="117.52,202.01 115.92,202.89 115.87,204.72 117.44,205.67 119.05,204.79 119.09,202.96 "
           style="fill:#bb9965"
           id="polygon490" />
        <circle
           cx="117.47"
           cy="203.83"
           r="0.89999998"
           transform="rotate(-58.68,117.47229,203.83092)"
           style="fill:#bbbdbf"
           id="circle492" />
        <path
           d="m 117.72,204.68 h 2.15 v -1.6 h -2.15 a 0.8,0.8 0 0 0 0,1.6 z"
           style="fill:#929497"
           id="path494"
           inkscape:connector-curvature="0" />
      </g>
      <g
         id="g504">
        <polygon
           points="117.52,189.33 115.92,190.21 115.87,192.04 117.44,193 119.05,192.12 119.09,190.29 "
           style="fill:#bb9965"
           id="polygon498" />
        <circle
           cx="117.47"
           cy="191.14999"
           r="0.89999998"
           transform="rotate(-58.68,117.47003,191.15227)"
           style="fill:#bbbdbf"
           id="circle500" />
        <path
           d="m 117.72,192 h 2.15 v -1.6 h -2.15 a 0.8,0.8 0 0 0 0,1.6 z"
           style="fill:#929497"
           id="path502"
           inkscape:connector-curvature="0" />
      </g>
      <g
         id="g512">
        <polygon
           points="117.52,176.66 115.92,177.53 115.87,179.37 117.44,180.32 119.05,179.44 119.09,177.61 "
           style="fill:#bb9965"
           id="polygon506" />
        <circle
           cx="117.48"
           cy="178.48"
           r="0.89999998"
           transform="rotate(-58.68,117.47666,178.47862)"
           style="fill:#bbbdbf"
           id="circle508" />
        <path
           d="m 117.72,179.32 h 2.15 v -1.6 h -2.15 a 0.8,0.8 0 0 0 0,1.6 z"
           style="fill:#929497"
           id="path510"
           inkscape:connector-curvature="0" />
      </g>
      <g
         id="g520">
        <polygon
           points="117.52,163.98 115.92,164.86 115.87,166.69 117.44,167.64 119.05,166.76 119.09,164.93 "
           style="fill:#bb9965"
           id="polygon514" />
        <circle
           cx="117.48"
           cy="165.8"
           r="0.89999998"
           transform="rotate(-58.68,117.4744,165.79997)"
           style="fill:#bbbdbf"
           id="circle516" />
        <path
           d="m 117.72,166.65 h 2.15 V 165 h -2.15 a 0.8,0.8 0 0 0 0,1.6 z"
           style="fill:#929497"
           id="path518"
           inkscape:connector-curvature="0" />
      </g>
    </g>
    <g
       id="g530">
      <path
         d="m 8.57,165.81 a 0.24,0.24 0 0 1 0.08,0.18 0.26,0.26 0 0 1 -0.26,0.26 H 7.69 V 167 a 0.24,0.24 0 0 1 -0.07,0.18 0.28,0.28 0 0 1 -0.37,0 A 0.25,0.25 0 0 1 7.17,167 v -0.71 H 6.47 A 0.26,0.26 0 0 1 6.2,166 a 0.24,0.24 0 0 1 0.08,-0.18 0.25,0.25 0 0 1 0.18,-0.07 h 0.7 V 165 a 0.26,0.26 0 0 1 0.52,0 c 0,0 0,0 0,0 v 0.71 h 0.7 a 0.25,0.25 0 0 1 0.19,0.1 z"
         style="fill:#ffffff"
         id="path524"
         inkscape:connector-curvature="0" />
      <path
         d="m 11.72,165.29 a 1,1 0 0 1 0.4,0.4 1.22,1.22 0 0 1 0.14,0.59 1.16,1.16 0 0 1 -0.17,0.62 1.12,1.12 0 0 1 -0.46,0.42 1.52,1.52 0 0 1 -0.69,0.15 2,2 0 0 1 -0.61,-0.09 1.62,1.62 0 0 1 -0.51,-0.26 0.34,0.34 0 0 1 -0.11,-0.12 0.62,0.62 0 0 1 0.07,-0.37 0.22,0.22 0 0 1 0.18,-0.09 h 0.11 l 0.13,0.06 a 2.72,2.72 0 0 0 0.37,0.19 0.93,0.93 0 0 0 0.36,0.07 0.67,0.67 0 0 0 0.46,-0.14 0.52,0.52 0 0 0 0.16,-0.42 0.53,0.53 0 0 0 -0.16,-0.41 0.62,0.62 0 0 0 -0.44,-0.15 1.06,1.06 0 0 0 -0.31,0 1.38,1.38 0 0 0 -0.31,0.14 0.42,0.42 0 0 1 -0.21,0.06 0.29,0.29 0 0 1 -0.2,-0.07 0.24,0.24 0 0 1 -0.08,-0.19 v -1.46 a 0.33,0.33 0 0 1 0.3,-0.36 h 1.67 c 0.25,0 0.37,0.1 0.37,0.29 0,0.19 -0.12,0.3 -0.37,0.3 h -1.24 v 0.79 a 1.13,1.13 0 0 1 0.56,-0.13 1.17,1.17 0 0 1 0.59,0.18 z"
         style="fill:#ffffff"
         id="path526"
         inkscape:connector-curvature="0" />
      <path
         d="m 16,163.92 a 0.35,0.35 0 0 1 0.19,-0.05 0.41,0.41 0 0 1 0.27,0.1 0.31,0.31 0 0 1 0.12,0.25 0.35,0.35 0 0 1 0,0.15 l -1.35,2.85 a 0.4,0.4 0 0 1 -0.17,0.18 0.49,0.49 0 0 1 -0.48,0 0.4,0.4 0 0 1 -0.17,-0.18 L 13,164.36 a 0.32,0.32 0 0 1 0,-0.15 0.31,0.31 0 0 1 0.13,-0.25 0.44,0.44 0 0 1 0.28,-0.1 0.37,0.37 0 0 1 0.19,0.05 0.32,0.32 0 0 1 0.13,0.16 l 1.07,2.34 1.07,-2.34 A 0.33,0.33 0 0 1 16,163.92 Z"
         style="fill:#ffffff"
         id="path528"
         inkscape:connector-curvature="0" />
    </g>
    <g
       id="g540">
      <path
         d="m 8.57,178.4 a 0.25,0.25 0 0 1 0.08,0.18 0.26,0.26 0 0 1 -0.26,0.26 h -0.7 v 0.7 a 0.24,0.24 0 0 1 -0.07,0.18 0.26,0.26 0 0 1 -0.19,0.07 0.25,0.25 0 0 1 -0.18,-0.07 0.24,0.24 0 0 1 -0.08,-0.18 v -0.7 h -0.7 a 0.26,0.26 0 0 1 -0.26,-0.26 0.25,0.25 0 0 1 0.08,-0.18 0.26,0.26 0 0 1 0.18,-0.07 h 0.7 v -0.71 a 0.26,0.26 0 0 1 0.26,-0.26 0.26,0.26 0 0 1 0.26,0.26 v 0.71 h 0.7 a 0.26,0.26 0 0 1 0.18,0.07 z"
         style="fill:#ffffff"
         id="path532"
         inkscape:connector-curvature="0" />
      <path
         d="m 12.32,179.7 q 0,0.31 -0.37,0.32 h -1.71 q -0.37,0 -0.37,-0.32 0,-0.32 0.37,-0.31 h 0.46 v -2 l -0.44,0.26 a 0.29,0.29 0 0 1 -0.15,0 A 0.27,0.27 0 0 1 9.9,177.55 0.36,0.36 0 0 1 9.81,177.31 0.29,0.29 0 0 1 10,177 l 0.79,-0.48 a 0.68,0.68 0 0 1 0.35,-0.1 0.36,0.36 0 0 1 0.38,0.38 v 2.54 H 12 a 0.28,0.28 0 0 1 0.32,0.36 z"
         style="fill:#ffffff"
         id="path534"
         inkscape:connector-curvature="0" />
      <path
         d="m 15.75,179.7 q 0,0.31 -0.37,0.32 h -1.86 a 0.34,0.34 0 0 1 -0.25,-0.09 0.31,0.31 0 0 1 -0.09,-0.23 0.47,0.47 0 0 1 0.15,-0.33 l 1.1,-1.17 a 1.1,1.1 0 0 0 0.37,-0.72 0.4,0.4 0 0 0 -0.12,-0.31 0.47,0.47 0 0 0 -0.33,-0.11 0.93,0.93 0 0 0 -0.35,0.06 3,3 0 0 0 -0.37,0.19 l -0.13,0.07 h -0.1 a 0.22,0.22 0 0 1 -0.18,-0.1 0.36,0.36 0 0 1 -0.08,-0.23 0.33,0.33 0 0 1 0,-0.16 0.31,0.31 0 0 1 0.11,-0.11 1.94,1.94 0 0 1 1.1,-0.36 1.51,1.51 0 0 1 0.62,0.12 0.94,0.94 0 0 1 0.41,0.34 0.92,0.92 0 0 1 0.15,0.51 1.26,1.26 0 0 1 -0.13,0.57 2.48,2.48 0 0 1 -0.43,0.58 l -0.79,0.83 h 1.16 q 0.41,0.02 0.41,0.33 z"
         style="fill:#ffffff"
         id="path536"
         inkscape:connector-curvature="0" />
      <path
         d="m 19.46,176.51 a 0.35,0.35 0 0 1 0.19,-0.05 0.41,0.41 0 0 1 0.27,0.1 0.31,0.31 0 0 1 0.12,0.25 0.35,0.35 0 0 1 0,0.15 l -1.35,2.85 a 0.4,0.4 0 0 1 -0.17,0.18 0.49,0.49 0 0 1 -0.48,0 0.4,0.4 0 0 1 -0.17,-0.18 L 16.49,177 a 0.32,0.32 0 0 1 0,-0.14 0.31,0.31 0 0 1 0.13,-0.25 0.44,0.44 0 0 1 0.28,-0.1 0.37,0.37 0 0 1 0.19,0.05 0.33,0.33 0 0 1 0.13,0.16 l 1,2.28 1.07,-2.34 a 0.34,0.34 0 0 1 0.17,-0.15 z"
         style="fill:#ffffff"
         id="path538"
         inkscape:connector-curvature="0" />
    </g>
    <g
       id="g548">
      <path
         d="m 9.25,190.95 a 0.28,0.28 0 0 1 0.08,0.21 v 1 a 1.17,1.17 0 0 1 0,0.31 0.35,0.35 0 0 1 -0.11,0.17 0.71,0.71 0 0 1 -0.24,0.11 2.89,2.89 0 0 1 -0.45,0.09 3.47,3.47 0 0 1 -0.48,0 2,2 0 0 1 -1,-0.22 1.5,1.5 0 0 1 -0.63,-0.62 2.22,2.22 0 0 1 0,-1.93 1.5,1.5 0 0 1 0.62,-0.63 2,2 0 0 1 0.95,-0.22 1.8,1.8 0 0 1 1.15,0.36 0.37,0.37 0 0 1 0.1,0.12 0.33,0.33 0 0 1 0,0.15 0.36,0.36 0 0 1 -0.07,0.22 A 0.22,0.22 0 0 1 9,190.16 H 8.88 L 8.75,190.1 a 1.71,1.71 0 0 0 -0.38,-0.19 1.27,1.27 0 0 0 -0.38,-0.05 q -1,0 -1,1.18 a 1.34,1.34 0 0 0 0.27,0.91 1,1 0 0 0 0.8,0.3 2.31,2.31 0 0 0 0.58,-0.07 V 191.4 H 8.17 a 0.33,0.33 0 0 1 -0.23,-0.07 0.29,0.29 0 0 1 0,-0.4 0.33,0.33 0 0 1 0.23,-0.07 H 9 a 0.31,0.31 0 0 1 0.25,0.09 z"
         style="fill:#ffffff"
         id="path542"
         inkscape:connector-curvature="0" />
      <path
         d="m 13.45,189.37 a 0.38,0.38 0 0 1 0.1,0.28 v 2.8 a 0.39,0.39 0 0 1 -0.1,0.28 0.39,0.39 0 0 1 -0.56,0 l -1.67,-2.14 v 1.88 a 0.4,0.4 0 0 1 -0.1,0.28 0.36,0.36 0 0 1 -0.52,0 0.39,0.39 0 0 1 -0.1,-0.28 v -2.8 a 0.38,0.38 0 0 1 0.1,-0.28 0.35,0.35 0 0 1 0.27,-0.11 0.34,0.34 0 0 1 0.29,0.13 l 1.67,2.13 v -1.87 a 0.39,0.39 0 0 1 0.1,-0.28 0.34,0.34 0 0 1 0.26,-0.11 0.35,0.35 0 0 1 0.26,0.09 z"
         style="fill:#ffffff"
         id="path544"
         inkscape:connector-curvature="0" />
      <path
         d="m 14.85,192.72 a 0.37,0.37 0 0 1 -0.09,-0.27 v -2.79 a 0.33,0.33 0 0 1 0.3,-0.36 h 1.07 a 2.16,2.16 0 0 1 1,0.21 1.47,1.47 0 0 1 0.63,0.61 1.91,1.91 0 0 1 0.24,0.88 2,2 0 0 1 -0.22,0.95 1.46,1.46 0 0 1 -0.63,0.61 2.19,2.19 0 0 1 -1,0.21 h -1 a 0.37,0.37 0 0 1 -0.3,-0.05 z m 1.22,-0.53 a 1.14,1.14 0 1 0 0,-2.27 h -0.54 v 2.27 z"
         style="fill:#ffffff"
         id="path546"
         inkscape:connector-curvature="0" />
    </g>
    <g
       id="g558">
      <path
         d="m 6.2,204 c 0,-0.2 0.12,-0.29 0.36,-0.29 h 1 c 0.24,0 0.36,0.1 0.36,0.29 0,0.19 -0.12,0.29 -0.36,0.29 h -1 Q 6.2,204.31 6.2,204 Z"
         style="fill:#ffffff"
         id="path550"
         inkscape:connector-curvature="0" />
      <path
         d="m 11.54,205 c 0,0.21 -0.12,0.32 -0.37,0.32 h -1.7 q -0.37,0 -0.37,-0.32 0,-0.32 0.37,-0.31 h 0.47 v -2 l -0.44,0.26 a 0.29,0.29 0 0 1 -0.15,0 0.27,0.27 0 0 1 -0.21,-0.1 0.36,0.36 0 0 1 -0.09,-0.24 0.29,0.29 0 0 1 0.16,-0.26 L 10,201.87 a 0.68,0.68 0 0 1 0.35,-0.1 0.36,0.36 0 0 1 0.38,0.38 v 2.54 h 0.46 c 0.23,0.04 0.35,0.14 0.35,0.31 z"
         style="fill:#ffffff"
         id="path552"
         inkscape:connector-curvature="0" />
      <path
         d="m 15,205 c 0,0.21 -0.12,0.32 -0.37,0.32 h -1.88 a 0.33,0.33 0 0 1 -0.25,-0.09 0.31,0.31 0 0 1 -0.09,-0.23 0.46,0.46 0 0 1 0.14,-0.33 l 1.1,-1.17 a 1.11,1.11 0 0 0 0.37,-0.72 0.41,0.41 0 0 0 -0.12,-0.31 0.47,0.47 0 0 0 -0.33,-0.11 0.92,0.92 0 0 0 -0.35,0.06 2.87,2.87 0 0 0 -0.37,0.19 l -0.13,0.07 h -0.11 a 0.22,0.22 0 0 1 -0.18,-0.1 0.36,0.36 0 0 1 -0.08,-0.23 0.34,0.34 0 0 1 0,-0.16 0.31,0.31 0 0 1 0.11,-0.11 1.86,1.86 0 0 1 0.52,-0.26 1.84,1.84 0 0 1 0.59,-0.1 1.5,1.5 0 0 1 0.62,0.12 0.93,0.93 0 0 1 0.41,0.34 0.92,0.92 0 0 1 0.14,0.51 1.26,1.26 0 0 1 -0.13,0.57 2.48,2.48 0 0 1 -0.43,0.58 l -0.79,0.83 h 1.16 c 0.3,0.06 0.45,0.16 0.45,0.33 z"
         style="fill:#ffffff"
         id="path554"
         inkscape:connector-curvature="0" />
      <path
         d="m 17.75,202.9 a 0.32,0.32 0 0 1 0.18,-0.05 0.38,0.38 0 0 1 0.25,0.09 0.28,0.28 0 0 1 0.11,0.22 0.32,0.32 0 0 1 0,0.15 l -0.9,1.84 a 0.37,0.37 0 0 1 -0.15,0.17 0.44,0.44 0 0 1 -0.43,0 0.39,0.39 0 0 1 -0.16,-0.17 l -0.9,-1.84 a 0.35,0.35 0 0 1 0,-0.13 0.29,0.29 0 0 1 0.12,-0.23 0.41,0.41 0 0 1 0.26,-0.09 0.35,0.35 0 0 1 0.19,0.05 0.36,0.36 0 0 1 0.14,0.16 l 0.61,1.34 0.61,-1.34 a 0.36,0.36 0 0 1 0.07,-0.17 z"
         style="fill:#ffffff"
         id="path556"
         inkscape:connector-curvature="0" />
    </g>
    <g
       id="g563">
      <circle
         id="circle868"
         cx="59.52"
         cy="214.14999"
         r="3.99"
         style="fill:#bb9965" />
      <circle
         id="circle868-2"
         cx="59.52"
         cy="214.14999"
         r="1.86"
         style="fill:#231f20" />
      <path
         id="path884"
         d="m 59.52,209.1 a 5.06,5.06 0 1 1 -5.06,5.06 v 0 a 5.06,5.06 0 0 1 5.06,-5.06 m 0,-0.44 a 5.5,5.5 0 1 0 5.5,5.5 v 0 a 5.5,5.5 0 0 0 -5.5,-5.5 z"
         style="fill:#ffffff"
         inkscape:connector-curvature="0" />
    </g>
    <g
       id="g568">
      <circle
         id="circle868-3"
         cx="10.02"
         cy="214.14999"
         r="3.99"
         style="fill:#bb9965" />
      <circle
         id="circle868-4"
         cx="10.02"
         cy="214.14999"
         r="1.86"
         style="fill:#231f20" />
      <path
         id="path884-2"
         d="m 10,209.1 a 5.06,5.06 0 1 1 -5,5.12 v -0.06 0 a 5.06,5.06 0 0 1 5,-5.06 m 0,-0.44 a 5.5,5.5 0 1 0 5.5,5.5 v 0 a 5.5,5.5 0 0 0 -5.5,-5.5 z"
         style="fill:#ffffff"
         inkscape:connector-curvature="0" />
    </g>
    <g
       id="g573">
      <circle
         id="circle868-5"
         cx="109.02"
         cy="214.14999"
         r="3.99"
         style="fill:#bb9965" />
      <circle
         id="circle868-6"
         cx="109.02"
         cy="214.14999"
         r="1.86"
         style="fill:#231f20" />
      <path
         id="path884-3"
         d="m 109,209.1 a 5.06,5.06 0 1 1 -5.06,5.06 v 0 A 5.06,5.06 0 0 1 109,209.1 m 0,-0.44 a 5.5,5.5 0 1 0 5.5,5.5 v 0 a 5.5,5.5 0 0 0 -5.5,-5.5 z"
         style="fill:#ffffff"
         inkscape:connector-curvature="0" />
    </g>
    <g
       style="opacity:0.38000034"
       id="g579"
       transform="scale(3.3795573,1)">
      <rect
         id="rect1709-2-2"
         data-name="rect1709-2"
         x="3.78"
         y="147.49001"
         width="1.26"
         height="74.879997"
         style="fill:#2b2c2b" />
      <rect
         id="rect1709-3-2"
         data-name="rect1709-3"
         x="2.5699999"
         y="147.49001"
         width="1.26"
         height="74.879997"
         style="fill:#252624" />
      <rect
         id="rect1709-4-2"
         data-name="rect1709-4"
         x="1.28"
         y="147.49001"
         width="1.26"
         height="74.879997"
         style="fill:#1e1d1d" />
      <rect
         id="rect1709-5-2"
         data-name="rect1709-5"
         y="147.49001"
         width="1.26"
         height="74.879997"
         style="fill:#191818"
         x="0" />
    </g>
    <g
       transform="matrix(-3.3795573,0,0,-1,120.13,369.86001)"
       id="g1489"
       style="opacity:0.38000039">
      <rect
         style="fill:#2b2c2b"
         height="74.879997"
         width="1.26"
         y="147.49001"
         x="3.78"
         data-name="rect1709-2"
         id="rect1481" />
      <rect
         style="fill:#252624"
         height="74.879997"
         width="1.26"
         y="147.49001"
         x="2.5699999"
         data-name="rect1709-3"
         id="rect1483" />
      <rect
         style="fill:#1e1d1d"
         height="74.879997"
         width="1.26"
         y="147.49001"
         x="1.28"
         data-name="rect1709-4"
         id="rect1485" />
      <rect
         x="0"
         style="fill:#191818"
         height="74.879997"
         width="1.26"
         y="147.49001"
         data-name="rect1709-5"
         id="rect1487" />
    </g>
  </g>
</svg>
